<?xml version="1.0" encoding="UTF-8" standalone="no"?>
<svg
   width="490pt"
   height="171pt"
   viewBox="-304 -304 653.33333 228"
   version="1.1"
   id="svg226"
   sodipodi:docname="eos-wordmark.svg"
   inkscape:version="1.2.2 (b0a84865, 2022-12-01)"
   xml:space="preserve"
   xmlns:inkscape="http://www.inkscape.org/namespaces/inkscape"
   xmlns:sodipodi="http://sodipodi.sourceforge.net/DTD/sodipodi-0.dtd"
   xmlns="http://www.w3.org/2000/svg"
   xmlns:svg="http://www.w3.org/2000/svg"
   xmlns:rdf="http://www.w3.org/1999/02/22-rdf-syntax-ns#"
   xmlns:cc="http://creativecommons.org/ns#"
   xmlns:dc="http://purl.org/dc/elements/1.1/"><defs
     id="defs230"><rect
       x="37.760935"
       y="-53.567838"
       width="328.43232"
       height="180.90122"
       id="rect363" /><rect
       x="-11.915994"
       y="17.332354"
       width="878.53369"
       height="174.40681"
       id="rect71227" /><clipPath
       id="a"><path
         d="m 150.97,50.8 c -9.07,0.38 -19.66,3.95 -25.85,8.6 -5.62,4.21 -10.26,10.47 -8.46,16.56 9.9,0.19 20.13,-3.47 26.07,-8.18 5.55,-4.4 9.77,-10.63 8.24,-16.99 m 3.35,24.48 c -15.27,0 -21.72,4.49 -32.31,4.49 -10.92,0 -19.23,-4.49 -32.43,-4.49 -12.98,0 -26.77,4.88 -35.51,13.21 l -0.16,0.16 A 24.3,24.3 0 0 0 46.88,102 c -0.76,4.14 -0.56,8.66 0.62,13.35 a 46,46 0 0 0 5.93,13.35 65,65 0 0 0 11.45,13.35 c 7,6.45 16.2,13.28 28.04,13.34 11.08,0.07 14.21,-4.37 29.24,-4.42 15.03,-0.05 17.87,4.47 28.94,4.4 11.35,-0.05 20.7,-7 27.67,-13.32 l 1.98,-1.83 a 70,70 0 0 0 10.12,-11.51 l 0.87,-1.18 c -9.96,-2.32 -17.03,-6.85 -20.85,-12.18 -3,-4.18 -4,-8.86 -2.81,-13.35 1.31,-4.98 5.3,-9.73 12.2,-13.35 a 45,45 0 0 1 6.52,-2.76 C 178.08,79.17 165.85,75.28 154.32,75.28"
         id="path1799" /></clipPath></defs><sodipodi:namedview
     id="namedview228"
     pagecolor="#ffffff"
     bordercolor="#000000"
     borderopacity="0.25"
     inkscape:showpageshadow="2"
     inkscape:pageopacity="0.0"
     inkscape:pagecheckerboard="0"
     inkscape:deskcolor="#d1d1d1"
     showgrid="false"
     inkscape:zoom="1.0520629"
     inkscape:cx="295.13444"
     inkscape:cy="67.011201"
     inkscape:window-width="1507"
     inkscape:window-height="811"
     inkscape:window-x="293"
     inkscape:window-y="39"
     inkscape:window-maximized="0"
     inkscape:current-layer="g3741"
     inkscape:document-units="pt" /><title
     id="title222">Squircle: x to 4th plus y to 4th equals radius to 4th</title><metadata
     id="metadata349"><rdf:RDF><cc:Work
         rdf:about=""><dc:title>Squircle: x to 4th plus y to 4th equals radius to 4th</dc:title></cc:Work></rdf:RDF></metadata><g
     id="g699"
     transform="matrix(1.3333333,0,0,1,101.33333,0)"
     style="stroke-width:0.866025"><rect
       style="fill:#002b36;fill-opacity:1;stroke-width:2.3094;stroke-linecap:round;stroke-linejoin:round"
       id="rect2950"
       width="490"
       height="228"
       x="-304"
       y="-304" /><g
       id="g3741"
       transform="matrix(2.3526451,0,0,2.3526451,79.806057,299.29333)"
       style="stroke-width:0.368107"><g
         id="g3698"
         transform="translate(96.014965)"
         style="stroke-width:0.368107" /><g
         id="g3779"
         transform="matrix(1.0384904,0,0,1.0384904,2.27093,6.3599438)"
         style="stroke-width:0.354464"><g
           id="g3753"
           style="stroke-width:0.354464"
           transform="translate(96.014965)"><g
             aria-label="EOS/    6.3"
             transform="matrix(0.75000003,0,0,1,-287.53449,-216.11748)"
             id="text361"
             style="font-size:74.6667px;line-height:1.5;font-family:Orbitron;-inkscape-font-specification:'Orbitron, @wdth=99.9';font-variant-ligatures:discretionary-ligatures;font-variant-numeric:oldstyle-nums;font-variation-settings:'wdth' 99.9;white-space:pre;shape-inside:url(#rect363);fill:#d33682;stroke-width:0.773478;stroke-linecap:round;stroke-linejoin:round"><path
               d="m 42.988388,25.296112 v -60.480029 h 21.877344 v 4.405336 H 48.737724 v 22.6986771 h 13.14134 v 4.1813354 H 48.737724 V 21.04011 h 16.277341 v 4.256002 z"
               style="font-family:Oswald;-inkscape-font-specification:'Oswald, @wght=300';font-variation-settings:'wght' 300;fill:#fdf6e3"
               id="path3781" /><path
               d="m 87.11632,26.042779 q -6.048003,0 -9.482671,-2.314668 -3.360002,-2.389334 -4.778669,-6.57067 -1.344001,-4.256002 -1.344001,-9.7066708 V -17.637242 q 0,-5.525336 1.418667,-9.557338 1.493335,-4.106668 4.853336,-6.346669 3.434668,-2.240001 9.333338,-2.240001 5.824003,0 9.184004,2.240001 3.434669,2.240001 4.853336,6.346669 1.41867,4.032002 1.41867,9.557338 V 7.5254369 q 0,5.4506691 -1.41867,9.6320041 -1.344001,4.106669 -4.704002,6.496004 -3.360002,2.389334 -9.333338,2.389334 z m 0,-4.554669 q 3.957335,0 6.048003,-1.568001 2.090667,-1.642667 2.837334,-4.480002 0.821334,-2.912001 0.821334,-6.7200029 V -18.682576 q 0,-3.808001 -0.821334,-6.645336 -0.746667,-2.837335 -2.837334,-4.330669 -2.090668,-1.568001 -6.048003,-1.568001 -4.032002,0 -6.197336,1.568001 -2.090668,1.493334 -2.912002,4.330669 -0.746667,2.837335 -0.746667,6.645336 V 8.7201041 q 0,3.8080019 0.746667,6.7200029 0.821334,2.837335 2.912002,4.480002 2.165334,1.568001 6.197336,1.568001 z"
               style="font-family:Oswald;-inkscape-font-specification:'Oswald, @wght=300';font-variation-settings:'wght' 300;fill:#fdf6e3"
               id="path3783" /><path
               d="m 124.82298,26.042779 q -4.928,0 -8.21334,-2.016001 -3.21067,-2.090668 -4.85333,-5.749336 -1.64267,-3.733335 -2.016,-8.6613374 l 5.00266,-1.4933341 q 0.37334,3.7333355 1.344,6.7946695 0.97067,2.986669 3.06134,4.778669 2.09067,1.717335 5.74934,1.717335 4.032,0 6.272,-2.090668 2.24,-2.090668 2.24,-6.645337 0,-4.0320016 -2.016,-6.944003 -1.94134,-2.9120013 -5.376,-6.12266954 L 115.34031,-10.618572 q -2.83734,-2.762668 -4.18134,-5.674669 -1.344,-2.986668 -1.344,-6.496003 0,-6.272003 3.73334,-9.632005 3.73333,-3.360001 9.93067,-3.360001 3.21067,0 5.74933,0.821333 2.61334,0.821334 4.40534,2.688002 1.86667,1.792 2.912,4.704002 1.04534,2.912001 1.41867,7.093337 l -4.85334,1.269333 q -0.29866,-3.808001 -1.26933,-6.496003 -0.896,-2.762668 -2.912,-4.181335 -1.94134,-1.418667 -5.45067,-1.418667 -3.73334,0 -6.12267,1.941334 -2.38934,1.941334 -2.38934,6.048003 0,2.464001 0.896,4.480002 0.97067,2.016001 3.36001,4.330669 l 10.67733,10.0800045 q 3.58401,3.3600016 6.19734,7.4666703 2.61334,4.1066686 2.61334,9.2586712 0,4.554669 -1.79201,7.616003 -1.71733,3.061335 -4.85333,4.629336 -3.136,1.493334 -7.24267,1.493334 z"
               style="font-family:Oswald;-inkscape-font-specification:'Oswald, @wght=300';font-variation-settings:'wght' 300;fill:#fdf6e3"
               id="path3785" /><path
               d="m 142.62148,25.296112 17.248,-60.480029 h 4.77867 l -17.17334,60.480029 z"
               style="font-family:Oswald;-inkscape-font-specification:'Oswald, @wght=300';font-variation-settings:'wght' 300;fill:#fdf6e3"
               id="path3787" /><path
               d="m 246.33309,26.042779 q -5.00267,0 -8.064,-2.240001 -3.06134,-2.314668 -4.48001,-6.57067 -1.41866,-4.330669 -1.41866,-10.1546713 V -17.039908 q 0,-5.600003 1.344,-9.781338 1.344,-4.256002 4.40533,-6.57067 3.06134,-2.389334 8.13867,-2.389334 4.55467,0 7.54134,1.568 2.98667,1.568001 4.48,4.704003 1.568,3.061334 1.568,7.69067 0,0.149333 0,0.672 0.0747,0.448 0.0747,0.597334 h -5.45067 q 0,-5.824003 -1.86667,-8.288004 -1.792,-2.464001 -6.12267,-2.464001 -2.53867,0 -4.48,1.269334 -1.94133,1.194667 -3.06133,4.032002 -1.12001,2.837334 -1.12001,7.69067 v 11.4240054 q 1.34401,-1.269334 3.88267,-2.3893345 2.61334,-1.1200009 5.82401,-1.1200009 5.00267,0 7.84,1.8666679 2.83733,1.8666676 4.032,5.8240028 1.19467,3.9573352 1.19467,10.3040049 0,5.5253364 -1.41867,9.7066714 -1.41867,4.181335 -4.55467,6.496003 -3.06133,2.240001 -8.288,2.240001 z m 0,-4.554669 q 2.98667,0 4.85333,-1.269334 1.94134,-1.344 2.91201,-4.181335 0.97066,-2.837335 0.97066,-7.3920036 0,-4.9280023 -0.59733,-8.21333721 -0.52267,-3.28533489 -2.38933,-4.92800239 -1.79201,-1.6426674 -5.74934,-1.6426674 -1.792,0 -3.43467,0.5973336 -1.64267,0.5226669 -2.98667,1.3440006 -1.344,0.7466671 -2.09067,1.4933341 V 7.749437 q 0,4.853336 0.89601,7.91467 0.896,2.986669 2.76266,4.405336 1.94134,1.418667 4.85334,1.418667 z"
               style="font-family:Oswald;-inkscape-font-specification:'Oswald, @wght=300';font-variation-settings:'wght' 300;fill:#fdf6e3"
               id="path3789" /><path
               d="m 269.18099,25.296112 v -8.213337 h 5.74934 v 8.213337 z"
               style="font-family:Oswald;-inkscape-font-specification:'Oswald, @wght=300';font-variation-settings:'wght' 300;fill:#fdf6e3"
               id="path3791" /><path
               d="m 295.98633,26.042779 q -4.704,0 -7.69067,-1.792001 -2.98667,-1.866667 -4.40534,-5.152002 -1.344,-3.285335 -1.344,-7.765337 V 9.8401047 h 5.30134 q 0,0.1493334 0,0.5973333 0,0.448001 0,0.672001 0.0747,3.210668 0.82133,5.600002 0.74667,2.314668 2.53867,3.584002 1.792,1.269334 4.77867,1.269334 2.83733,0 4.77867,-1.194667 2.016,-1.269334 2.98666,-4.106669 1.04534,-2.837335 1.04534,-7.3920035 0,-5.6000026 -2.016,-9.10933763 -2.016,-3.58400167 -7.01867,-3.73333507 -0.14934,0 -0.74667,0 -0.59733,0 -0.74667,0 v -5.2266692 q 0.14934,0 0.74667,0 0.59733,0 0.74667,0 4.85333,0 6.944,-2.6880016 2.09067,-2.762668 2.09067,-8.810671 0,-4.704002 -1.792,-7.69067 -1.71734,-2.986668 -6.42134,-2.986668 -4.55467,0 -6.64534,2.613335 -2.016,2.538667 -2.09066,7.91467 0,0.149333 0,0.522667 0,0.298667 0,0.522667 h -5.30134 v -1.418667 q 0,-4.480003 1.344,-7.690671 1.41867,-3.285335 4.55467,-5.077336 3.136,-1.792 8.064,-1.792 4.77867,0 7.84001,1.941334 3.06133,1.941334 4.55467,5.376002 1.49333,3.360002 1.49333,7.765337 0,6.34667 -2.464,9.856005 -2.38933,3.4346684 -6.19734,4.3306689 2.24,0.5973336 4.18134,2.3893344 2.016,1.7920009 3.21067,5.0026691 1.26933,3.1360015 1.26933,7.9146704 0,5.0773362 -1.49333,9.0346712 -1.41867,3.882668 -4.55467,6.048003 -3.136,2.165334 -8.36267,2.165334 z"
               style="font-family:Oswald;-inkscape-font-specification:'Oswald, @wght=300';font-variation-settings:'wght' 300;fill:#fdf6e3"
               id="path3793" /></g><g
             clip-path="url(#a)"
             transform="matrix(0.27422524,0,0,0.59104725,-177.25527,-281.91802)"
             id="g1818"
             style="stroke-width:0.599718"><g
               stroke-linecap="round"
               id="g1816"
               style="stroke-width:0.952788"><path
                 fill="#75bd21"
                 d="M 24.86,37.45 H 213.3 V 102 H 24.86 Z"
                 id="path1804"
                 style="stroke-width:1.51372" /><path
                 fill="#ffc728"
                 d="M 24.86,88.65 H 213.3 v 26.7 H 24.86 Z"
                 id="path1806"
                 style="stroke-width:1.51372" /><path
                 fill="#ff661c"
                 d="M 24.86,102 H 213.3 v 26.7 H 24.86 Z"
                 id="path1808"
                 style="stroke-width:1.51372" /><path
                 fill="#cf0f2b"
                 d="M 24.86,115.35 H 213.3 v 26.7 H 24.86 Z"
                 id="path1810"
                 style="stroke-width:1.51372" /><path
                 fill="#b01cab"
                 d="M 24.86,128.7 H 213.3 v 26.68 H 24.86 Z"
                 id="path1812"
                 style="stroke-width:1.51372" /><path
                 fill="#00a1de"
                 d="M 24.86,142.06 H 213.3 v 26.68 H 24.86 Z"
                 id="path1814"
                 style="stroke-width:1.51372" /></g></g></g><g
           aria-label="community distribution"
           transform="scale(0.86602543,1.1547005)"
           id="text2848"
           style="font-size:21.9012px;line-height:1.5;font-family:Oswald;-inkscape-font-specification:'Oswald, @wght=300';font-variant-ligatures:discretionary-ligatures;font-variant-numeric:oldstyle-nums;font-variation-settings:'wght' 300;text-align:center;text-anchor:middle;fill:#eee8d5;stroke-width:0.669851;stroke-linecap:round;stroke-linejoin:round"><path
             d="m -179.38524,-142.66802 q -1.27027,0 -2.10252,-0.21901 -0.81034,-0.21902 -1.31407,-0.65704 -0.48182,-0.43802 -0.72274,-1.11696 -0.24091,-0.67894 -0.32852,-1.62069 -0.0657,-0.94175 -0.0657,-2.14632 0,-1.24837 0.0876,-2.19012 0.1095,-0.94175 0.37232,-1.62069 0.26281,-0.70083 0.76654,-1.11696 0.50373,-0.41612 1.29217,-0.61323 0.78844,-0.21901 1.94921,-0.21901 0.76654,0 1.59878,0.0876 0.83225,0.0657 1.40168,0.19711 v 1.44548 q -0.52563,-0.0876 -1.24837,-0.15331 -0.72274,-0.0657 -1.31407,-0.0657 -1.02936,0 -1.66449,0.17521 -0.61324,0.17521 -0.94175,0.63513 -0.30662,0.45993 -0.41613,1.29218 -0.1095,0.83224 -0.1095,2.14631 0,1.33598 0.1095,2.19012 0.10951,0.85415 0.43803,1.29217 0.35042,0.43803 0.96365,0.61324 0.63514,0.15331 1.66449,0.15331 0.61324,0 1.31407,-0.0657 0.72274,-0.0657 1.31408,-0.15331 v 1.44548 q -0.56944,0.10951 -1.42358,0.19711 -0.83225,0.0876 -1.62069,0.0876 z"
             style="font-family:Saira;-inkscape-font-specification:'Saira, @wght=400,wdth=99.9';font-variation-settings:'wdth' 99.9, 'wght' 400"
             id="path3796" /><path
             d="m -168.98218,-142.66802 q -1.37977,0 -2.29962,-0.17521 -0.89795,-0.15331 -1.42358,-0.52563 -0.52563,-0.37232 -0.78845,-1.02936 -0.24091,-0.65703 -0.30661,-1.64259 -0.0657,-1.00745 -0.0657,-2.38723 0,-1.37977 0.0657,-2.36533 0.0657,-1.00745 0.30661,-1.66449 0.26282,-0.65703 0.78845,-1.02935 0.52563,-0.37232 1.42358,-0.52563 0.91985,-0.17521 2.29962,-0.17521 1.37978,0 2.27773,0.17521 0.91985,0.15331 1.44548,0.52563 0.54753,0.37232 0.78844,1.02935 0.24091,0.65704 0.30662,1.66449 0.0876,0.98556 0.0876,2.36533 0,1.37978 -0.0876,2.38723 -0.0657,0.98556 -0.30662,1.64259 -0.24091,0.65704 -0.78844,1.02936 -0.52563,0.37232 -1.44548,0.52563 -0.89795,0.17521 -2.27773,0.17521 z m 0,-1.51118 q 1.16076,0 1.7959,-0.15331 0.65704,-0.15331 0.91985,-0.59134 0.28472,-0.43802 0.32852,-1.27026 0.0657,-0.85415 0.0657,-2.23393 0,-1.37977 -0.0657,-2.21202 -0.0438,-0.85414 -0.32852,-1.29217 -0.26281,-0.43802 -0.91985,-0.59133 -0.63514,-0.15331 -1.7959,-0.15331 -1.16076,0 -1.8178,0.15331 -0.63513,0.15331 -0.89795,0.59133 -0.26281,0.43803 -0.32852,1.29217 -0.0657,0.83225 -0.0657,2.21202 0,1.37978 0.0657,2.23393 0.0657,0.83224 0.32852,1.27026 0.26282,0.43803 0.89795,0.59134 0.65704,0.15331 1.8178,0.15331 z"
             style="font-family:Saira;-inkscape-font-specification:'Saira, @wght=400,wdth=99.9';font-variation-settings:'wdth' 99.9, 'wght' 400"
             id="path3798" /><path
             d="m -160.79117,-142.84323 v -11.16961 h 1.59879 l 0.0876,1.59878 h 0.1314 q 0.19711,-0.52562 0.59134,-0.91985 0.41612,-0.39422 1.07315,-0.61323 0.67894,-0.24091 1.7083,-0.24091 1.48928,0 2.21202,0.43802 0.74464,0.41612 1.00745,1.33597 h 0.15331 q 0.21901,-0.52562 0.63514,-0.91985 0.41612,-0.39422 1.11696,-0.61323 0.70084,-0.24091 1.73019,-0.24091 1.48929,0 2.23393,0.45992 0.74464,0.45993 0.98555,1.42358 0.26281,0.96365 0.26281,2.47484 v 6.98648 h -1.79589 v -6.37325 q 0,-1.13886 -0.0876,-1.7959 -0.0657,-0.67894 -0.32852,-1.00745 -0.24091,-0.35042 -0.72274,-0.45993 -0.48182,-0.1095 -1.27027,-0.1095 -0.96365,0 -1.51118,0.26281 -0.52563,0.24091 -0.78844,0.74464 -0.24092,0.50373 -0.30662,1.24837 -0.0657,0.74464 -0.0657,1.73019 v 5.76002 h -1.774 v -6.37325 q 0,-1.13886 -0.0876,-1.7959 -0.0876,-0.67894 -0.32852,-1.00745 -0.24092,-0.35042 -0.74464,-0.45993 -0.48183,-0.1095 -1.27027,-0.1095 -0.94175,0 -1.48928,0.26281 -0.54753,0.26281 -0.81035,0.78844 -0.24091,0.50373 -0.30662,1.24837 -0.0657,0.74464 -0.0657,1.68639 v 5.76002 z"
             style="font-family:Saira;-inkscape-font-specification:'Saira, @wght=400,wdth=99.9';font-variation-settings:'wdth' 99.9, 'wght' 400"
             id="path3800" /><path
             d="m -141.49624,-142.84323 v -11.16961 h 1.59879 l 0.0876,1.59878 h 0.13141 q 0.19711,-0.52562 0.59133,-0.91985 0.41612,-0.39422 1.07316,-0.61323 0.67894,-0.24091 1.70829,-0.24091 1.48929,0 2.21203,0.43802 0.74464,0.41612 1.00745,1.33597 h 0.15331 q 0.21901,-0.52562 0.63513,-0.91985 0.41613,-0.39422 1.11696,-0.61323 0.70084,-0.24091 1.7302,-0.24091 1.48928,0 2.23392,0.45992 0.74464,0.45993 0.98556,1.42358 0.26281,0.96365 0.26281,2.47484 v 6.98648 h -1.7959 v -6.37325 q 0,-1.13886 -0.0876,-1.7959 -0.0657,-0.67894 -0.32852,-1.00745 -0.24091,-0.35042 -0.72274,-0.45993 -0.48183,-0.1095 -1.27027,-0.1095 -0.96365,0 -1.51118,0.26281 -0.52563,0.24091 -0.78845,0.74464 -0.24091,0.50373 -0.30661,1.24837 -0.0657,0.74464 -0.0657,1.73019 v 5.76002 h -1.77399 v -6.37325 q 0,-1.13886 -0.0876,-1.7959 -0.0876,-0.67894 -0.32852,-1.00745 -0.24091,-0.35042 -0.74464,-0.45993 -0.48182,-0.1095 -1.27027,-0.1095 -0.94175,0 -1.48928,0.26281 -0.54753,0.26281 -0.81034,0.78844 -0.24092,0.50373 -0.30662,1.24837 -0.0657,0.74464 -0.0657,1.68639 v 5.76002 z"
             style="font-family:Saira;-inkscape-font-specification:'Saira, @wght=400,wdth=99.9';font-variation-settings:'wdth' 99.9, 'wght' 400"
             id="path3802" /><path
             d="m -118.39051,-142.66802 q -1.22646,0 -1.99301,-0.26282 -0.74464,-0.26281 -1.13886,-0.78844 -0.39422,-0.52563 -0.54753,-1.33597 -0.1314,-0.83225 -0.1314,-1.97111 v -6.98648 h 1.77399 v 6.37325 q 0,1.11696 0.0876,1.79589 0.1095,0.67894 0.39422,1.02936 0.30662,0.32852 0.83224,0.43802 0.54753,0.10951 1.44548,0.10951 1.07316,0 1.6864,-0.26281 0.61323,-0.26282 0.89795,-0.78845 0.28471,-0.52563 0.35041,-1.24837 0.0876,-0.74464 0.0876,-1.68639 v -5.76001 h 1.774 v 11.16961 h -1.59879 l -0.0876,-1.59879 h -0.1314 q -0.21902,0.52563 -0.65704,0.91985 -0.41612,0.39422 -1.16076,0.63514 -0.74464,0.21901 -1.88351,0.21901 z"
             style="font-family:Saira;-inkscape-font-specification:'Saira, @wght=400,wdth=99.9';font-variation-settings:'wdth' 99.9, 'wght' 400"
             id="path3804" /><path
             d="m -109.10441,-142.84323 v -11.16961 h 1.59879 l 0.0876,1.59878 h 0.13141 q 0.24091,-0.52562 0.65704,-0.91985 0.41612,-0.39422 1.16076,-0.61323 0.74464,-0.24091 1.8835,-0.24091 1.22647,0 1.97111,0.26281 0.76654,0.26282 1.16076,0.78845 0.39423,0.52562 0.525633,1.35787 0.153308,0.81034 0.153308,1.94921 v 6.98648 h -1.774001 v -6.37325 q 0,-1.13886 -0.1095,-1.7959 -0.0876,-0.67894 -0.39422,-1.00745 -0.28472,-0.35042 -0.83225,-0.45993 -0.52563,-0.1095 -1.42358,-0.1095 -1.07316,0 -1.68639,0.26281 -0.61323,0.26281 -0.89795,0.78844 -0.28471,0.52563 -0.37232,1.27027 -0.0657,0.72274 -0.0657,1.66449 v 5.76002 z"
             style="font-family:Saira;-inkscape-font-specification:'Saira, @wght=400,wdth=99.9';font-variation-settings:'wdth' 99.9, 'wght' 400"
             id="path3806" /><path
             d="m -96.073205,-157.16662 v -1.9492 h 1.905404 v 1.9492 z m 0.0657,14.32339 v -11.16961 h 1.773997 v 11.16961 z"
             style="font-family:Saira;-inkscape-font-specification:'Saira, @wght=400,wdth=99.9';font-variation-settings:'wdth' 99.9, 'wght' 400"
             id="path3808" /><path
             d="m -89.502853,-142.84323 v -9.65843 h -2.255824 v -1.51118 h 2.255824 v -3.24138 h 1.773997 v 3.24138 h 2.671946 v 1.51118 h -2.671946 v 9.65843 z"
             style="font-family:Saira;-inkscape-font-specification:'Saira, @wght=400,wdth=99.9';font-variation-settings:'wdth' 99.9, 'wght' 400"
             id="path3810" /><path
             d="m -78.31134,-138.33158 q -0.635135,0 -1.335973,-0.0438 -0.678937,-0.0219 -1.314072,-0.0657 -0.613234,-0.0219 -1.09506,-0.0876 v -1.42358 q 0.72274,0.0219 1.314072,0.0438 0.613234,0.0438 1.116961,0.0438 0.503728,0.0219 0.941752,0.0219 1.248368,0 1.993009,-0.19711 0.744641,-0.19711 1.09506,-0.65703 0.350419,-0.43803 0.438024,-1.18267 0.109506,-0.74464 0.109506,-1.8178 v -0.65703 h -0.131407 q -0.197111,0.43802 -0.613234,0.81034 -0.394222,0.37232 -1.116961,0.59133 -0.72274,0.21901 -1.883503,0.21901 -1.226467,0 -1.993009,-0.24091 -0.744641,-0.26281 -1.138863,-0.78844 -0.394221,-0.54753 -0.54753,-1.35788 -0.131407,-0.81034 -0.131407,-1.9273 v -6.96458 h 1.773997 v 6.32944 q 0,1.13887 0.0876,1.8178 0.109506,0.67894 0.394222,1.02936 0.306616,0.32852 0.832245,0.43802 0.54753,0.10951 1.445479,0.10951 1.073159,0 1.686393,-0.26281 0.613233,-0.28472 0.897949,-0.81035 0.284715,-0.52563 0.350419,-1.24837 0.0876,-0.74464 0.0876,-1.66449 v -5.73811 h 1.773997 v 9.78983 q 0,1.59879 -0.17521,2.71575 -0.175209,1.13886 -0.678937,1.8178 -0.503727,0.70084 -1.511183,1.02936 -1.007455,0.32852 -2.671946,0.32852 z"
             style="font-family:Saira;-inkscape-font-specification:'Saira, @wght=400,wdth=99.9';font-variation-settings:'wdth' 99.9, 'wght' 400"
             id="path3812" /><path
             d="m -60.702815,-142.66802 q -1.204566,0 -2.01491,-0.26282 -0.788443,-0.26281 -1.248368,-0.89795 -0.459926,-0.65703 -0.657036,-1.77399 -0.197111,-1.11696 -0.197111,-2.80336 0,-1.70829 0.175209,-2.82525 0.197111,-1.13886 0.657036,-1.774 0.459926,-0.63513 1.248369,-0.89795 0.788443,-0.28471 1.993009,-0.28471 0.897949,0 1.598787,0.15331 0.700839,0.1314 1.204566,0.48182 0.525629,0.35042 0.810345,0.96366 h 0.131407 v -6.52656 h 1.773997 v 16.27259 h -1.598787 l -0.0657,-1.59879 h -0.131407 q -0.328518,0.76654 -0.919851,1.16076 -0.569431,0.37233 -1.29217,0.48183 -0.700839,0.13141 -1.467381,0.13141 z m 0.700839,-1.57689 q 1.116961,0 1.773997,-0.30661 0.657036,-0.30662 0.897949,-0.96366 0.219012,-0.61323 0.262814,-1.33597 0.0657,-0.72274 0.0657,-1.70829 0,-0.83225 -0.0657,-1.48929 -0.0438,-0.65703 -0.240913,-1.16076 -0.262814,-0.74464 -0.91985,-1.05126 -0.657036,-0.32851 -1.839701,-0.32851 -0.963653,0 -1.576886,0.1314 -0.591333,0.13141 -0.897949,0.56943 -0.284716,0.41613 -0.394222,1.24837 -0.109506,0.81035 -0.109506,2.21202 0,1.40168 0.109506,2.23393 0.109506,0.83224 0.416123,1.24836 0.306617,0.41613 0.897949,0.56943 0.613233,0.13141 1.620689,0.13141 z"
             style="font-family:Saira;-inkscape-font-specification:'Saira, @wght=400,wdth=99.9';font-variation-settings:'wdth' 99.9, 'wght' 400"
             id="path3814" /><path
             d="m -51.526246,-157.16662 v -1.9492 h 1.905404 v 1.9492 z m 0.0657,14.32339 v -11.16961 h 1.773997 v 11.16961 z"
             style="font-family:Saira;-inkscape-font-specification:'Saira, @wght=400,wdth=99.9';font-variation-settings:'wdth' 99.9, 'wght' 400"
             id="path3816" /><path
             d="m -42.196343,-142.66802 q -0.613234,0 -1.357874,-0.0438 -0.72274,-0.0438 -1.423578,-0.10951 -0.678937,-0.0438 -1.248369,-0.13141 v -1.44548 q 0.525629,0.0438 1.007456,0.0876 0.481826,0.0438 0.963652,0.0876 0.503728,0.0219 0.985554,0.0438 0.481827,0 0.985554,0 1.116961,0 1.64259,-0.15331 0.525629,-0.17521 0.678937,-0.56943 0.17521,-0.39423 0.17521,-1.02936 0,-0.72274 -0.131407,-1.05126 -0.109506,-0.32852 -0.416123,-0.41612 -0.284716,-0.10951 -0.876048,-0.17521 l -2.890958,-0.32852 q -1.029357,-0.1095 -1.554985,-0.43802 -0.525629,-0.35042 -0.72274,-0.98556 -0.197111,-0.63513 -0.197111,-1.59878 0,-1.09506 0.306617,-1.7521 0.306617,-0.65704 0.876048,-0.98555 0.569431,-0.32852 1.379776,-0.41613 0.810344,-0.1095 1.817799,-0.1095 0.569431,0 1.204566,0.0438 0.635135,0.0438 1.226467,0.10951 0.613234,0.0657 1.073159,0.1533 v 1.44548 q -0.569431,-0.0876 -1.160764,-0.1314 -0.591332,-0.0657 -1.182664,-0.0876 -0.591333,-0.0219 -1.204566,-0.0219 -0.854147,0 -1.44548,0.0876 -0.569431,0.0876 -0.876047,0.43802 -0.284716,0.35042 -0.284716,1.16076 0,0.63514 0.0876,0.96366 0.109506,0.30661 0.416123,0.43802 0.306616,0.10951 0.854146,0.17521 l 3.022366,0.32852 q 0.876048,0.0876 1.401677,0.35042 0.525628,0.24091 0.74464,0.87604 0.240914,0.63514 0.240914,1.90541 0,1.05126 -0.262815,1.70829 -0.262814,0.63514 -0.788443,0.98556 -0.503728,0.35042 -1.27027,0.45992 -0.766542,0.13141 -1.795898,0.13141 z"
             style="font-family:Saira;-inkscape-font-specification:'Saira, @wght=400,wdth=99.9';font-variation-settings:'wdth' 99.9, 'wght' 400"
             id="path3818" /><path
             d="m -34.158638,-142.84323 v -9.65843 h -2.255823 v -1.51118 h 2.255823 v -3.24138 h 1.773998 v 3.24138 h 2.671946 v 1.51118 h -2.671946 v 9.65843 z"
             style="font-family:Saira;-inkscape-font-specification:'Saira, @wght=400,wdth=99.9';font-variation-settings:'wdth' 99.9, 'wght' 400"
             id="path3820" /><path
             d="m -27.259767,-142.84323 v -11.16961 h 1.598787 l 0.0876,2.14631 h 0.131407 q 0.284716,-0.94175 0.810345,-1.44547 0.525628,-0.50373 1.270269,-0.67894 0.744641,-0.19711 1.64259,-0.19711 v 1.75209 q -1.511183,0 -2.321527,0.48183 -0.810344,0.48183 -1.138862,1.48928 -0.306617,1.00746 -0.306617,2.54054 v 5.08108 z"
             style="font-family:Saira;-inkscape-font-specification:'Saira, @wght=400,wdth=99.9';font-variation-settings:'wdth' 99.9, 'wght' 400"
             id="path3822" /><path
             d="m -19.309647,-157.16662 v -1.9492 h 1.905404 v 1.9492 z m 0.0657,14.32339 v -11.16961 h 1.773997 v 11.16961 z"
             style="font-family:Saira;-inkscape-font-specification:'Saira, @wght=400,wdth=99.9';font-variation-settings:'wdth' 99.9, 'wght' 400"
             id="path3824" /><path
             d="m -8.1838461,-142.66802 q -0.766542,0 -1.4892816,-0.13141 -0.7227393,-0.1095 -1.2921703,-0.48183 -0.569432,-0.39422 -0.89795,-1.16076 h -0.131407 l -0.0876,1.59879 h -1.598787 v -16.27259 h 1.773997 v 6.52656 h 0.131407 q 0.306617,-0.61324 0.810345,-0.96366 0.525628,-0.35042 1.2264667,-0.48182 0.7008384,-0.15331 1.5987876,-0.15331 1.204566,0 1.9930091,0.28471 0.7884432,0.26282 1.2264672,0.89795 0.4599252,0.63514 0.657036,1.7521 0.1971108,1.11696 0.1971108,2.82525 0,1.7083 -0.1971108,2.82526 -0.1971108,1.11696 -0.657036,1.75209 -0.4599252,0.63514 -1.2702696,0.91985 -0.7884431,0.26282 -1.9930091,0.26282 z m -0.7008384,-1.57689 q 0.985554,0 1.5987876,-0.13141 0.6132336,-0.1533 0.8979491,-0.56943 0.3066168,-0.41612 0.4161228,-1.24836 0.109506,-0.83225 0.109506,-2.23393 0,-1.40167 -0.109506,-2.21202 -0.109506,-0.83224 -0.4161228,-1.24837 -0.2847155,-0.43802 -0.8979491,-0.56943 -0.6132336,-0.1314 -1.5987876,-0.1314 -1.0731587,0 -1.7082935,0.28471 -0.635135,0.26282 -0.897949,0.85415 -0.262815,0.56943 -0.350419,1.31407 -0.0657,0.72274 -0.0657,1.70829 0,0.96366 0.0657,1.7083 0.0657,0.72274 0.328518,1.29217 0.262814,0.61323 0.897949,0.89795 0.6570358,0.28471 1.7301945,0.28471 z"
             style="font-family:Saira;-inkscape-font-specification:'Saira, @wght=400,wdth=99.9';font-variation-settings:'wdth' 99.9, 'wght' 400"
             id="path3826" /><path
             d="m 3.0295418,-142.66802 q -1.2264671,0 -1.9930091,-0.26282 -0.74464079,-0.26281 -1.13886238,-0.78844 -0.39422159,-0.52563 -0.54752998,-1.33597 -0.1314072,-0.83225 -0.1314072,-1.97111 v -6.98648 h 1.77399715 v 6.37325 q 0,1.11696 0.0876048,1.79589 0.109506,0.67894 0.3942216,1.02936 0.3066168,0.32852 0.8322455,0.43802 0.54753,0.10951 1.4454792,0.10951 1.0731588,0 1.6863924,-0.26281 0.6132335,-0.26282 0.8979491,-0.78845 0.2847156,-0.52563 0.3504192,-1.24837 0.087605,-0.74464 0.087605,-1.68639 v -5.76001 h 1.7739972 v 11.16961 H 6.9498565 l -0.087605,-1.59879 H 6.7308445 q -0.219012,0.52563 -0.657036,0.91985 -0.4161228,0.39422 -1.1607635,0.63514 -0.7446408,0.21901 -1.8835032,0.21901 z"
             style="font-family:Saira;-inkscape-font-specification:'Saira, @wght=400,wdth=99.9';font-variation-settings:'wdth' 99.9, 'wght' 400"
             id="path3828" /><path
             d="m 13.257393,-142.84323 v -9.65843 H 11.00157 v -1.51118 h 2.255823 v -3.24138 h 1.773997 v 3.24138 h 2.671947 v 1.51118 H 15.03139 v 9.65843 z"
             style="font-family:Saira;-inkscape-font-specification:'Saira, @wght=400,wdth=99.9';font-variation-settings:'wdth' 99.9, 'wght' 400"
             id="path3830" /><path
             d="m 20.09056,-157.16662 v -1.9492 h 1.905404 v 1.9492 z m 0.0657,14.32339 v -11.16961 h 1.773997 v 11.16961 z"
             style="font-family:Saira;-inkscape-font-specification:'Saira, @wght=400,wdth=99.9';font-variation-settings:'wdth' 99.9, 'wght' 400"
             id="path3832" /><path
             d="m 30.143203,-142.66802 q -1.379776,0 -2.299626,-0.17521 -0.897949,-0.15331 -1.423578,-0.52563 -0.525629,-0.37232 -0.788443,-1.02936 -0.240914,-0.65703 -0.306617,-1.64259 -0.0657,-1.00745 -0.0657,-2.38723 0,-1.37977 0.0657,-2.36533 0.0657,-1.00745 0.306617,-1.66449 0.262814,-0.65703 0.788443,-1.02935 0.525629,-0.37232 1.423578,-0.52563 0.91985,-0.17521 2.299626,-0.17521 1.379775,0 2.277724,0.17521 0.919851,0.15331 1.44548,0.52563 0.54753,0.37232 0.788443,1.02935 0.240913,0.65704 0.306617,1.66449 0.0876,0.98556 0.0876,2.36533 0,1.37978 -0.0876,2.38723 -0.0657,0.98556 -0.306617,1.64259 -0.240913,0.65704 -0.788443,1.02936 -0.525629,0.37232 -1.44548,0.52563 -0.897949,0.17521 -2.277724,0.17521 z m 0,-1.51118 q 1.160763,0 1.795898,-0.15331 0.657036,-0.15331 0.91985,-0.59134 0.284716,-0.43802 0.328518,-1.27026 0.0657,-0.85415 0.0657,-2.23393 0,-1.37977 -0.0657,-2.21202 -0.0438,-0.85414 -0.328518,-1.29217 -0.262814,-0.43802 -0.91985,-0.59133 -0.635135,-0.15331 -1.795898,-0.15331 -1.160764,0 -1.8178,0.15331 -0.635135,0.15331 -0.897949,0.59133 -0.262814,0.43803 -0.328518,1.29217 -0.0657,0.83225 -0.0657,2.21202 0,1.37978 0.0657,2.23393 0.0657,0.83224 0.328518,1.27026 0.262814,0.43803 0.897949,0.59134 0.657036,0.15331 1.8178,0.15331 z"
             style="font-family:Saira;-inkscape-font-specification:'Saira, @wght=400,wdth=99.9';font-variation-settings:'wdth' 99.9, 'wght' 400"
             id="path3834" /><path
             d="m 38.334227,-142.84323 v -11.16961 h 1.598787 l 0.08761,1.59878 h 0.131407 q 0.240914,-0.52562 0.657036,-0.91985 0.416123,-0.39422 1.160764,-0.61323 0.744641,-0.24091 1.883503,-0.24091 1.226467,0 1.971108,0.26281 0.766542,0.26282 1.160764,0.78845 0.394221,0.52562 0.525628,1.35787 0.153309,0.81034 0.153309,1.94921 v 6.98648 h -1.773997 v -6.37325 q 0,-1.13886 -0.109506,-1.7959 -0.0876,-0.67894 -0.394222,-1.00745 -0.284715,-0.35042 -0.832245,-0.45993 -0.525629,-0.1095 -1.423578,-0.1095 -1.073159,0 -1.686393,0.26281 -0.613233,0.26281 -0.897949,0.78844 -0.284716,0.52563 -0.37232,1.27027 -0.0657,0.72274 -0.0657,1.66449 v 5.76002 z"
             style="font-family:Saira;-inkscape-font-specification:'Saira, @wght=400,wdth=99.9';font-variation-settings:'wdth' 99.9, 'wght' 400"
             id="path3836" /></g></g></g></g></svg>
