<?xml version="1.0" encoding="UTF-8" standalone="no"?>
<svg
   width="490pt"
   height="171pt"
   viewBox="-304 -304 653.33333 228"
   version="1.1"
   id="svg226"
   sodipodi:docname="eudoramail-wordmark.svg"
   inkscape:version="1.2.2 (b0a84865, 2022-12-01)"
   xml:space="preserve"
   xmlns:inkscape="http://www.inkscape.org/namespaces/inkscape"
   xmlns:sodipodi="http://sodipodi.sourceforge.net/DTD/sodipodi-0.dtd"
   xmlns="http://www.w3.org/2000/svg"
   xmlns:svg="http://www.w3.org/2000/svg"
   xmlns:rdf="http://www.w3.org/1999/02/22-rdf-syntax-ns#"
   xmlns:cc="http://creativecommons.org/ns#"
   xmlns:dc="http://purl.org/dc/elements/1.1/"><defs
     id="defs230"><rect
       x="-11.915994"
       y="17.332354"
       width="878.53369"
       height="174.40681"
       id="rect71227" /></defs><sodipodi:namedview
     id="namedview228"
     pagecolor="#ffffff"
     bordercolor="#000000"
     borderopacity="0.25"
     inkscape:showpageshadow="2"
     inkscape:pageopacity="0.0"
     inkscape:pagecheckerboard="0"
     inkscape:deskcolor="#d1d1d1"
     showgrid="false"
     inkscape:zoom="0.80164577"
     inkscape:cx="188.3625"
     inkscape:cy="188.98622"
     inkscape:window-width="1309"
     inkscape:window-height="811"
     inkscape:window-x="201"
     inkscape:window-y="38"
     inkscape:window-maximized="0"
     inkscape:current-layer="g699"
     inkscape:document-units="pt" /><title
     id="title222">Squircle: x to 4th plus y to 4th equals radius to 4th</title><metadata
     id="metadata349"><rdf:RDF><cc:Work
         rdf:about=""><dc:title>Squircle: x to 4th plus y to 4th equals radius to 4th</dc:title></cc:Work></rdf:RDF></metadata><g
     id="g699"
     transform="matrix(1.3333333,0,0,1,101.33333,0)"
     style="stroke-width:0.866025"><rect
       style="fill:#81d8d0;fill-opacity:1;stroke-width:2.3094;stroke-linecap:round;stroke-linejoin:round"
       id="rect2950"
       width="490"
       height="228"
       x="-304.00003"
       y="-304.00003" /><g
       id="g6076"
       transform="matrix(1.0972948,0,0,1.0972948,5.7403624,16.694808)"
       style="stroke-width:0.789237"><path
         style="fill:#fdf6e3;fill-opacity:1;stroke:none;stroke-width:3.15694;stroke-linecap:round;stroke-linejoin:round;stroke-dasharray:none;stroke-opacity:1"
         d="m -96.229825,-268.34534 c 14.018924,0.68049 17.559782,2.13867 23.196258,9.62399 5.202897,6.90205 6.792669,12.05429 6.792669,22.26155 0,5.15224 -0.433574,8.16581 -1.734299,11.76265 -1.734299,5.05502 -7.587561,13.60968 -9.89996,14.58179 -1.806559,0.77769 -1.734299,2.33309 0.433579,8.65187 1.011673,2.91636 1.80656,5.6383 1.80656,5.92993 0,0.29163 0.650359,2.4303 1.372985,4.66617 2.601451,7.77696 6.575889,21.48385 6.575889,22.74761 0,1.06933 -2.023352,1.26376 -9.8277,1.06933 l -9.755432,-0.29164 -4.480273,-15.26228 c -2.529191,-8.36023 -4.913849,-15.74834 -5.347428,-16.52603 -0.5781,-0.97213 -2.673713,-1.16655 -8.454703,-0.97213 l -7.65983,0.29165 v 16.52603 c 0,12.24871 -0.21678,16.62325 -0.86715,16.91488 -1.37298,0.68049 -17.1262,1.16655 -17.77656,0.48606 -0.28905,-0.29163 -0.43358,-23.81693 -0.28905,-52.39725 l 0.14452,-51.91121 12.86272,0.6805 c 7.00946,0.38884 17.34299,0.8749 22.907205,1.16653 z"
         id="path65608" /><path
         style="fill:#fdf6e3;fill-opacity:1;stroke:none;stroke-width:3.15694;stroke-linecap:round;stroke-linejoin:round;stroke-dasharray:none;stroke-opacity:1"
         d="m 20.257286,-217.69789 0.216788,53.75822 h -9.755435 c -8.8160185,0 -9.75543077,-0.19442 -9.82769788,-1.74981 -0.0722604,-2.72194 0.14452758,-24.98348 0.43357928,-38.88479 0.1445208,-8.74908 0,-12.83199 -0.5058397,-12.63756 -0.43357257,0.19442 -2.0956124,3.40241 -3.6853852,7.09647 -7.1539855,17.0121 -13.8021355,33.44093 -15.0305955,37.13498 -1.589773,5.05503 -3.25181,5.34666 -4.624797,0.87491 -0.578099,-1.84703 -3.17955,-9.33235 -5.781002,-16.72046 -2.601445,-7.38811 -5.419682,-15.45671 -6.286835,-18.08143 -0.794886,-2.52752 -1.806559,-4.66617 -2.167872,-4.66617 -0.361313,0 -0.578099,9.33234 -0.578099,21.87269 0.07226,11.95707 -0.07226,22.26154 -0.289053,22.7476 -0.216787,0.48607 -4.335745,0.87491 -9.105068,0.97213 l -8.6715,0.0972 -0.07226,-40.6346 c 0,-22.26154 -0.144527,-45.00915 -0.216787,-50.55024 -0.07227,-5.92993 0.216787,-10.30446 0.65036,-10.79053 0.361313,-0.38884 4.98611,-0.8749 10.116747,-0.97211 l 9.466386,-0.19442 1.517512,4.18011 c 0.867147,2.33309 2.167872,6.31878 2.962758,9.04071 0.794887,2.62473 2.962765,9.13793 4.769324,14.38737 1.806565,5.15224 3.324077,9.81842 3.324077,10.20726 0,1.65261 2.962757,8.9435 3.613124,8.9435 0.361312,0 1.589773,-2.52751 2.745973,-5.63829 1.156197,-3.01357 2.818236,-7.2909 3.757649,-9.42956 10.9116312,-26.24723 13.0072436,-31.39947 13.0072436,-32.27438 0,-1.74981 1.8788278,-2.04144 11.2006864,-1.84703 l 8.671495,0.0972 z"
         id="path65606" /><path
         style="fill:#fdf6e3;fill-opacity:1;stroke:none;stroke-width:3.15694;stroke-linecap:round;stroke-linejoin:round;stroke-dasharray:none;stroke-opacity:1"
         d="m -169.57624,-273.69199 c 11.70653,1.06933 21.53422,2.23587 21.82327,2.43029 1.01167,0.87491 0.72263,19.83125 -0.28905,19.92847 -1.1562,0.19441 0.86715,0.19441 -16.98168,-0.58328 l -15.39191,-0.68048 v 9.8184 c 0,11.66545 -1.30072,10.69333 14.09118,11.08217 l 10.83937,0.19443 v 11.66544 11.66543 l -10.47806,0.58327 c -5.78099,0.38886 -11.27294,0.68049 -12.28461,0.77769 l -1.80657,0.0972 -0.0723,10.79053 v 10.79053 l 9.39412,-0.68048 c 5.2029,-0.38885 12.42915,-0.97213 15.97001,-1.45818 3.61312,-0.38885 6.72041,-0.58328 7.00946,-0.38885 0.21679,0.19442 0.50583,5.44387 0.50583,11.56822 0.0723,8.26302 -0.14452,11.37381 -0.79488,11.66545 -0.50584,0.19442 -8.38245,1.06933 -17.55978,1.94423 -16.40358,1.45818 -18.35467,1.65261 -29.41083,3.01358 l -5.63648,0.58326 v -58.91046 -58.91045 l 4.91386,0.48606 c 2.67371,0.29163 14.45249,1.45817 26.15901,2.52751 z"
         id="path65604" /><path
         style="fill:#fdf6e3;fill-opacity:1;stroke:none;stroke-width:3.15694;stroke-linecap:round;stroke-linejoin:round;stroke-dasharray:none;stroke-opacity:1"
         d="m 86.232928,-267.08158 v 10.59611 l -5.925522,0.58327 c -3.32408,0.29163 -10.550319,0.87491 -16.114536,1.26376 l -10.116743,0.77769 -0.216788,11.3738 -0.216788,11.47102 h 11.995571 11.995571 l -0.216788,12.83198 -0.216784,12.83198 H 65.638122 l -11.561995,0.0972 -0.216788,10.40168 -0.216788,10.30447 3.468597,0.58327 c 1.878828,0.29165 5.419689,0.7777 7.80435,1.06934 14.958332,1.6526 21.028375,2.62472 21.461954,3.20799 0.65036,0.87491 0.939412,22.45597 0.289048,23.23367 -0.216788,0.29163 -6.79267,-0.38885 -14.669283,-1.55539 -7.876607,-1.26376 -16.764893,-2.43031 -19.727651,-2.62473 -5.925522,-0.48606 -18.282412,-2.23587 -18.571463,-2.62472 -0.07226,-0.19443 -0.216788,-24.69184 -0.216788,-54.63314 -0.07226,-43.8426 0.07227,-54.43871 0.867155,-55.02197 0.505839,-0.48606 3.251809,-0.87492 5.997782,-0.87492 2.818243,0 8.38245,-0.48606 12.501414,-0.97212 4.046698,-0.48605 11.561999,-1.16654 16.620366,-1.55539 5.058376,-0.38884 9.321862,-0.7777 9.466386,-0.97211 0.144521,-0.19443 1.878824,-0.38885 3.829912,-0.38885 h 3.468598 z"
         id="path65602" /><path
         style="fill:#fdf6e3;fill-opacity:1;stroke:none;stroke-width:3.15694;stroke-linecap:round;stroke-linejoin:round;stroke-dasharray:none;stroke-opacity:1"
         d="m 163.77057,-276.31672 c 0.14452,5.6383 0,10.69332 -0.21679,11.17938 -0.43358,0.8749 -11.99557,2.72194 -21.67875,3.49964 -12.42914,0.97211 -19.58313,2.13866 -20.45027,3.3052 -0.5781,0.77769 -0.93942,5.34666 -1.08394,12.63756 -0.36132,15.35949 -0.93942,14.67901 13.0795,14.67901 20.45029,0.0972 22.76268,0.68048 26.80938,6.5132 3.54087,5.05502 4.0467,9.42956 4.0467,33.34371 0,29.16359 -0.86714,33.14929 -8.81602,39.27364 -4.48027,3.49963 -10.55032,4.0829 -22.97946,2.13867 -5.34743,-0.7777 -14.30797,-2.13867 -19.87219,-3.01357 -5.56421,-0.87491 -10.55032,-1.74983 -10.98389,-1.94425 -0.72263,-0.29164 -0.93941,-3.59684 -0.93941,-12.15149 v -11.66544 l 3.46859,0.38884 c 19.29408,2.23588 36.99839,3.69406 38.5159,3.20801 2.52918,-0.87492 3.54086,-4.37454 3.54086,-12.73478 0,-9.52677 -0.5781,-13.02641 -2.38466,-14.38737 -0.86715,-0.58327 -6.35909,-1.16655 -12.79046,-1.36097 -23.34077,-0.68049 -26.66485,-1.55539 -29.2663,-7.38811 -1.37299,-3.01358 -1.44525,-4.95782 -1.44525,-28.96917 v -25.76118 l 2.16788,-5.83271 c 3.25181,-8.65187 5.34742,-9.81842 21.60648,-11.66545 7.08172,-0.77769 14.01891,-1.65259 15.53642,-1.94423 1.44526,-0.19443 5.70874,-0.68049 9.46639,-0.97212 3.75765,-0.38885 8.31018,-0.97212 10.11675,-1.36097 1.80656,-0.38885 3.54086,-0.38885 3.82991,-0.0972 0.28905,0.38885 0.65036,5.34666 0.72263,11.08216 z"
         id="path65600" /><path
         style="fill:#fdf6e3;fill-opacity:1;stroke:none;stroke-width:3.15694;stroke-linecap:round;stroke-linejoin:round;stroke-dasharray:none;stroke-opacity:1"
         d="m -270.7437,-289.92639 9.75543,2.23587 0.43358,25.66397 c 0.28904,14.09573 0.50584,25.76117 0.5781,25.85839 0,0.19442 5.27516,0.29163 11.63426,0.29163 h 11.56199 v -23.33088 -23.42809 l 2.38467,0.48607 c 1.22846,0.29163 5.5642,1.06933 9.53864,1.6526 3.97443,0.58327 7.29851,1.16654 7.37077,1.26375 0.14453,0.19443 0.43357,27.60821 0.65036,61.04913 l 0.50584,60.8547 -2.81824,0.48606 c -8.02113,1.6526 -16.25905,2.81915 -16.5481,2.52751 -0.14452,-0.29163 -0.50584,-12.24871 -0.72262,-26.63608 -0.21679,-14.38738 -0.50584,-26.24723 -0.5781,-26.24723 -0.0723,0 -5.27517,0.0972 -11.562,0.29163 l -11.41747,0.38885 0.14452,27.6082 c 0.0723,15.26228 0,27.80262 -0.14452,27.99705 -0.14453,0.19442 -4.40801,1.06933 -9.39412,1.94424 -4.98612,0.87491 -9.75544,1.74982 -10.62259,2.04145 -1.51751,0.38885 -1.58978,0.0972 -1.58978,-9.04071 0,-5.15224 -0.21678,-38.00989 -0.50584,-72.90899 -0.3613,-53.46659 -0.21678,-63.38221 0.57811,-63.38221 0.5781,0.0972 5.41968,1.06933 10.76711,2.33309 z"
         id="path65598" /><path
         style="fill:#81d8d0;fill-opacity:1;stroke:#fdf6e3;stroke-width:3.15694;stroke-linecap:round;stroke-linejoin:round;stroke-dasharray:none;stroke-opacity:1"
         d="m -112.56115,-248.12524 c -0.36131,0.58329 -0.65036,6.99928 -0.65036,14.38737 v 13.41527 l 9.2496,-0.0973 c 9.032812,-0.0971 12.067837,-0.77769 15.030593,-3.79126 3.829911,-3.88847 4.913851,-10.30447 2.890499,-17.0121 -1.734298,-5.44385 -4.40801,-6.70762 -15.825482,-7.29088 -5.85326,-0.29164 -10.26127,-0.0973 -10.69485,0.38883 z"
         id="path834" /></g><g
       aria-label="eudoramail"
       transform="scale(0.86602543,1.1547005)"
       id="text8984"
       style="font-size:80.8352px;line-height:1.5;font-family:Skia;-inkscape-font-specification:'Skia, @wght=1.25,wdth=0.75';font-variant-ligatures:discretionary-ligatures;font-variant-numeric:oldstyle-nums;font-variation-settings:'wdth' 0.75, 'wght' 1.25;text-align:justify;letter-spacing:5.1567px;fill:#fdf6e3;stroke-width:1.1547"><path
         d="m -216.03892,-87.684479 h -22.02444 q 0.0395,3.868091 1.22358,6.709953 1.22358,2.841863 3.74968,4.696967 2.01299,1.539342 4.46015,2.249808 2.48663,0.670995 5.56531,0.670995 1.93405,0 3.15763,-0.03947 1.26305,-0.07894 1.89457,-0.118411 l -0.90781,6.749423 q -0.671,0.03947 -1.85511,0.118411 -1.18411,0.07894 -3.31551,0.07894 -5.68372,-0.03947 -9.98598,-1.578813 -4.30227,-1.578812 -7.22307,-4.578556 -2.56557,-2.762922 -4.02597,-6.552071 -1.4604,-3.828621 -1.4604,-8.130885 0,-4.618026 1.02622,-8.170354 1.0657,-3.552328 3.5918,-6.788889 2.17087,-2.8024 5.17061,-4.18386 3.03922,-1.42093 6.35472,-1.42093 3.31551,0 5.96002,1.18411 2.64451,1.14464 4.49962,3.43392 2.17086,2.72345 3.11815,6.59154 0.98676,3.82862 1.02623,9.078171 z m -8.20983,-4.736437 q -0.35523,-4.696967 -2.09192,-7.144126 -1.69723,-2.447158 -4.61803,-2.447158 -2.9208,0 -4.81538,2.368217 -1.8551,2.368219 -2.56557,7.223067 z"
         style="-inkscape-font-specification:'Skia, @wght=1.50,wdth=0.80';font-variation-settings:'wdth' 0.8, 'wght' 1.5"
         id="path303" /><path
         d="m -174.72742,-66.844154 h -8.48611 v -3.591799 l -0.0789,-0.03947 q -2.44716,1.697223 -5.76267,3.197095 -3.27603,1.460402 -6.55207,1.460402 -4.57856,0 -7.14413,-3.039214 -2.5261,-3.039214 -2.5261,-8.446647 0,-3.78915 0.0395,-7.380948 0.0395,-3.631269 0.0395,-5.683725 0,-3.118154 -0.0789,-9.236053 -0.0395,-6.117897 -0.0395,-7.380947 h 8.76241 q 0,0.90782 -0.0395,6.15737 -0.0395,5.210079 -0.0395,8.249293 0,3.433917 0,6.946774 0.0395,3.512858 0.0395,4.933789 0.0395,4.262794 0.98676,6.038958 0.94729,1.736694 3.43392,1.697223 2.01298,0 4.65749,-1.30252 2.68398,-1.30252 4.10492,-2.447159 0,-0.552585 0,-4.696967 0.0395,-4.183853 0.0395,-8.565058 0,-4.341734 -0.0395,-10.104403 -0.0395,-5.76266 -0.0395,-6.9073 h 8.72293 q 0,1.34199 -0.0395,6.74942 -0.0395,5.407435 -0.0395,11.683214 0,5.486374 0.0395,10.222811 0.0395,4.696967 0.0395,11.485861 z"
         style="-inkscape-font-specification:'Skia, @wght=1.50,wdth=0.80';font-variation-settings:'wdth' 0.8, 'wght' 1.5"
         id="path305" /><path
         d="m -132.07391,-66.370511 q -0.71047,0 -1.89458,0 -1.18411,0 -2.68398,0 -6.86783,0 -11.01221,-0.986757 -4.14439,-1.026228 -7.14413,-2.920803 -4.18385,-2.605041 -6.35472,-6.631013 -2.1314,-4.025971 -2.1314,-9.196582 0,-5.881077 2.48663,-10.222811 2.5261,-4.341733 7.1836,-7.025713 2.56557,-1.49987 5.88108,-2.40769 3.35497,-0.90782 6.9073,-1.0657 l -0.0789,-17.88005 h 8.84135 q 0,1.34199 -0.0395,11.80162 -0.0395,10.45963 -0.0395,19.103633 0,7.262537 0.0395,15.906535 0.0395,8.643999 0.0395,11.525331 z m -8.52559,-25.576761 q 0,-1.815635 0,-4.302264 0,-2.5261 0,-3.828624 -2.48663,0 -4.73644,0.670999 -2.2498,0.670995 -3.94703,1.894575 -2.48663,1.736693 -3.90756,4.618026 -1.42093,2.881333 -1.42093,6.867834 0,3.670739 1.22358,6.23631 1.22358,2.56557 3.43392,4.341734 1.69722,1.26305 3.94703,1.934045 2.28928,0.670995 4.69697,0.710466 0.19735,0 0.35523,0 0.15788,0 0.35523,0 0,-0.315763 0,-6.038958 0,-5.762665 0,-13.104143 z"
         style="-inkscape-font-specification:'Skia, @wght=1.50,wdth=0.80';font-variation-settings:'wdth' 0.8, 'wght' 1.5"
         id="path307" /><path
         d="m -86.973264,-86.934543 q 0,4.539086 -1.26305,8.722939 -1.26305,4.183853 -3.986501,7.223067 -2.210338,2.5261 -5.131141,3.82862 -2.881334,1.30252 -6.394194,1.30252 -3.39444,0 -6.39419,-1.34199 -2.99974,-1.341991 -5.17061,-3.74968 -2.64451,-3.039214 -3.94703,-7.183596 -1.30252,-4.183853 -1.30252,-8.84135 0,-4.815378 1.14464,-8.525587 1.14464,-3.71021 3.67074,-6.86783 2.24981,-2.76293 5.36796,-4.18386 3.15763,-1.42093 6.59154,-1.42093 3.5918,0 6.552075,1.34199 2.999744,1.30252 5.328492,4.14438 2.48663,2.960278 3.710209,6.867839 1.22358,3.86809 1.22358,8.683468 z m -8.762409,0.157881 q 0,-3.394446 -0.710466,-6.512601 -0.710465,-3.157625 -2.170867,-5.13114 -0.986758,-1.26305 -2.289274,-1.973517 -1.30252,-0.74993 -2.84187,-0.74993 -1.69722,0 -2.99974,0.74993 -1.26305,0.710467 -2.32875,2.131398 -1.30252,1.697223 -2.05245,4.775908 -0.71047,3.039214 -0.71047,6.552071 0,3.552328 0.71047,6.512602 0.71046,2.960273 2.2498,4.933788 0.94729,1.341991 2.24981,2.091927 1.34199,0.749936 2.84186,0.749936 1.65776,0 2.99975,-0.789406 1.341988,-0.789407 2.328746,-2.249808 1.34199,-1.894575 2.012985,-4.815378 0.710466,-2.920803 0.710466,-6.27578 z"
         style="-inkscape-font-specification:'Skia, @wght=1.50,wdth=0.80';font-variation-settings:'wdth' 0.8, 'wght' 1.5"
         id="path309" /><path
         d="m -51.582307,-100.23604 q -2.5261,0.828879 -6.038957,2.328751 -3.512858,1.499872 -9.078172,4.460145 0,1.065698 -0.03947,3.82862 0,2.723452 0,5.999487 0,4.420675 0.03947,10.025459 0.07894,5.604785 0.07894,6.749424 h -8.84135 q 0,-1.420932 0.03947,-6.828364 0.03947,-5.446903 0.03947,-12.906792 0,-4.539086 -0.03947,-9.591286 -0.03947,-5.091674 -0.03947,-10.814864 h 8.683468 l -0.03947,6.07843 0.07894,0.0395 q 4.104912,-2.96028 7.61777,-4.77591 3.512857,-1.81563 5.210081,-2.44716 z"
         style="-inkscape-font-specification:'Skia, @wght=1.50,wdth=0.80';font-variation-settings:'wdth' 0.8, 'wght' 1.5"
         id="path311" /><path
         d="m -18.585777,-88.750177 q 0,7.420418 0,14.051431 0,6.591542 0,7.854592 -0.907817,0.157881 -3.907561,0.355232 -2.960273,0.236822 -6.43366,0.236822 -3.118155,0 -6.433661,-0.592054 -3.276036,-0.592055 -5.723195,-1.855105 -2.881333,-1.499872 -4.578556,-4.025972 -1.657753,-2.5261 -1.657753,-5.841606 0,-3.631268 1.855104,-6.196839 1.855105,-2.60504 5.446903,-4.341734 2.210338,-1.065698 5.604784,-1.855105 3.433917,-0.828876 7.065186,-1.263049 -0.118411,-2.762922 -0.986758,-4.420675 -0.828876,-1.657753 -2.723451,-2.644511 -1.460402,-0.82888 -3.433917,-1.10517 -1.973516,-0.27629 -4.420675,-0.27629 -1.460402,0 -2.407689,0.0789 -0.947288,0.0395 -2.210338,0.0789 l 0.789407,-6.82836 q 0.592054,0 1.697223,-0.0395 1.105169,-0.0789 3.276036,-0.0789 5.446903,0 9.078171,1.22358 3.670739,1.1841 6.117899,3.74967 2.170867,2.32875 3.078684,5.407437 0.907817,3.078684 0.907817,8.328236 z m -8.446646,8.92029 q 0,-1.736693 0,-3.82862 0,-2.091926 0,-3.670739 -1.26305,0.118411 -3.828621,0.670995 -2.5261,0.552585 -4.381204,1.499872 -1.460402,0.789406 -2.56557,2.368219 -1.065699,1.578812 -1.065699,3.591798 0,2.131397 0.947288,3.591799 0.947287,1.460401 2.447159,2.249807 1.26305,0.670996 2.762922,1.026228 1.539342,0.315763 3.276036,0.315763 0.473643,0 1.065698,0 0.631525,-0.03947 1.341991,-0.07894 0,-0.592054 0,-2.723451 0,-2.170867 0,-5.01273 z"
         style="-inkscape-font-specification:'Skia, @wght=1.50,wdth=0.80';font-variation-settings:'wdth' 0.8, 'wght' 1.5"
         id="path313" /><path
         d="m 37.527096,-66.844154 h -4.183853 q 0,-1.026228 0,-6.27578 0.03947,-5.249551 0.03947,-9.551815 0,-3.078684 -0.03947,-7.144127 0,-4.065442 0,-5.565313 -0.03947,-4.894321 -1.30252,-6.670481 -1.26305,-1.77617 -4.183853,-1.77617 -1.736694,0 -4.223324,1.34199 -2.447159,1.30252 -5.210081,3.433922 0,0.197351 0,0.828876 0.03947,0.631525 0.03947,1.18411 0,3.631268 -0.03947,7.223066 0,3.552329 0,6.117899 0,3.473387 0.03947,9.512345 0.03947,6.038957 0.03947,7.341478 h -4.183853 q 0,-0.986758 0.03947,-6.394191 0.03947,-5.446903 0.03947,-9.236053 0,-3.394446 -0.03947,-7.420418 0,-4.025972 0,-5.486373 0,-2.012986 -0.276292,-3.591799 -0.236822,-1.618282 -0.749936,-2.565572 -0.552584,-1.18411 -1.618283,-1.73669 -1.026228,-0.55259 -2.7234511,-0.55259 -1.8156343,0 -4.3417342,1.46041 -2.4866296,1.4604 -5.17061079,3.591794 0,0.592055 -0.0394703,5.367962 0,4.736438 0,8.407176 0,4.539086 0.0394703,10.814866 0.0394703,6.275779 0.0394703,7.341478 H -4.6666668 q 0,-1.105169 0.03947,-5.802136 0.03947,-4.736437 0.03947,-14.367193 0,-5.881077 -0.03947,-10.14387 0,-4.302267 -0.03947,-9.591287 h 4.14438271 v 4.18385 l 0.0394703,0.0789 q 2.48662958,-1.93404 5.32849198,-3.51285 2.8418625,-1.61829 5.5258438,-1.61829 2.920803,0 4.775907,1.42094 1.855105,1.42093 2.605041,3.78915 h 0.118411 q 2.960273,-2.28928 5.881076,-3.74968 2.960274,-1.46041 5.486374,-1.46041 4.104912,0 6.157368,2.68399 2.091927,2.68398 2.091927,7.578295 0,4.262794 -0.03947,7.61777 0,3.354977 0,5.802136 0,3.552328 0.03947,9.749167 0.03947,6.196839 0.03947,7.341478 z"
         style="-inkscape-font-specification:'Skia, @wght=0.75,wdth=0.80';font-variation-settings:'wdth' 0.8, 'wght' 0.75"
         id="path315" /><path
         d="m 72.431176,-89.697465 q 0,5.683725 -0.03947,13.538317 0,7.815122 0,9.314994 -0.986758,0.157881 -3.078684,0.276292 -2.052456,0.157881 -4.618027,0.157881 -2.802392,0 -5.367962,-0.552584 -2.5261,-0.592055 -4.460145,-1.855105 -2.368219,-1.420931 -3.710209,-3.82862 -1.341991,-2.407689 -1.341991,-5.565314 0,-3.394447 1.697223,-5.920547 1.736694,-2.56557 4.815378,-4.262793 1.934046,-1.065699 4.696968,-1.934046 2.802392,-0.868346 7.302007,-1.460401 -0.118411,-3.710209 -1.026228,-5.999487 -0.907817,-2.289282 -2.762922,-3.631272 -1.420931,-1.0657 -3.315506,-1.49987 -1.894575,-0.47364 -4.262794,-0.47364 -1.065698,0 -1.894574,0.0395 -0.828877,0.0395 -1.855105,0.0395 l 0.434173,-3.63127 q 0.434174,-0.0395 1.302521,-0.0789 0.868346,-0.0395 2.56557,-0.0395 3.86809,0 6.788893,1.02623 2.920803,1.02622 4.775908,3.11815 1.776164,2.01299 2.56557,5.012731 0.789406,2.960273 0.789406,8.209824 z m -4.104912,10.735925 q 0,-2.368219 0,-5.012729 0,-2.644511 0,-4.341735 -1.815634,0.157882 -4.775908,0.868347 -2.960273,0.670995 -5.012729,1.736694 -2.012986,1.144639 -3.236566,3.078684 -1.223579,1.894575 -1.223579,4.341734 0,2.48663 1.026228,4.262794 1.065698,1.776164 2.960273,2.802392 1.381461,0.789406 3.157625,1.184109 1.815634,0.355233 4.025972,0.355233 0.513114,0 1.30252,0 0.828877,-0.03947 1.776164,-0.118411 0,-0.710465 0,-3.433917 0,-2.762922 0,-5.723195 z"
         style="-inkscape-font-specification:'Skia, @wght=0.75,wdth=0.80';font-variation-settings:'wdth' 0.8, 'wght' 0.75"
         id="path317" /><path
         d="m 91.323516,-116.33992 h -4.854848 v -4.89432 h 4.854848 z m -0.315763,49.495766 H 86.8239 q 0,-1.105169 0,-6.078428 0.03947,-5.01273 0.03947,-13.735669 0,-4.460145 0,-9.630756 0,-5.210083 -0.03947,-10.459633 h 4.183853 q -0.03947,5.64426 -0.07894,10.262282 0,4.578556 0,9.472875 0,7.223067 0.03947,13.143613 0.03947,5.920547 0.03947,7.025716 z"
         style="-inkscape-font-specification:'Skia, @wght=0.75,wdth=0.80';font-variation-settings:'wdth' 0.8, 'wght' 0.75"
         id="path319" /><path
         d="m 110.53165,-66.844154 h -4.18385 q 0,-1.065699 0,-10.696455 0.0395,-9.630756 0.0395,-19.300982 0,-7.302009 -0.0395,-14.367189 0,-7.06519 0,-13.49885 h 4.18385 q -0.0395,3.43392 -0.0789,12.70944 0,9.23605 0,15.038188 0,9.709697 0.0395,19.458864 0.0395,9.749166 0.0395,10.656984 z"
         style="-inkscape-font-specification:'Skia, @wght=0.75,wdth=0.80';font-variation-settings:'wdth' 0.8, 'wght' 0.75"
         id="path321" /></g></g></svg>
