<?xml version="1.0" encoding="UTF-8" standalone="no"?>
<svg
   width="490pt"
   height="171pt"
   viewBox="-304 -304 653.33333 228"
   version="1.1"
   id="svg226"
   sodipodi:docname="hemera-wordmark.svg"
   inkscape:version="1.2.2 (b0a84865, 2022-12-01)"
   xml:space="preserve"
   xmlns:inkscape="http://www.inkscape.org/namespaces/inkscape"
   xmlns:sodipodi="http://sodipodi.sourceforge.net/DTD/sodipodi-0.dtd"
   xmlns="http://www.w3.org/2000/svg"
   xmlns:svg="http://www.w3.org/2000/svg"
   xmlns:rdf="http://www.w3.org/1999/02/22-rdf-syntax-ns#"
   xmlns:cc="http://creativecommons.org/ns#"
   xmlns:dc="http://purl.org/dc/elements/1.1/"><defs
     id="defs230"><rect
       x="-11.915994"
       y="17.332354"
       width="878.53369"
       height="174.40681"
       id="rect71227" /></defs><sodipodi:namedview
     id="namedview228"
     pagecolor="#ffffff"
     bordercolor="#000000"
     borderopacity="0.25"
     inkscape:showpageshadow="2"
     inkscape:pageopacity="0.0"
     inkscape:pagecheckerboard="0"
     inkscape:deskcolor="#d1d1d1"
     showgrid="false"
     inkscape:zoom="0.90092945"
     inkscape:cx="417.90176"
     inkscape:cy="253.62696"
     inkscape:window-width="1507"
     inkscape:window-height="811"
     inkscape:window-x="293"
     inkscape:window-y="39"
     inkscape:window-maximized="0"
     inkscape:current-layer="text8984"
     inkscape:document-units="pt" /><title
     id="title222">Squircle: x to 4th plus y to 4th equals radius to 4th</title><metadata
     id="metadata349"><rdf:RDF><cc:Work
         rdf:about=""><dc:title>Squircle: x to 4th plus y to 4th equals radius to 4th</dc:title></cc:Work></rdf:RDF></metadata><g
     id="g699"
     transform="matrix(1.3333333,0,0,1,101.33333,0)"
     style="stroke-width:0.866025"><rect
       style="fill:#5f5faf;fill-opacity:1;stroke-width:2.3094;stroke-linecap:round;stroke-linejoin:round"
       id="rect2950"
       width="490"
       height="228"
       x="-304.00003"
       y="-304.00003" /><g
       id="g6076"
       transform="matrix(1.0972948,0,0,1.0972948,5.7403624,16.694808)"
       style="stroke-width:0.789237"><path
         style="fill:#fdf6e3;fill-opacity:1;stroke:none;stroke-width:3.15694;stroke-linecap:round;stroke-linejoin:round;stroke-dasharray:none;stroke-opacity:1"
         d="m -96.229825,-268.34534 c 14.018924,0.68049 17.559782,2.13867 23.196258,9.62399 5.202897,6.90205 6.792669,12.05429 6.792669,22.26155 0,5.15224 -0.433574,8.16581 -1.734299,11.76265 -1.734299,5.05502 -7.587561,13.60968 -9.89996,14.58179 -1.806559,0.77769 -1.734299,2.33309 0.433579,8.65187 1.011673,2.91636 1.80656,5.6383 1.80656,5.92993 0,0.29163 0.650359,2.4303 1.372985,4.66617 2.601451,7.77696 6.575889,21.48385 6.575889,22.74761 0,1.06933 -2.023352,1.26376 -9.8277,1.06933 l -9.755432,-0.29164 -4.480273,-15.26228 c -2.529191,-8.36023 -4.913849,-15.74834 -5.347428,-16.52603 -0.5781,-0.97213 -2.673713,-1.16655 -8.454703,-0.97213 l -7.65983,0.29165 v 16.52603 c 0,12.24871 -0.21678,16.62325 -0.86715,16.91488 -1.37298,0.68049 -17.1262,1.16655 -17.77656,0.48606 -0.28905,-0.29163 -0.43358,-23.81693 -0.28905,-52.39725 l 0.14452,-51.91121 12.86272,0.6805 c 7.00946,0.38884 17.34299,0.8749 22.907205,1.16653 z"
         id="path65608" /><path
         style="fill:#fdf6e3;fill-opacity:1;stroke:none;stroke-width:3.15694;stroke-linecap:round;stroke-linejoin:round;stroke-dasharray:none;stroke-opacity:1"
         d="m 20.257286,-217.69789 0.216788,53.75822 h -9.755435 c -8.8160185,0 -9.75543077,-0.19442 -9.82769788,-1.74981 -0.0722604,-2.72194 0.14452758,-24.98348 0.43357928,-38.88479 0.1445208,-8.74908 0,-12.83199 -0.5058397,-12.63756 -0.43357257,0.19442 -2.0956124,3.40241 -3.6853852,7.09647 -7.1539855,17.0121 -13.8021355,33.44093 -15.0305955,37.13498 -1.589773,5.05503 -3.25181,5.34666 -4.624797,0.87491 -0.578099,-1.84703 -3.17955,-9.33235 -5.781002,-16.72046 -2.601445,-7.38811 -5.419682,-15.45671 -6.286835,-18.08143 -0.794886,-2.52752 -1.806559,-4.66617 -2.167872,-4.66617 -0.361313,0 -0.578099,9.33234 -0.578099,21.87269 0.07226,11.95707 -0.07226,22.26154 -0.289053,22.7476 -0.216787,0.48607 -4.335745,0.87491 -9.105068,0.97213 l -8.6715,0.0972 -0.07226,-40.6346 c 0,-22.26154 -0.144527,-45.00915 -0.216787,-50.55024 -0.07227,-5.92993 0.216787,-10.30446 0.65036,-10.79053 0.361313,-0.38884 4.98611,-0.8749 10.116747,-0.97211 l 9.466386,-0.19442 1.517512,4.18011 c 0.867147,2.33309 2.167872,6.31878 2.962758,9.04071 0.794887,2.62473 2.962765,9.13793 4.769324,14.38737 1.806565,5.15224 3.324077,9.81842 3.324077,10.20726 0,1.65261 2.962757,8.9435 3.613124,8.9435 0.361312,0 1.589773,-2.52751 2.745973,-5.63829 1.156197,-3.01357 2.818236,-7.2909 3.757649,-9.42956 10.9116312,-26.24723 13.0072436,-31.39947 13.0072436,-32.27438 0,-1.74981 1.8788278,-2.04144 11.2006864,-1.84703 l 8.671495,0.0972 z"
         id="path65606" /><path
         style="fill:#fdf6e3;fill-opacity:1;stroke:none;stroke-width:3.15694;stroke-linecap:round;stroke-linejoin:round;stroke-dasharray:none;stroke-opacity:1"
         d="m -169.57624,-273.69199 c 11.70653,1.06933 21.53422,2.23587 21.82327,2.43029 1.01167,0.87491 0.72263,19.83125 -0.28905,19.92847 -1.1562,0.19441 0.86715,0.19441 -16.98168,-0.58328 l -15.39191,-0.68048 v 9.8184 c 0,11.66545 -1.30072,10.69333 14.09118,11.08217 l 10.83937,0.19443 v 11.66544 11.66543 l -10.47806,0.58327 c -5.78099,0.38886 -11.27294,0.68049 -12.28461,0.77769 l -1.80657,0.0972 -0.0723,10.79053 v 10.79053 l 9.39412,-0.68048 c 5.2029,-0.38885 12.42915,-0.97213 15.97001,-1.45818 3.61312,-0.38885 6.72041,-0.58328 7.00946,-0.38885 0.21679,0.19442 0.50583,5.44387 0.50583,11.56822 0.0723,8.26302 -0.14452,11.37381 -0.79488,11.66545 -0.50584,0.19442 -8.38245,1.06933 -17.55978,1.94423 -16.40358,1.45818 -18.35467,1.65261 -29.41083,3.01358 l -5.63648,0.58326 v -58.91046 -58.91045 l 4.91386,0.48606 c 2.67371,0.29163 14.45249,1.45817 26.15901,2.52751 z"
         id="path65604" /><path
         style="fill:#fdf6e3;fill-opacity:1;stroke:none;stroke-width:3.15694;stroke-linecap:round;stroke-linejoin:round;stroke-dasharray:none;stroke-opacity:1"
         d="m 86.232928,-267.08158 v 10.59611 l -5.925522,0.58327 c -3.32408,0.29163 -10.550319,0.87491 -16.114536,1.26376 l -10.116743,0.77769 -0.216788,11.3738 -0.216788,11.47102 h 11.995571 11.995571 l -0.216788,12.83198 -0.216784,12.83198 H 65.638122 l -11.561995,0.0972 -0.216788,10.40168 -0.216788,10.30447 3.468597,0.58327 c 1.878828,0.29165 5.419689,0.7777 7.80435,1.06934 14.958332,1.6526 21.028375,2.62472 21.461954,3.20799 0.65036,0.87491 0.939412,22.45597 0.289048,23.23367 -0.216788,0.29163 -6.79267,-0.38885 -14.669283,-1.55539 -7.876607,-1.26376 -16.764893,-2.43031 -19.727651,-2.62473 -5.925522,-0.48606 -18.282412,-2.23587 -18.571463,-2.62472 -0.07226,-0.19443 -0.216788,-24.69184 -0.216788,-54.63314 -0.07226,-43.8426 0.07227,-54.43871 0.867155,-55.02197 0.505839,-0.48606 3.251809,-0.87492 5.997782,-0.87492 2.818243,0 8.38245,-0.48606 12.501414,-0.97212 4.046698,-0.48605 11.561999,-1.16654 16.620366,-1.55539 5.058376,-0.38884 9.321862,-0.7777 9.466386,-0.97211 0.144521,-0.19443 1.878824,-0.38885 3.829912,-0.38885 h 3.468598 z"
         id="path65602" /><path
         style="fill:#fdf6e3;fill-opacity:1;stroke:none;stroke-width:3.15694;stroke-linecap:round;stroke-linejoin:round;stroke-dasharray:none;stroke-opacity:1"
         d="m 163.77057,-276.31672 c 0.14452,5.6383 0,10.69332 -0.21679,11.17938 -0.43358,0.8749 -11.99557,2.72194 -21.67875,3.49964 -12.42914,0.97211 -19.58313,2.13866 -20.45027,3.3052 -0.5781,0.77769 -0.93942,5.34666 -1.08394,12.63756 -0.36132,15.35949 -0.93942,14.67901 13.0795,14.67901 20.45029,0.0972 22.76268,0.68048 26.80938,6.5132 3.54087,5.05502 4.0467,9.42956 4.0467,33.34371 0,29.16359 -0.86714,33.14929 -8.81602,39.27364 -4.48027,3.49963 -10.55032,4.0829 -22.97946,2.13867 -5.34743,-0.7777 -14.30797,-2.13867 -19.87219,-3.01357 -5.56421,-0.87491 -10.55032,-1.74983 -10.98389,-1.94425 -0.72263,-0.29164 -0.93941,-3.59684 -0.93941,-12.15149 v -11.66544 l 3.46859,0.38884 c 19.29408,2.23588 36.99839,3.69406 38.5159,3.20801 2.52918,-0.87492 3.54086,-4.37454 3.54086,-12.73478 0,-9.52677 -0.5781,-13.02641 -2.38466,-14.38737 -0.86715,-0.58327 -6.35909,-1.16655 -12.79046,-1.36097 -23.34077,-0.68049 -26.66485,-1.55539 -29.2663,-7.38811 -1.37299,-3.01358 -1.44525,-4.95782 -1.44525,-28.96917 v -25.76118 l 2.16788,-5.83271 c 3.25181,-8.65187 5.34742,-9.81842 21.60648,-11.66545 7.08172,-0.77769 14.01891,-1.65259 15.53642,-1.94423 1.44526,-0.19443 5.70874,-0.68049 9.46639,-0.97212 3.75765,-0.38885 8.31018,-0.97212 10.11675,-1.36097 1.80656,-0.38885 3.54086,-0.38885 3.82991,-0.0972 0.28905,0.38885 0.65036,5.34666 0.72263,11.08216 z"
         id="path65600" /><path
         style="fill:#fdf6e3;fill-opacity:1;stroke:none;stroke-width:3.15694;stroke-linecap:round;stroke-linejoin:round;stroke-dasharray:none;stroke-opacity:1"
         d="m -270.7437,-289.92639 9.75543,2.23587 0.43358,25.66397 c 0.28904,14.09573 0.50584,25.76117 0.5781,25.85839 0,0.19442 5.27516,0.29163 11.63426,0.29163 h 11.56199 v -23.33088 -23.42809 l 2.38467,0.48607 c 1.22846,0.29163 5.5642,1.06933 9.53864,1.6526 3.97443,0.58327 7.29851,1.16654 7.37077,1.26375 0.14453,0.19443 0.43357,27.60821 0.65036,61.04913 l 0.50584,60.8547 -2.81824,0.48606 c -8.02113,1.6526 -16.25905,2.81915 -16.5481,2.52751 -0.14452,-0.29163 -0.50584,-12.24871 -0.72262,-26.63608 -0.21679,-14.38738 -0.50584,-26.24723 -0.5781,-26.24723 -0.0723,0 -5.27517,0.0972 -11.562,0.29163 l -11.41747,0.38885 0.14452,27.6082 c 0.0723,15.26228 0,27.80262 -0.14452,27.99705 -0.14453,0.19442 -4.40801,1.06933 -9.39412,1.94424 -4.98612,0.87491 -9.75544,1.74982 -10.62259,2.04145 -1.51751,0.38885 -1.58978,0.0972 -1.58978,-9.04071 0,-5.15224 -0.21678,-38.00989 -0.50584,-72.90899 -0.3613,-53.46659 -0.21678,-63.38221 0.57811,-63.38221 0.5781,0.0972 5.41968,1.06933 10.76711,2.33309 z"
         id="path65598" /><path
         style="fill:#5f5faf;fill-opacity:1;stroke:#fdf6e3;stroke-width:3.15694;stroke-linecap:round;stroke-linejoin:round;stroke-dasharray:none;stroke-opacity:1"
         d="m -112.56115,-248.12524 c -0.36131,0.58329 -0.65036,6.99928 -0.65036,14.38737 v 13.41527 l 9.2496,-0.0973 c 9.032812,-0.0971 12.067837,-0.77769 15.030593,-3.79126 3.829911,-3.88847 4.913851,-10.30447 2.890499,-17.0121 -1.734298,-5.44385 -4.40801,-6.70762 -15.825482,-7.29088 -5.85326,-0.29164 -10.26127,-0.0973 -10.69485,0.38883 z"
         id="path834" /></g><g
       aria-label="paige"
       transform="matrix(0.86602543,0,0,1.1547005,-1.7948272,12.552014)"
       id="text8984"
       style="font-size:57.4006px;line-height:1.5;font-family:Skia;-inkscape-font-specification:'Skia, @wght=1.25,wdth=0.75';font-variant-ligatures:discretionary-ligatures;font-variant-numeric:oldstyle-nums;font-variation-settings:'wdth' 0.75, 'wght' 1.25;text-align:justify;letter-spacing:0px;fill:#fdf6e3;stroke-width:1.1547"><g
         aria-label="hēmera"
         id="text363"
         style="font-size:83.1384px;font-family:Overpass;-inkscape-font-specification:Overpass;stroke-width:1.63658;stroke-linecap:round;stroke-linejoin:round"><path
           d="m -173.92657,-82.001783 0.41569,0.415692 h 6.23538 v 2.909844 h -19.95321 v -2.909844 h 6.23538 l 0.41569,-0.415692 v -23.278747 q 0,-4.07379 -1.41335,-6.40166 -1.41336,-2.32788 -5.23772,-2.32788 -3.49182,0 -6.73421,2.41102 -3.15926,2.32787 -6.56794,7.98128 v 21.615987 l 0.4157,0.415692 h 6.23538 v 2.909844 H -213.833 v -2.909844 h 6.23538 l 0.41569,-0.415692 v -54.039957 l -0.41569,-0.41569 h -6.23538 v -2.90985 q 2.1616,0 4.24006,0 2.1616,-0.0831 4.3232,-0.16627 2.16159,-0.0831 4.32319,-0.24942 l 0.41569,0.41569 v 30.34552 q 2.41102,-3.90751 6.06911,-6.31852 3.65809,-2.41101 9.06208,-2.41101 4.3232,0 6.81735,1.49649 2.49415,1.41335 3.57495,3.9075 1.0808,2.41102 1.0808,5.404 z"
           style="font-family:'Brygada 1918';-inkscape-font-specification:'Brygada 1918, '"
           id="path14914" /><path
           d="m -139.42427,-81.170399 q 4.40633,0 7.39931,-1.995321 3.07613,-1.995322 5.32086,-4.406335 l 2.24474,1.912183 q -1.74591,2.07846 -3.99064,3.907505 -2.1616,1.745906 -5.15458,2.826705 -2.90985,1.080799 -7.06677,1.080799 -5.07144,0 -9.47778,-2.411013 -4.32319,-2.411014 -6.98362,-6.900487 -2.66043,-4.489474 -2.66043,-10.641715 0,-6.152242 2.66043,-10.641712 2.66043,-4.48948 6.98362,-6.90049 4.40634,-2.41101 9.47778,-2.41101 5.15458,0 8.81267,1.99532 3.74123,1.99532 5.73655,6.0691 2.07846,4.07378 2.07846,10.226024 h -29.09844 v -2.909844 h 21.11715 q -0.33255,-5.98596 -2.41101,-9.22836 -1.99532,-3.2424 -6.65107,-3.2424 -4.07378,0 -6.65107,2.1616 -2.49415,2.1616 -3.65809,6.0691 -1.16394,3.82437 -1.16394,8.812672 0,4.905165 1.82905,8.646393 1.82904,3.741228 4.82202,5.902827 2.99298,2.078459 6.4848,2.078459 z m -14.54922,-47.388881 v -4.15692 h 24.11013 v 4.15692 z"
           style="font-family:'Brygada 1918';-inkscape-font-specification:'Brygada 1918, '"
           id="path14916" /><path
           d="m -52.129076,-81.586091 h 6.235379 v 2.909844 H -65.43122 v -2.909844 h 5.819688 l 0.415692,-0.415692 v -23.278747 q 0,-4.07379 -1.413353,-6.40166 -1.413353,-2.32788 -5.237719,-2.32788 -3.491813,0 -6.318518,2.41102 -2.743567,2.32787 -6.152242,7.98128 v 21.615987 l 0.415692,0.415692 h 5.819688 v 2.909844 h -19.121831 v -2.909844 h 5.819688 l 0.415692,-0.415692 v -23.278747 q 0,-4.07379 -1.413353,-6.40166 -1.413353,-2.32788 -5.237719,-2.32788 -3.491813,0 -6.318518,2.41102 -2.743567,2.32787 -6.152237,7.98128 v 21.615987 l 0.41569,0.415692 h 5.819685 v 2.909844 h -19.537525 v -2.909844 h 6.23538 l 0.41569,-0.415692 v -31.592587 l -0.41569,-0.4157 h -6.23538 v -2.90984 q 2.1616,0 4.15692,0 2.07846,-0.0831 4.07378,-0.16628 2.07846,-0.0831 4.24006,-0.24941 l 0.41569,0.41569 v 7.89815 h 0.4157 q 2.41101,-3.90751 5.653406,-6.31852 3.242398,-2.41101 8.646394,-2.41101 5.653411,0 8.230701,2.49415 2.660429,2.49415 3.159259,6.31852 2.411014,-4.15692 5.73655,-6.4848 3.325535,-2.32787 8.646393,-2.32787 4.323196,0 6.817348,1.49649 2.494152,1.41335 3.574951,3.9075 1.0808,2.41102 1.0808,5.404 v 24.941517 z"
           style="font-family:'Brygada 1918';-inkscape-font-specification:'Brygada 1918, '"
           id="path14918" /><path
           d="m -18.042456,-81.170399 q 4.406335,0 7.399317,-1.995321 3.0761211,-1.995322 5.3208579,-4.406335 l 2.2447367,1.912183 q -1.7459063,2.07846 -3.9906431,3.907505 -2.1615983,1.745906 -5.1545805,2.826705 -2.909844,1.080799 -7.066764,1.080799 -5.071442,0 -9.477777,-2.411013 -4.323197,-2.411014 -6.983626,-6.900487 -2.660428,-4.489474 -2.660428,-10.641715 0,-6.152242 2.660428,-10.641712 2.660429,-4.48948 6.983626,-6.90049 4.406335,-2.41101 9.477777,-2.41101 5.154581,0 8.81267,1.99532 3.7412281,1.99532 5.7365497,6.0691 2.0784599,4.07378 2.0784599,10.226024 H -31.760291 v -2.909844 h 21.117152 q -0.332553,-5.98596 -2.411013,-9.22836 -1.995322,-3.2424 -6.651072,-3.2424 -4.073781,0 -6.651072,2.1616 -2.494152,2.1616 -3.658089,6.0691 -1.163938,3.82437 -1.163938,8.812672 0,4.905165 1.829045,8.646393 1.829045,3.741228 4.822027,5.902827 2.992982,2.078459 6.484795,2.078459 z"
           style="font-family:'Brygada 1918';-inkscape-font-specification:'Brygada 1918, '"
           id="path14920" /><path
           d="m 18.288914,-107.77469 q 2.411014,-4.24005 5.902827,-7.1499 3.574951,-2.90984 7.648732,-2.8267 2.07846,0 3.325536,0.74824 1.330214,0.74825 1.912183,1.99532 0.581969,1.16394 0.581969,2.66043 0,2.1616 -1.413353,3.57495 -1.413353,1.41336 -3.574951,1.41336 -2.161598,0 -3.574951,-1.41336 -1.413353,-1.41335 -1.413353,-3.57495 0,-0.74824 0.498831,-1.99532 0.49883,-1.24708 1.080799,-1.82904 l -0.08314,2.16159 q -1.579629,0.49883 -3.242397,1.66277 -1.662768,1.16394 -3.574951,3.57495 -1.829045,2.41102 -4.073782,6.81735 z m 0,25.772907 0.415692,0.415692 h 9.560916 v 2.909844 H 4.9867709 v -2.909844 h 6.2353801 l 0.415692,-0.415692 v -31.592587 l -0.415692,-0.4157 H 4.9867709 v -2.90984 q 2.1615983,0 4.1569198,0 2.0784603,-0.0831 4.0737813,-0.16628 2.07846,-0.0831 4.240058,-0.24941 l 0.415692,0.41569 v 9.14522 h 0.415692 z"
           style="font-family:'Brygada 1918';-inkscape-font-specification:'Brygada 1918, '"
           id="path14922" /><path
           d="m 73.742038,-77.844863 q -2.826706,0 -4.822028,-1.247076 -1.995321,-1.247076 -2.57729,-3.741228 v -20.784603 q 0,-5.07144 -1.912183,-7.89814 -1.829045,-2.90985 -6.567933,-2.90985 -2.577291,0 -4.822027,0.58197 -2.161599,0.49883 -4.073782,1.91218 1.330215,0.74825 1.829045,1.82905 0.581969,1.0808 0.581969,2.32787 0,1.82905 -1.247076,2.99299 -1.247076,1.16393 -2.909844,1.16393 -1.745907,0 -2.992982,-1.24707 -1.163938,-1.24708 -1.163938,-3.40868 0,-2.16159 1.330214,-3.9075 1.330215,-1.74591 3.574951,-2.99298 2.244737,-1.24708 4.988304,-1.91219 2.826706,-0.6651 5.653411,-0.6651 3.990643,0 7.233041,1.16393 3.242397,1.0808 5.15458,3.90751 1.995322,2.74357 1.995322,7.81501 v 19.786937 q 0,1.163937 0.49883,2.327875 0.581969,1.163937 2.161599,1.163937 1.163937,0 2.07846,-0.831384 0.914522,-0.831383 1.745906,-1.912183 l 2.244737,1.912183 q -0.997661,1.413353 -2.161599,2.494152 -1.163937,0.997661 -2.57729,1.496492 -1.413353,0.581968 -3.242397,0.581968 z m -19.454385,0 q -6.567934,0 -10.142885,-3.242397 -3.574951,-3.242398 -3.574951,-7.731871 0,-4.572612 3.574951,-7.731871 3.574951,-3.242398 10.142885,-3.242398 4.156919,0 7.149902,1.413353 2.992982,1.413353 4.905165,3.574951 v 3.741228 q -2.660429,-2.826705 -5.403996,-3.907504 -2.743567,-1.0808 -5.15458,-1.0808 -3.907505,0 -6.23538,1.995322 -2.327875,1.912183 -2.327875,5.237719 0,3.242397 2.327875,5.237719 2.327875,1.995321 6.23538,1.995321 2.411013,0 5.15458,-1.080799 2.743567,-1.080799 5.403996,-3.907504 v 3.741227 q -1.912183,2.161599 -4.905165,3.574952 -2.992983,1.413352 -7.149902,1.413352 z"
           style="font-family:'Brygada 1918';-inkscape-font-specification:'Brygada 1918, '"
           id="path14924" /></g><circle
         id="path1035"
         style="fill:#fdf6e3;stroke:#000000;stroke-width:1"
         cx="-174.7997"
         cy="-107.59039"
         r="0.72352082" /><circle
         id="path1037"
         style="fill:#fdf6e3;stroke:#000000;stroke-width:1"
         cx="-259.72397"
         cy="-39.219952"
         r="0.18023883" /></g></g></svg>
