<?xml version="1.0" encoding="UTF-8" standalone="no"?>
<svg
   width="490pt"
   height="171pt"
   viewBox="-304 -304 653.33333 228"
   version="1.1"
   id="svg226"
   sodipodi:docname="paige-wordmark.svg"
   inkscape:version="1.2.2 (b0a84865, 2022-12-01)"
   xml:space="preserve"
   xmlns:inkscape="http://www.inkscape.org/namespaces/inkscape"
   xmlns:sodipodi="http://sodipodi.sourceforge.net/DTD/sodipodi-0.dtd"
   xmlns="http://www.w3.org/2000/svg"
   xmlns:svg="http://www.w3.org/2000/svg"
   xmlns:rdf="http://www.w3.org/1999/02/22-rdf-syntax-ns#"
   xmlns:cc="http://creativecommons.org/ns#"
   xmlns:dc="http://purl.org/dc/elements/1.1/"><defs
     id="defs230"><rect
       x="-11.915994"
       y="17.332354"
       width="878.53369"
       height="174.40681"
       id="rect71227" /></defs><sodipodi:namedview
     id="namedview228"
     pagecolor="#ffffff"
     bordercolor="#000000"
     borderopacity="0.25"
     inkscape:showpageshadow="2"
     inkscape:pageopacity="0.0"
     inkscape:pagecheckerboard="0"
     inkscape:deskcolor="#d1d1d1"
     showgrid="false"
     inkscape:zoom="0.94640514"
     inkscape:cx="258.87433"
     inkscape:cy="19.547654"
     inkscape:window-width="1309"
     inkscape:window-height="811"
     inkscape:window-x="201"
     inkscape:window-y="38"
     inkscape:window-maximized="0"
     inkscape:current-layer="text8984"
     inkscape:document-units="pt" /><title
     id="title222">Squircle: x to 4th plus y to 4th equals radius to 4th</title><metadata
     id="metadata349"><rdf:RDF><cc:Work
         rdf:about=""><dc:title>Squircle: x to 4th plus y to 4th equals radius to 4th</dc:title></cc:Work></rdf:RDF></metadata><g
     id="g699"
     transform="matrix(1.3333333,0,0,1,101.33333,0)"
     style="stroke-width:0.866025"><rect
       style="fill:#859900;fill-opacity:1;stroke-width:2.3094;stroke-linecap:round;stroke-linejoin:round"
       id="rect2950"
       width="490"
       height="228"
       x="-304.00003"
       y="-304.00003" /><g
       id="g6076"
       transform="matrix(1.0972948,0,0,1.0972948,5.7403624,16.694808)"
       style="stroke-width:0.789237"><path
         style="fill:#fdf6e3;fill-opacity:1;stroke:none;stroke-width:3.15694;stroke-linecap:round;stroke-linejoin:round;stroke-dasharray:none;stroke-opacity:1"
         d="m -96.229825,-268.34534 c 14.018924,0.68049 17.559782,2.13867 23.196258,9.62399 5.202897,6.90205 6.792669,12.05429 6.792669,22.26155 0,5.15224 -0.433574,8.16581 -1.734299,11.76265 -1.734299,5.05502 -7.587561,13.60968 -9.89996,14.58179 -1.806559,0.77769 -1.734299,2.33309 0.433579,8.65187 1.011673,2.91636 1.80656,5.6383 1.80656,5.92993 0,0.29163 0.650359,2.4303 1.372985,4.66617 2.601451,7.77696 6.575889,21.48385 6.575889,22.74761 0,1.06933 -2.023352,1.26376 -9.8277,1.06933 l -9.755432,-0.29164 -4.480273,-15.26228 c -2.529191,-8.36023 -4.913849,-15.74834 -5.347428,-16.52603 -0.5781,-0.97213 -2.673713,-1.16655 -8.454703,-0.97213 l -7.65983,0.29165 v 16.52603 c 0,12.24871 -0.21678,16.62325 -0.86715,16.91488 -1.37298,0.68049 -17.1262,1.16655 -17.77656,0.48606 -0.28905,-0.29163 -0.43358,-23.81693 -0.28905,-52.39725 l 0.14452,-51.91121 12.86272,0.6805 c 7.00946,0.38884 17.34299,0.8749 22.907205,1.16653 z"
         id="path65608" /><path
         style="fill:#fdf6e3;fill-opacity:1;stroke:none;stroke-width:3.15694;stroke-linecap:round;stroke-linejoin:round;stroke-dasharray:none;stroke-opacity:1"
         d="m 20.257286,-217.69789 0.216788,53.75822 h -9.755435 c -8.8160185,0 -9.75543077,-0.19442 -9.82769788,-1.74981 -0.0722604,-2.72194 0.14452758,-24.98348 0.43357928,-38.88479 0.1445208,-8.74908 0,-12.83199 -0.5058397,-12.63756 -0.43357257,0.19442 -2.0956124,3.40241 -3.6853852,7.09647 -7.1539855,17.0121 -13.8021355,33.44093 -15.0305955,37.13498 -1.589773,5.05503 -3.25181,5.34666 -4.624797,0.87491 -0.578099,-1.84703 -3.17955,-9.33235 -5.781002,-16.72046 -2.601445,-7.38811 -5.419682,-15.45671 -6.286835,-18.08143 -0.794886,-2.52752 -1.806559,-4.66617 -2.167872,-4.66617 -0.361313,0 -0.578099,9.33234 -0.578099,21.87269 0.07226,11.95707 -0.07226,22.26154 -0.289053,22.7476 -0.216787,0.48607 -4.335745,0.87491 -9.105068,0.97213 l -8.6715,0.0972 -0.07226,-40.6346 c 0,-22.26154 -0.144527,-45.00915 -0.216787,-50.55024 -0.07227,-5.92993 0.216787,-10.30446 0.65036,-10.79053 0.361313,-0.38884 4.98611,-0.8749 10.116747,-0.97211 l 9.466386,-0.19442 1.517512,4.18011 c 0.867147,2.33309 2.167872,6.31878 2.962758,9.04071 0.794887,2.62473 2.962765,9.13793 4.769324,14.38737 1.806565,5.15224 3.324077,9.81842 3.324077,10.20726 0,1.65261 2.962757,8.9435 3.613124,8.9435 0.361312,0 1.589773,-2.52751 2.745973,-5.63829 1.156197,-3.01357 2.818236,-7.2909 3.757649,-9.42956 10.9116312,-26.24723 13.0072436,-31.39947 13.0072436,-32.27438 0,-1.74981 1.8788278,-2.04144 11.2006864,-1.84703 l 8.671495,0.0972 z"
         id="path65606" /><path
         style="fill:#fdf6e3;fill-opacity:1;stroke:none;stroke-width:3.15694;stroke-linecap:round;stroke-linejoin:round;stroke-dasharray:none;stroke-opacity:1"
         d="m -169.57624,-273.69199 c 11.70653,1.06933 21.53422,2.23587 21.82327,2.43029 1.01167,0.87491 0.72263,19.83125 -0.28905,19.92847 -1.1562,0.19441 0.86715,0.19441 -16.98168,-0.58328 l -15.39191,-0.68048 v 9.8184 c 0,11.66545 -1.30072,10.69333 14.09118,11.08217 l 10.83937,0.19443 v 11.66544 11.66543 l -10.47806,0.58327 c -5.78099,0.38886 -11.27294,0.68049 -12.28461,0.77769 l -1.80657,0.0972 -0.0723,10.79053 v 10.79053 l 9.39412,-0.68048 c 5.2029,-0.38885 12.42915,-0.97213 15.97001,-1.45818 3.61312,-0.38885 6.72041,-0.58328 7.00946,-0.38885 0.21679,0.19442 0.50583,5.44387 0.50583,11.56822 0.0723,8.26302 -0.14452,11.37381 -0.79488,11.66545 -0.50584,0.19442 -8.38245,1.06933 -17.55978,1.94423 -16.40358,1.45818 -18.35467,1.65261 -29.41083,3.01358 l -5.63648,0.58326 v -58.91046 -58.91045 l 4.91386,0.48606 c 2.67371,0.29163 14.45249,1.45817 26.15901,2.52751 z"
         id="path65604" /><path
         style="fill:#fdf6e3;fill-opacity:1;stroke:none;stroke-width:3.15694;stroke-linecap:round;stroke-linejoin:round;stroke-dasharray:none;stroke-opacity:1"
         d="m 86.232928,-267.08158 v 10.59611 l -5.925522,0.58327 c -3.32408,0.29163 -10.550319,0.87491 -16.114536,1.26376 l -10.116743,0.77769 -0.216788,11.3738 -0.216788,11.47102 h 11.995571 11.995571 l -0.216788,12.83198 -0.216784,12.83198 H 65.638122 l -11.561995,0.0972 -0.216788,10.40168 -0.216788,10.30447 3.468597,0.58327 c 1.878828,0.29165 5.419689,0.7777 7.80435,1.06934 14.958332,1.6526 21.028375,2.62472 21.461954,3.20799 0.65036,0.87491 0.939412,22.45597 0.289048,23.23367 -0.216788,0.29163 -6.79267,-0.38885 -14.669283,-1.55539 -7.876607,-1.26376 -16.764893,-2.43031 -19.727651,-2.62473 -5.925522,-0.48606 -18.282412,-2.23587 -18.571463,-2.62472 -0.07226,-0.19443 -0.216788,-24.69184 -0.216788,-54.63314 -0.07226,-43.8426 0.07227,-54.43871 0.867155,-55.02197 0.505839,-0.48606 3.251809,-0.87492 5.997782,-0.87492 2.818243,0 8.38245,-0.48606 12.501414,-0.97212 4.046698,-0.48605 11.561999,-1.16654 16.620366,-1.55539 5.058376,-0.38884 9.321862,-0.7777 9.466386,-0.97211 0.144521,-0.19443 1.878824,-0.38885 3.829912,-0.38885 h 3.468598 z"
         id="path65602" /><path
         style="fill:#fdf6e3;fill-opacity:1;stroke:none;stroke-width:3.15694;stroke-linecap:round;stroke-linejoin:round;stroke-dasharray:none;stroke-opacity:1"
         d="m 163.77057,-276.31672 c 0.14452,5.6383 0,10.69332 -0.21679,11.17938 -0.43358,0.8749 -11.99557,2.72194 -21.67875,3.49964 -12.42914,0.97211 -19.58313,2.13866 -20.45027,3.3052 -0.5781,0.77769 -0.93942,5.34666 -1.08394,12.63756 -0.36132,15.35949 -0.93942,14.67901 13.0795,14.67901 20.45029,0.0972 22.76268,0.68048 26.80938,6.5132 3.54087,5.05502 4.0467,9.42956 4.0467,33.34371 0,29.16359 -0.86714,33.14929 -8.81602,39.27364 -4.48027,3.49963 -10.55032,4.0829 -22.97946,2.13867 -5.34743,-0.7777 -14.30797,-2.13867 -19.87219,-3.01357 -5.56421,-0.87491 -10.55032,-1.74983 -10.98389,-1.94425 -0.72263,-0.29164 -0.93941,-3.59684 -0.93941,-12.15149 v -11.66544 l 3.46859,0.38884 c 19.29408,2.23588 36.99839,3.69406 38.5159,3.20801 2.52918,-0.87492 3.54086,-4.37454 3.54086,-12.73478 0,-9.52677 -0.5781,-13.02641 -2.38466,-14.38737 -0.86715,-0.58327 -6.35909,-1.16655 -12.79046,-1.36097 -23.34077,-0.68049 -26.66485,-1.55539 -29.2663,-7.38811 -1.37299,-3.01358 -1.44525,-4.95782 -1.44525,-28.96917 v -25.76118 l 2.16788,-5.83271 c 3.25181,-8.65187 5.34742,-9.81842 21.60648,-11.66545 7.08172,-0.77769 14.01891,-1.65259 15.53642,-1.94423 1.44526,-0.19443 5.70874,-0.68049 9.46639,-0.97212 3.75765,-0.38885 8.31018,-0.97212 10.11675,-1.36097 1.80656,-0.38885 3.54086,-0.38885 3.82991,-0.0972 0.28905,0.38885 0.65036,5.34666 0.72263,11.08216 z"
         id="path65600" /><path
         style="fill:#fdf6e3;fill-opacity:1;stroke:none;stroke-width:3.15694;stroke-linecap:round;stroke-linejoin:round;stroke-dasharray:none;stroke-opacity:1"
         d="m -270.7437,-289.92639 9.75543,2.23587 0.43358,25.66397 c 0.28904,14.09573 0.50584,25.76117 0.5781,25.85839 0,0.19442 5.27516,0.29163 11.63426,0.29163 h 11.56199 v -23.33088 -23.42809 l 2.38467,0.48607 c 1.22846,0.29163 5.5642,1.06933 9.53864,1.6526 3.97443,0.58327 7.29851,1.16654 7.37077,1.26375 0.14453,0.19443 0.43357,27.60821 0.65036,61.04913 l 0.50584,60.8547 -2.81824,0.48606 c -8.02113,1.6526 -16.25905,2.81915 -16.5481,2.52751 -0.14452,-0.29163 -0.50584,-12.24871 -0.72262,-26.63608 -0.21679,-14.38738 -0.50584,-26.24723 -0.5781,-26.24723 -0.0723,0 -5.27517,0.0972 -11.562,0.29163 l -11.41747,0.38885 0.14452,27.6082 c 0.0723,15.26228 0,27.80262 -0.14452,27.99705 -0.14453,0.19442 -4.40801,1.06933 -9.39412,1.94424 -4.98612,0.87491 -9.75544,1.74982 -10.62259,2.04145 -1.51751,0.38885 -1.58978,0.0972 -1.58978,-9.04071 0,-5.15224 -0.21678,-38.00989 -0.50584,-72.90899 -0.3613,-53.46659 -0.21678,-63.38221 0.57811,-63.38221 0.5781,0.0972 5.41968,1.06933 10.76711,2.33309 z"
         id="path65598" /><path
         style="fill:#859900;fill-opacity:1;stroke:#fdf6e3;stroke-width:3.15694;stroke-linecap:round;stroke-linejoin:round;stroke-dasharray:none;stroke-opacity:1"
         d="m -112.56115,-248.12524 c -0.36131,0.58329 -0.65036,6.99928 -0.65036,14.38737 v 13.41527 l 9.2496,-0.0973 c 9.032812,-0.0971 12.067837,-0.77769 15.030593,-3.79126 3.829911,-3.88847 4.913851,-10.30447 2.890499,-17.0121 -1.734298,-5.44385 -4.40801,-6.70762 -15.825482,-7.29088 -5.85326,-0.29164 -10.26127,-0.0973 -10.69485,0.38883 z"
         id="path834" /></g><g
       aria-label="paige"
       transform="scale(0.86602543,1.1547005)"
       id="text8984"
       style="font-size:57.4006px;line-height:1.5;font-family:Skia;-inkscape-font-specification:'Skia, @wght=1.25,wdth=0.75';font-variant-ligatures:discretionary-ligatures;font-variant-numeric:oldstyle-nums;font-variation-settings:'wdth' 0.75, 'wght' 1.25;text-align:justify;letter-spacing:0px;fill:#fdf6e3;stroke-width:1.1547"><g
         aria-label="paige"
         id="text363"
         style="font-size:57.312px;font-family:'Playwrite DK Loopet';-inkscape-font-specification:'Playwrite DK Loopet';text-align:center;text-anchor:middle;fill:#c9e900;stroke-width:5.77351;stroke-linecap:round;stroke-linejoin:round"><path
           d="m -115.58771,-87.424553 q -1.49011,0 -2.8656,-0.171936 -1.31817,-0.171936 -2.69366,-0.343872 -1.37549,-0.114624 -3.03754,-0.114624 -1.60473,0.05731 -3.72528,0.401184 l 1.60474,-1.604736 q 2.00592,-0.458496 3.66797,-0.802368 1.71936,-0.343872 3.15216,-0.515808 1.49011,-0.229248 2.69366,-0.28656 1.20355,-0.114624 2.29248,-0.114624 0.51581,0 0.68775,0.57312 0.17193,0.515808 0,1.203552 -0.17194,0.687744 -0.63044,1.203552 -0.45849,0.57312 -1.14624,0.57312 z m -30.03148,21.377376 q -0.80237,0 -1.37549,-0.401184 -0.63043,-0.401184 -0.28656,-1.260864 l 15.7608,-48.715205 q 0.28656,-0.91699 0.74505,-1.20355 0.4585,-0.28656 1.37549,-0.28656 1.37549,0 1.77667,0.4585 0.4585,0.40118 0.11463,1.31817 l -1.4328,4.52765 q 1.94861,-2.52173 3.8399,-3.89721 1.94861,-1.4328 3.66797,-2.00592 1.77667,-0.63044 3.26678,-0.63044 3.61066,0 5.67389,2.52173 2.06323,2.52173 2.06323,6.87744 0,2.57904 -0.74505,5.50195 -0.68775,2.92292 -2.17786,5.731205 -1.49011,2.808288 -3.72528,5.100768 -2.17785,2.29248 -5.15808,3.667968 -2.92291,1.318176 -6.59088,1.318176 -1.83398,0 -3.72528,-0.630432 -1.89129,-0.57312 -3.55334,-1.604736 l -7.22131,22.35168 q -0.22925,0.630432 -0.68775,0.916992 -0.51581,0.343872 -1.60473,0.343872 z m 10.5454,-26.764704 q 1.83399,0.974304 3.26679,1.375488 1.49011,0.401184 2.98022,0.401184 2.92291,0 5.21539,-1.14624 2.29248,-1.203552 3.95453,-3.094848 1.71936,-1.891296 2.80829,-4.126464 1.08893,-2.292479 1.60474,-4.642269 0.5158,-2.3498 0.5158,-4.2984 0,-1.8913 -0.5158,-3.20948 -0.51581,-1.37548 -1.54743,-2.12054 -1.03161,-0.74506 -2.63635,-0.74506 -1.83398,0 -3.89722,1.20356 -2.00592,1.14624 -4.06915,3.49603 -2.06323,2.29248 -4.06915,5.84582 z"
           style="-inkscape-font-specification:'Playwrite DK Loopet @wght=300';font-variation-settings:'wght' 300;fill:#fdf6e3;stroke-width:5.7735"
           id="path302" /><path
           d="m -115.18661,-87.424553 q -0.68775,0 -1.03162,-0.57312 -0.34387,-0.515808 -0.17194,-1.203552 0.11463,-0.687744 0.68775,-1.203552 0.57312,-0.57312 1.60473,-0.57312 1.60474,0 3.26679,-0.687744 1.60473,-0.745056 3.20947,-2.063232 1.54742,-1.375488 2.80829,-3.209472 1.31817,-1.833984 2.34979,-4.011845 0.22925,-0.74505 0.85968,-0.68774 0.63043,0 1.08893,0.51581 0.45849,0.45849 0.22925,1.146239 -1.03162,2.750976 -2.63636,5.100768 -1.60473,2.29248 -3.55334,3.954528 -1.8913,1.662048 -4.12646,2.57904 -2.23517,0.916992 -4.58496,0.916992 z"
           style="-inkscape-font-specification:'Playwrite DK Loopet @wght=300';font-variation-settings:'wght' 300;fill:#fdf6e3;stroke-width:5.7735"
           id="path304" /><path
           d="m -96.044326,-87.424553 q -2.407104,0 -4.183774,-1.088928 -1.71936,-1.14624 -2.63635,-3.266784 -0.917,-2.120544 -0.917,-4.986144 0,-2.521728 0.68775,-5.444641 0.68774,-2.92291 2.12054,-5.7312 1.490114,-2.80829 3.66797,-5.10077 2.235168,-2.34979 5.215392,-3.72528 2.980224,-1.37549 6.762816,-1.37549 2.349792,0 4.642272,0.917 2.29248,0.85968 4.126464,2.23516 l -0.687744,3.20948 q -2.464416,-1.60474 -4.413024,-2.12055 -1.891296,-0.57312 -3.72528,-0.57312 -2.980224,0 -5.330016,1.14624 -2.29248,1.08893 -3.954528,3.03754 -1.662048,1.89129 -2.750976,4.24109 -1.088928,2.29248 -1.662048,4.58496 -0.515808,2.292477 -0.515808,4.241085 0,1.948608 0.515808,3.266784 0.57312,1.318176 1.604736,2.063232 1.088928,0.745056 2.693664,0.745056 2.00592,0 4.183776,-1.375488 2.235168,-1.4328 4.470336,-4.183776 2.29248,-2.750976 4.355712,-6.762813 l 1.031616,2.34979 q -2.521728,5.330015 -5.330016,8.310239 -2.808288,2.980224 -5.387328,4.183776 -2.57904,1.203552 -4.58496,1.203552 z m 16.849728,0 q -1.948608,0 -3.209472,-0.687744 -1.260864,-0.630432 -1.891296,-1.833984 -0.630432,-1.260864 -0.630432,-2.922912 0,-1.662048 0.630432,-3.610656 l 6.533568,-19.944581 q 0.343872,-0.91699 0.802368,-1.20355 0.458496,-0.28656 1.375488,-0.28656 1.375488,0 1.776672,0.51581 0.401184,0.4585 0.05731,1.37549 l -6.533568,19.944575 q -0.916992,2.808288 -0.28656,3.954528 0.630432,1.14624 2.464416,1.14624 0.687744,0 0.916992,0.57312 0.28656,0.515808 0.171936,1.203552 -0.05731,0.687744 -0.630432,1.203552 -0.515808,0.57312 -1.547424,0.57312 z"
           style="-inkscape-font-specification:'Playwrite DK Loopet @wght=300';font-variation-settings:'wght' 300;fill:#fdf6e3;stroke-width:5.7735"
           id="path306" /><path
           d="m -79.137275,-87.424553 q -0.687744,0 -1.031616,-0.57312 -0.343872,-0.515808 -0.171936,-1.203552 0.114624,-0.687744 0.687744,-1.203552 0.57312,-0.57312 1.604736,-0.57312 1.776672,0 3.610656,-0.802368 1.776672,-0.802368 3.610656,-2.407104 1.891296,-1.662048 3.839904,-4.01184 1.948608,-2.407101 3.954528,-5.501951 0.458496,-0.68775 1.031616,-0.63043 0.630432,0.0573 0.916992,0.57312 0.343872,0.5158 0,1.14624 -2.120544,3.725277 -4.2984,6.590877 -2.120544,2.8656 -4.355712,4.756896 -2.235168,1.891296 -4.58496,2.8656 -2.349792,0.974304 -4.814208,0.974304 z"
           style="-inkscape-font-specification:'Playwrite DK Loopet @wght=300';font-variation-settings:'wght' 300;fill:#fdf6e3;stroke-width:5.7735"
           id="path308" /><path
           d="m -60.510982,-87.424553 q -1.948608,0 -3.266784,-0.687744 -1.318176,-0.630432 -2.00592,-1.891296 -0.630432,-1.260864 -0.630432,-2.922912 0.05731,-1.71936 0.745056,-3.839904 l 6.418944,-19.658021 q 0.343872,-0.91699 0.802368,-1.20355 0.458496,-0.28656 1.318176,-0.28656 1.375488,0 1.776672,0.4585 0.458496,0.45849 0.114624,1.31817 l -6.418944,19.772645 q -0.974304,2.922912 -0.458496,4.183776 0.515808,1.203552 2.693664,1.203552 0.687744,0 0.974304,0.57312 0.28656,0.515808 0.171936,1.203552 -0.114624,0.687744 -0.687744,1.203552 -0.515808,0.57312 -1.547424,0.57312 z m 6.820128,-39.717217 q -1.088928,0 -1.833984,-0.63043 -0.687744,-0.63043 -0.687744,-1.8913 0,-1.4328 0.916992,-2.63635 0.916992,-1.26086 2.808288,-1.26086 1.088928,0 1.776672,0.63043 0.745056,0.57312 0.745056,1.83398 0,1.4328 -0.916992,2.69367 -0.916992,1.26086 -2.808288,1.26086 z"
           style="-inkscape-font-specification:'Playwrite DK Loopet @wght=300';font-variation-settings:'wght' 300;fill:#fdf6e3;stroke-width:5.7735"
           id="path310" /><path
           d="m -60.51094,-87.424553 q -0.687744,0 -1.031616,-0.57312 -0.343872,-0.515808 -0.171936,-1.203552 0.114624,-0.687744 0.687744,-1.203552 0.57312,-0.57312 1.604736,-0.57312 1.604736,0 3.266784,-0.687744 1.604736,-0.745056 3.209472,-2.063232 1.547424,-1.375488 2.808288,-3.209472 1.318176,-1.833984 2.349792,-4.011845 0.229248,-0.74505 0.85968,-0.68774 0.630432,0 1.088928,0.51581 0.458496,0.45849 0.229248,1.146239 -1.031616,2.750976 -2.636352,5.100768 -1.604736,2.29248 -3.553344,3.954528 -1.891296,1.662048 -4.126464,2.57904 -2.235168,0.916992 -4.58496,0.916992 z"
           style="-inkscape-font-specification:'Playwrite DK Loopet @wght=300';font-variation-settings:'wght' 300;fill:#fdf6e3;stroke-width:5.7735"
           id="path312" /><path
           d="m -43.890567,-65.817929 q -3.324096,0 -5.215392,-1.776672 -1.833984,-1.71936 -1.833984,-4.470336 0,-2.063232 0.916992,-3.782592 0.974304,-1.71936 2.693664,-3.209472 1.776672,-1.4328 4.126464,-2.808288 2.407105,-1.318176 5.215393,-2.693664 1.031616,-0.458496 2.00592,-0.974304 0.974304,-0.458496 1.948608,-0.974304 1.031616,-0.515808 2.00592,-0.916992 l 2.235168,-6.934752 q -2.00592,2.636352 -4.01184,4.183776 -2.00592,1.490112 -3.839904,2.120544 -1.776672,0.630432 -3.266784,0.630432 -2.407105,0 -4.126465,-1.088928 -1.71936,-1.14624 -2.693664,-3.266784 -0.974304,-2.120544 -0.974304,-4.986144 0,-2.521728 0.687744,-5.444641 0.745056,-2.92291 2.177856,-5.7312 1.490112,-2.80829 3.667969,-5.10077 2.235168,-2.34979 5.215392,-3.72528 2.980224,-1.37549 6.762816,-1.37549 1.318176,0 2.57904,0.28656 1.260864,0.22925 2.464416,0.74506 1.260864,0.4585 2.349792,1.20355 l 0.171936,-0.68774 q 0.343872,-0.80237 0.745056,-1.03162 0.458496,-0.28656 1.375488,-0.28656 1.4328,0 1.776672,0.51581 0.401184,0.4585 0.114624,1.37549 l -11.577024,35.590751 q -1.203552,3.839904 -2.636352,6.59088 -1.4328,2.750976 -3.094848,4.527648 -1.662048,1.776672 -3.667968,2.636352 -1.948608,0.85968 -4.298401,0.85968 z m 0.57312,-3.610656 q 1.833985,0 3.438721,-1.203552 1.662048,-1.203552 3.037536,-3.72528 1.4328,-2.521728 2.693664,-6.247008 l 0.745056,-2.464416 q -0.630432,0.343872 -1.260864,0.630432 -0.630432,0.28656 -1.260864,0.57312 -0.630432,0.343872 -1.260864,0.687744 -2.235168,1.088928 -4.01184,2.063232 -1.719361,1.031616 -2.980225,2.00592 -1.260864,0.974304 -1.948608,2.063232 -0.630432,1.14624 -0.630432,2.464416 0,0.916992 0.343872,1.604736 0.401184,0.745056 1.203552,1.14624 0.802368,0.401184 1.891296,0.401184 z m 3.667969,-21.721248 q 1.948608,0 4.069152,-1.260864 2.120544,-1.318176 4.241088,-3.839904 2.177856,-2.57904 4.241088,-6.361629 l 3.324096,-10.14423 q -1.833984,-1.03161 -3.43872,-1.37549 -1.547424,-0.34387 -3.037536,-0.34387 -2.980224,0 -5.330016,1.14624 -2.29248,1.08893 -3.954528,3.03754 -1.662048,1.89129 -2.750976,4.24109 -1.088929,2.29248 -1.604737,4.58496 -0.515808,2.292477 -0.515808,4.241085 0,1.948608 0.515808,3.266784 0.515808,1.318176 1.547425,2.063232 1.088928,0.745056 2.693664,0.745056 z"
           style="-inkscape-font-specification:'Playwrite DK Loopet @wght=300';font-variation-settings:'wght' 300;fill:#fdf6e3;stroke-width:5.7735"
           id="path314" /><path
           d="m -10.191095,-94.301993 q -2.57904,1.4328 -5.845824,3.15216 -3.324096,1.71936 -6.934753,3.43872 -3.610656,1.776672 -7.106688,3.324096 -0.343872,0.114624 -0.57312,-0.343872 -0.28656,-0.401184 -0.401184,-1.088928 -0.171936,-0.630432 0.05731,-1.260864 0.229248,-0.630432 0.85968,-0.916992 3.324096,-1.547424 6.820128,-3.209472 3.438721,-1.662048 6.648193,-3.266784 3.209472,-1.662048 5.7312,-3.094848 0.343872,-0.229248 0.687744,0.171936 0.3438716,0.343872 0.4584956,0.974304 0.171936,0.630432 0.057312,1.260864 -0.057312,0.630432 -0.4584956,0.85968 z"
           style="-inkscape-font-specification:'Playwrite DK Loopet @wght=300';font-variation-settings:'wght' 300;fill:#fdf6e3;stroke-width:5.7735"
           id="path316" /><path
           d="m -1.4797782,-87.367241 q -1.891296,0 -3.667968,-0.687744 -1.776672,-0.630432 -3.2094721,-1.833984 -1.375488,-1.260864 -2.4071037,-2.980224 -0.974304,-1.71936 -1.547424,-3.782592 -0.515808,-2.120544 -0.515808,-4.470335 0,-2.8656 0.802368,-5.84583 0.85968,-2.98022 2.4644157,-5.50195 1.6620481,-2.52173 4.1264641,-4.06915 2.521728,-1.60474 5.78851199,-1.60474 2.29248001,0 3.72528001,0.85968 1.490112,0.85968 2.177856,2.3498 0.687744,1.4328 0.687744,3.26678 0,2.98022 -1.662048,5.55926 -1.604736,2.57904 -4.183776,4.81421 -2.57904,2.177859 -5.616576,3.954531 -2.980224,1.776672 -5.6738878,3.15216 l -1.318176,-2.922912 q 2.1205437,-1.203552 4.5849598,-2.636352 2.521728,-1.432797 4.699584,-3.152157 2.23516799,-1.71936 3.610656,-3.72528 1.375488,-2.00592 1.375488,-4.18378 0,-1.77667 -0.802368,-2.69366 -0.745056,-0.917 -2.52172801,-0.917 -2.00591999,0 -3.55334399,1.31818 -1.490112,1.31818 -2.521728,3.43872 -1.031616,2.06323 -1.6047361,4.35571 -0.515808,2.23517 -0.515808,4.06915 0,2.349797 0.630432,4.241093 0.6304321,1.833984 1.7193601,3.15216 1.088928,1.318176 2.57904,2.063232 1.547424,0.687744 3.32409599,0.687744 1.490112,0 2.92291201,-0.515808 1.490112,-0.57312 2.922912,-1.604736 1.4328,-1.031616 2.750976,-2.29248 0.630432,-0.57312 1.260864,-0.458496 0.630432,0.114624 1.0889282,0.57312 0.57312,0.515808 0.687744,1.203552 0.114624,0.630432 -0.458496,1.260864 -1.6620482,1.662048 -3.6106562,2.980224 -1.891296,1.260864 -4.069152,1.891296 -2.12054401,0.687744 -4.470336,0.687744 z"
           style="-inkscape-font-specification:'Playwrite DK Loopet @wght=300';font-variation-settings:'wght' 300;fill:#fdf6e3;stroke-width:5.7735"
           id="path318" /></g></g></g></svg>
