<?xml version="1.0" encoding="UTF-8" standalone="no"?>
<svg
   width="490pt"
   height="171pt"
   viewBox="-304 -304 653.33333 228"
   version="1.1"
   id="svg226"
   sodipodi:docname="wireshare-wordmark.svg"
   inkscape:version="1.2.2 (b0a84865, 2022-12-01)"
   xml:space="preserve"
   xmlns:inkscape="http://www.inkscape.org/namespaces/inkscape"
   xmlns:sodipodi="http://sodipodi.sourceforge.net/DTD/sodipodi-0.dtd"
   xmlns="http://www.w3.org/2000/svg"
   xmlns:svg="http://www.w3.org/2000/svg"
   xmlns:rdf="http://www.w3.org/1999/02/22-rdf-syntax-ns#"
   xmlns:cc="http://creativecommons.org/ns#"
   xmlns:dc="http://purl.org/dc/elements/1.1/"><defs
     id="defs230"><rect
       x="119.42546"
       y="-42.049878"
       width="169.88531"
       height="156.18526"
       id="rect1000" /><rect
       x="-11.915994"
       y="17.332354"
       width="878.53369"
       height="174.40681"
       id="rect71227" /></defs><sodipodi:namedview
     id="namedview228"
     pagecolor="#ffffff"
     bordercolor="#000000"
     borderopacity="0.25"
     inkscape:showpageshadow="2"
     inkscape:pageopacity="0.0"
     inkscape:pagecheckerboard="0"
     inkscape:deskcolor="#d1d1d1"
     showgrid="false"
     inkscape:zoom="0.83234486"
     inkscape:cx="173.60593"
     inkscape:cy="-3.0035627"
     inkscape:window-width="1309"
     inkscape:window-height="811"
     inkscape:window-x="201"
     inkscape:window-y="38"
     inkscape:window-maximized="0"
     inkscape:current-layer="text363"
     inkscape:document-units="pt" /><title
     id="title222">Squircle: x to 4th plus y to 4th equals radius to 4th</title><metadata
     id="metadata349"><rdf:RDF><cc:Work
         rdf:about=""><dc:title>Squircle: x to 4th plus y to 4th equals radius to 4th</dc:title></cc:Work></rdf:RDF></metadata><g
     id="g699"
     transform="matrix(1.3333333,0,0,1,101.33333,0)"
     style="stroke-width:0.866025"><rect
       style="fill:#b58900;fill-opacity:1;stroke-width:2.3094;stroke-linecap:round;stroke-linejoin:round"
       id="rect2950"
       width="490"
       height="228"
       x="-304.00003"
       y="-304.00003" /><g
       id="g6076"
       transform="matrix(1.0972948,0,0,1.0972948,5.7403624,16.694808)"
       style="stroke-width:0.789237"><path
         style="fill:#fdf6e3;fill-opacity:1;stroke:none;stroke-width:3.15694;stroke-linecap:round;stroke-linejoin:round;stroke-dasharray:none;stroke-opacity:1"
         d="m -96.229825,-268.34534 c 14.018924,0.68049 17.559782,2.13867 23.196258,9.62399 5.202897,6.90205 6.792669,12.05429 6.792669,22.26155 0,5.15224 -0.433574,8.16581 -1.734299,11.76265 -1.734299,5.05502 -7.587561,13.60968 -9.89996,14.58179 -1.806559,0.77769 -1.734299,2.33309 0.433579,8.65187 1.011673,2.91636 1.80656,5.6383 1.80656,5.92993 0,0.29163 0.650359,2.4303 1.372985,4.66617 2.601451,7.77696 6.575889,21.48385 6.575889,22.74761 0,1.06933 -2.023352,1.26376 -9.8277,1.06933 l -9.755432,-0.29164 -4.480273,-15.26228 c -2.529191,-8.36023 -4.913849,-15.74834 -5.347428,-16.52603 -0.5781,-0.97213 -2.673713,-1.16655 -8.454703,-0.97213 l -7.65983,0.29165 v 16.52603 c 0,12.24871 -0.21678,16.62325 -0.86715,16.91488 -1.37298,0.68049 -17.1262,1.16655 -17.77656,0.48606 -0.28905,-0.29163 -0.43358,-23.81693 -0.28905,-52.39725 l 0.14452,-51.91121 12.86272,0.6805 c 7.00946,0.38884 17.34299,0.8749 22.907205,1.16653 z"
         id="path65608" /><path
         style="fill:#fdf6e3;fill-opacity:1;stroke:none;stroke-width:3.15694;stroke-linecap:round;stroke-linejoin:round;stroke-dasharray:none;stroke-opacity:1"
         d="m 20.257286,-217.69789 0.216788,53.75822 h -9.755435 c -8.8160185,0 -9.75543077,-0.19442 -9.82769788,-1.74981 -0.0722604,-2.72194 0.14452758,-24.98348 0.43357928,-38.88479 0.1445208,-8.74908 0,-12.83199 -0.5058397,-12.63756 -0.43357257,0.19442 -2.0956124,3.40241 -3.6853852,7.09647 -7.1539855,17.0121 -13.8021355,33.44093 -15.0305955,37.13498 -1.589773,5.05503 -3.25181,5.34666 -4.624797,0.87491 -0.578099,-1.84703 -3.17955,-9.33235 -5.781002,-16.72046 -2.601445,-7.38811 -5.419682,-15.45671 -6.286835,-18.08143 -0.794886,-2.52752 -1.806559,-4.66617 -2.167872,-4.66617 -0.361313,0 -0.578099,9.33234 -0.578099,21.87269 0.07226,11.95707 -0.07226,22.26154 -0.289053,22.7476 -0.216787,0.48607 -4.335745,0.87491 -9.105068,0.97213 l -8.6715,0.0972 -0.07226,-40.6346 c 0,-22.26154 -0.144527,-45.00915 -0.216787,-50.55024 -0.07227,-5.92993 0.216787,-10.30446 0.65036,-10.79053 0.361313,-0.38884 4.98611,-0.8749 10.116747,-0.97211 l 9.466386,-0.19442 1.517512,4.18011 c 0.867147,2.33309 2.167872,6.31878 2.962758,9.04071 0.794887,2.62473 2.962765,9.13793 4.769324,14.38737 1.806565,5.15224 3.324077,9.81842 3.324077,10.20726 0,1.65261 2.962757,8.9435 3.613124,8.9435 0.361312,0 1.589773,-2.52751 2.745973,-5.63829 1.156197,-3.01357 2.818236,-7.2909 3.757649,-9.42956 10.9116312,-26.24723 13.0072436,-31.39947 13.0072436,-32.27438 0,-1.74981 1.8788278,-2.04144 11.2006864,-1.84703 l 8.671495,0.0972 z"
         id="path65606" /><path
         style="fill:#fdf6e3;fill-opacity:1;stroke:none;stroke-width:3.15694;stroke-linecap:round;stroke-linejoin:round;stroke-dasharray:none;stroke-opacity:1"
         d="m -169.57624,-273.69199 c 11.70653,1.06933 21.53422,2.23587 21.82327,2.43029 1.01167,0.87491 0.72263,19.83125 -0.28905,19.92847 -1.1562,0.19441 0.86715,0.19441 -16.98168,-0.58328 l -15.39191,-0.68048 v 9.8184 c 0,11.66545 -1.30072,10.69333 14.09118,11.08217 l 10.83937,0.19443 v 11.66544 11.66543 l -10.47806,0.58327 c -5.78099,0.38886 -11.27294,0.68049 -12.28461,0.77769 l -1.80657,0.0972 -0.0723,10.79053 v 10.79053 l 9.39412,-0.68048 c 5.2029,-0.38885 12.42915,-0.97213 15.97001,-1.45818 3.61312,-0.38885 6.72041,-0.58328 7.00946,-0.38885 0.21679,0.19442 0.50583,5.44387 0.50583,11.56822 0.0723,8.26302 -0.14452,11.37381 -0.79488,11.66545 -0.50584,0.19442 -8.38245,1.06933 -17.55978,1.94423 -16.40358,1.45818 -18.35467,1.65261 -29.41083,3.01358 l -5.63648,0.58326 v -58.91046 -58.91045 l 4.91386,0.48606 c 2.67371,0.29163 14.45249,1.45817 26.15901,2.52751 z"
         id="path65604" /><path
         style="fill:#fdf6e3;fill-opacity:1;stroke:none;stroke-width:3.15694;stroke-linecap:round;stroke-linejoin:round;stroke-dasharray:none;stroke-opacity:1"
         d="m 86.232928,-267.08158 v 10.59611 l -5.925522,0.58327 c -3.32408,0.29163 -10.550319,0.87491 -16.114536,1.26376 l -10.116743,0.77769 -0.216788,11.3738 -0.216788,11.47102 h 11.995571 11.995571 l -0.216788,12.83198 -0.216784,12.83198 H 65.638122 l -11.561995,0.0972 -0.216788,10.40168 -0.216788,10.30447 3.468597,0.58327 c 1.878828,0.29165 5.419689,0.7777 7.80435,1.06934 14.958332,1.6526 21.028375,2.62472 21.461954,3.20799 0.65036,0.87491 0.939412,22.45597 0.289048,23.23367 -0.216788,0.29163 -6.79267,-0.38885 -14.669283,-1.55539 -7.876607,-1.26376 -16.764893,-2.43031 -19.727651,-2.62473 -5.925522,-0.48606 -18.282412,-2.23587 -18.571463,-2.62472 -0.07226,-0.19443 -0.216788,-24.69184 -0.216788,-54.63314 -0.07226,-43.8426 0.07227,-54.43871 0.867155,-55.02197 0.505839,-0.48606 3.251809,-0.87492 5.997782,-0.87492 2.818243,0 8.38245,-0.48606 12.501414,-0.97212 4.046698,-0.48605 11.561999,-1.16654 16.620366,-1.55539 5.058376,-0.38884 9.321862,-0.7777 9.466386,-0.97211 0.144521,-0.19443 1.878824,-0.38885 3.829912,-0.38885 h 3.468598 z"
         id="path65602" /><path
         style="fill:#fdf6e3;fill-opacity:1;stroke:none;stroke-width:3.15694;stroke-linecap:round;stroke-linejoin:round;stroke-dasharray:none;stroke-opacity:1"
         d="m 163.77057,-276.31672 c 0.14452,5.6383 0,10.69332 -0.21679,11.17938 -0.43358,0.8749 -11.99557,2.72194 -21.67875,3.49964 -12.42914,0.97211 -19.58313,2.13866 -20.45027,3.3052 -0.5781,0.77769 -0.93942,5.34666 -1.08394,12.63756 -0.36132,15.35949 -0.93942,14.67901 13.0795,14.67901 20.45029,0.0972 22.76268,0.68048 26.80938,6.5132 3.54087,5.05502 4.0467,9.42956 4.0467,33.34371 0,29.16359 -0.86714,33.14929 -8.81602,39.27364 -4.48027,3.49963 -10.55032,4.0829 -22.97946,2.13867 -5.34743,-0.7777 -14.30797,-2.13867 -19.87219,-3.01357 -5.56421,-0.87491 -10.55032,-1.74983 -10.98389,-1.94425 -0.72263,-0.29164 -0.93941,-3.59684 -0.93941,-12.15149 v -11.66544 l 3.46859,0.38884 c 19.29408,2.23588 36.99839,3.69406 38.5159,3.20801 2.52918,-0.87492 3.54086,-4.37454 3.54086,-12.73478 0,-9.52677 -0.5781,-13.02641 -2.38466,-14.38737 -0.86715,-0.58327 -6.35909,-1.16655 -12.79046,-1.36097 -23.34077,-0.68049 -26.66485,-1.55539 -29.2663,-7.38811 -1.37299,-3.01358 -1.44525,-4.95782 -1.44525,-28.96917 v -25.76118 l 2.16788,-5.83271 c 3.25181,-8.65187 5.34742,-9.81842 21.60648,-11.66545 7.08172,-0.77769 14.01891,-1.65259 15.53642,-1.94423 1.44526,-0.19443 5.70874,-0.68049 9.46639,-0.97212 3.75765,-0.38885 8.31018,-0.97212 10.11675,-1.36097 1.80656,-0.38885 3.54086,-0.38885 3.82991,-0.0972 0.28905,0.38885 0.65036,5.34666 0.72263,11.08216 z"
         id="path65600" /><path
         style="fill:#fdf6e3;fill-opacity:1;stroke:none;stroke-width:3.15694;stroke-linecap:round;stroke-linejoin:round;stroke-dasharray:none;stroke-opacity:1"
         d="m -270.7437,-289.92639 9.75543,2.23587 0.43358,25.66397 c 0.28904,14.09573 0.50584,25.76117 0.5781,25.85839 0,0.19442 5.27516,0.29163 11.63426,0.29163 h 11.56199 v -23.33088 -23.42809 l 2.38467,0.48607 c 1.22846,0.29163 5.5642,1.06933 9.53864,1.6526 3.97443,0.58327 7.29851,1.16654 7.37077,1.26375 0.14453,0.19443 0.43357,27.60821 0.65036,61.04913 l 0.50584,60.8547 -2.81824,0.48606 c -8.02113,1.6526 -16.25905,2.81915 -16.5481,2.52751 -0.14452,-0.29163 -0.50584,-12.24871 -0.72262,-26.63608 -0.21679,-14.38738 -0.50584,-26.24723 -0.5781,-26.24723 -0.0723,0 -5.27517,0.0972 -11.562,0.29163 l -11.41747,0.38885 0.14452,27.6082 c 0.0723,15.26228 0,27.80262 -0.14452,27.99705 -0.14453,0.19442 -4.40801,1.06933 -9.39412,1.94424 -4.98612,0.87491 -9.75544,1.74982 -10.62259,2.04145 -1.51751,0.38885 -1.58978,0.0972 -1.58978,-9.04071 0,-5.15224 -0.21678,-38.00989 -0.50584,-72.90899 -0.3613,-53.46659 -0.21678,-63.38221 0.57811,-63.38221 0.5781,0.0972 5.41968,1.06933 10.76711,2.33309 z"
         id="path65598" /><path
         style="fill:#b58900;fill-opacity:1;stroke:#fdf6e3;stroke-width:3.15694;stroke-linecap:round;stroke-linejoin:round;stroke-dasharray:none;stroke-opacity:1"
         d="m -112.56115,-248.12524 c -0.36131,0.58329 -0.65036,6.99928 -0.65036,14.38737 v 13.41527 l 9.2496,-0.0973 c 9.032812,-0.0971 12.067837,-0.77769 15.030593,-3.79126 3.829911,-3.88847 4.913851,-10.30447 2.890499,-17.0121 -1.734298,-5.44385 -4.40801,-6.70762 -15.825482,-7.29088 -5.85326,-0.29164 -10.26127,-0.0973 -10.69485,0.38883 z"
         id="path834" /></g><g
       aria-label="paige"
       transform="scale(0.86602543,1.1547005)"
       id="text8984"
       style="font-size:57.4006px;line-height:1.5;font-family:Skia;-inkscape-font-specification:'Skia, @wght=1.25,wdth=0.75';font-variant-ligatures:discretionary-ligatures;font-variant-numeric:oldstyle-nums;font-variation-settings:'wdth' 0.75, 'wght' 1.25;text-align:justify;letter-spacing:0px;fill:#fdf6e3;stroke-width:1.1547"><g
         aria-label="wireshare"
         id="text363"
         style="font-size:83.5913px;font-family:'Brygada 1918';-inkscape-font-specification:'Brygada 1918, ';text-align:center;text-anchor:middle;fill:#c9e900;stroke-width:5.77351;stroke-linecap:round;stroke-linejoin:round"><path
           d="m -216.29264,-105.10584 h 15.21362 v 2.9257 h -5.01548 l -12.12074,35.526301 h -5.43343 l -9.11145,-25.244573 h -0.41796 l -9.52941,25.244573 h -5.43343 l -12.12074,-35.526301 h -5.85139 v -2.9257 h 19.226 v 2.9257 h -5.43344 l -0.41796,0.41795 8.94427,26.749221 h 0.41796 l 8.6935,-22.653243 -1.50465,-4.513928 h -4.01238 v -2.9257 h 17.21981 v 2.9257 h -5.51703 l -0.41795,0.41795 9.36222,26.749221 h 0.41796 l 9.11145,-26.749221 -0.41796,-0.41795 h -5.85139 z"
           style="fill:#fdf6e3;stroke-width:5.77349"
           id="path1732" /><path
           d="m -197.90258,-66.653839 v -2.925696 h 6.26935 l 0.41795,-0.417956 v -31.764699 l -0.41795,-0.41795 h -6.26935 v -2.9257 q 2.17337,0 4.26315,0 2.17338,-0.0836 4.34675,-0.16718 2.17338,-0.0836 4.34675,-0.25077 l 0.41796,0.41795 v 35.108349 l 0.41795,0.417956 h 6.26935 v 2.925696 z m 9.613,-47.647041 q -1.83901,0 -3.26006,-1.33746 -1.33746,-1.42105 -1.33746,-3.26006 0,-1.9226 1.33746,-3.26006 1.42105,-1.33746 3.26006,-1.33746 1.9226,0 3.26006,1.33746 1.33746,1.33746 1.33746,3.26006 0,1.83901 -1.33746,3.26006 -1.33746,1.33746 -3.26006,1.33746 z"
           style="fill:#fdf6e3;stroke-width:5.77349"
           id="path1734" /><path
           d="m -156.77569,-95.910794 q 2.42415,-4.263156 5.93499,-7.188856 3.59442,-2.92569 7.6904,-2.8421 2.08978,0 3.34365,0.75232 1.33746,0.75232 1.9226,2.00619 0.58514,1.17028 0.58514,2.67492 0,2.173378 -1.42106,3.59443 -1.42105,1.421052 -3.59442,1.421052 -2.17338,0 -3.59443,-1.421052 -1.42105,-1.421052 -1.42105,-3.59443 0,-0.75232 0.50155,-2.00619 0.50155,-1.25387 1.08669,-1.83901 l -0.0836,2.17338 q -1.58823,0.50155 -3.26006,1.67182 -1.67182,1.170282 -3.59442,3.59443 -1.83901,2.424148 -4.09598,6.854487 z m 0,25.913303 0.41796,0.417956 h 9.613 v 2.925696 h -23.40556 v -2.925696 h 6.26934 l 0.41796,-0.417956 v -31.764699 l -0.41796,-0.41795 h -6.26934 v -2.9257 q 2.17337,0 4.17956,0 2.08978,-0.0836 4.09597,-0.16718 2.08979,-0.0836 4.26316,-0.25077 l 0.41796,0.41795 v 9.195046 h 0.41795 z"
           style="fill:#fdf6e3;stroke-width:5.77349"
           id="path1736" /><path
           d="m -112.63966,-69.161578 q 4.43034,0 7.43963,-2.006191 3.09288,-2.006192 5.349843,-4.430339 l 2.256965,1.9226 q -1.755417,2.089782 -4.012378,3.928791 -2.17338,1.755417 -5.18267,2.842104 -2.92569,1.086687 -7.10526,1.086687 -5.09907,0 -9.5294,-2.424148 -4.34675,-2.424148 -7.02167,-6.938078 -2.67493,-4.51393 -2.67493,-10.699686 0,-6.185757 2.67493,-10.699687 2.67492,-4.513935 7.02167,-6.938075 4.43033,-2.42415 9.5294,-2.42415 5.18266,0 8.86068,2.00619 3.76161,2.00619 5.767802,6.102166 2.089782,4.095973 2.089782,10.28173 h -29.256954 v -2.925696 h 21.23219 q -0.33437,-6.018574 -2.42415,-9.278634 -2.00619,-3.260066 -6.6873,-3.260066 -4.09598,0 -6.68731,2.17338 -2.50774,2.173373 -3.67801,6.102164 -1.17028,3.8452 -1.17028,8.860678 0,4.931886 1.83901,8.693495 1.83901,3.761609 4.84829,5.934982 3.00929,2.089783 6.52012,2.089783 z"
           style="fill:#fdf6e3;stroke-width:5.77349"
           id="path1738" /><path
           d="m -80.373544,-99.923177 q 0,2.256965 1.671826,3.678017 1.671826,1.337461 4.346747,2.424148 2.674922,1.003096 5.684209,2.089783 3.009287,1.003095 5.684208,2.59133 2.674922,1.504643 4.346748,3.928791 1.671826,2.424148 1.671826,6.185756 0,4.179565 -2.173374,7.188852 -2.089783,2.925696 -5.684208,4.51393 -3.510835,1.504644 -7.773991,1.504644 -3.343653,0 -6.436531,-0.835913 -3.009286,-0.835913 -5.015478,-1.671826 l -0.835913,1.671826 h -3.176469 q -0.501548,-3.260061 -1.421052,-7.272443 -0.835913,-4.095974 -2.006191,-7.356035 l 2.758512,-0.835913 q 3.009287,5.09907 5.934983,8.024765 2.925695,2.925696 5.600617,4.179565 2.674922,1.170278 4.931887,1.170278 2.674921,0 4.597521,-1.253869 1.9226,-1.337461 1.9226,-3.594426 0,-2.173374 -1.755417,-3.510835 -1.755417,-1.421052 -4.51393,-2.424147 -2.758513,-1.003096 -5.851391,-2.089783 -3.092879,-1.170278 -5.851392,-2.758513 -2.758512,-1.671826 -4.51393,-4.179565 -1.755417,-2.59133 -1.755417,-6.43653 0,-4.430339 2.256965,-7.18885 2.340556,-2.75851 6.102165,-4.09598 3.761609,-1.33746 8.191948,-1.33746 3.510834,0 5.767799,0.66873 2.340557,0.66873 3.678018,1.42106 l 0.585139,-1.25387 h 3.176469 q 0.417957,3.42724 1.003096,6.854483 0.66873,3.343652 1.504643,6.185756 l -2.758513,0.835913 q -3.009287,-6.185756 -6.185756,-8.944272 -3.092878,-2.8421 -7.188852,-2.8421 -2.674922,0 -4.597522,1.17028 -1.922599,1.17028 -1.922599,3.594423 z"
           style="-inkscape-font-specification:'Brygada 1918, @wght=700';font-variation-settings:'wght' 700;stroke-width:5.77349;fill:#fdf6e3;fill-opacity:1"
           id="path1740" /><path
           d="m -8.0670844,-70.415448 0.835913,0.835913 h 4.179565 v 2.925696 H -25.203301 v -2.925696 h 4.179565 l 0.835913,-0.835913 v -25.495346 q 0,-4.012383 -1.421052,-5.517026 -1.337461,-1.58824 -3.761609,-1.58824 -2.59133,0 -4.931886,1.9226 -2.256966,1.922605 -4.931887,6.854492 v 23.82352 l 0.835913,0.835913 h 4.179565 v 2.925696 h -22.151695 v -2.925696 h 4.179565 l 0.835913,-0.835913 v -53.498432 l -0.835913,-0.83591 h -4.179565 v -2.9257 q 2.173374,0 5.182661,0 3.009287,-0.0836 5.934982,-0.25077 3.009287,-0.25078 5.182661,-0.58514 l 0.835913,0.83591 v 28.003087 q 1.9226,-3.343657 5.18266,-5.600617 3.260061,-2.34056 9.027861,-2.34056 4.51393,0 7.356034,1.50465 2.925696,1.42105 4.2631568,3.92879 1.3374608,2.424146 1.3374608,5.433433 z"
           style="-inkscape-font-specification:'Brygada 1918, @wght=700';font-variation-settings:'wght' 700;stroke-width:5.77349;fill:#fdf6e3;fill-opacity:1"
           id="path1742" /><path
           d="m 36.737788,-65.817926 q -2.842105,0 -4.931887,-0.919504 -2.006191,-0.919505 -3.510835,-3.260061 v -22.151695 q 0,-5.266252 -1.755417,-8.442724 -1.671826,-3.26006 -6.687304,-3.26006 -1.839009,0 -3.427244,0.41796 -1.588234,0.33436 -3.176469,1.08669 1.337461,0.83591 2.089783,2.17337 0.835913,1.33746 0.835913,3.009286 0,2.507739 -1.671826,4.179565 -1.671826,1.671826 -4.179566,1.671826 -2.5077385,0 -4.1795646,-1.671826 -1.671826,-1.755417 -1.671826,-4.597521 0,-2.67492 1.7554173,-4.51393 1.8390087,-1.9226 4.7647043,-3.09288 2.925695,-1.25387 6.269347,-1.83901 3.427244,-0.58514 6.520122,-0.58514 4.263156,0 8.024765,1.25387 3.8452,1.25387 6.185756,4.34675 2.424148,3.009287 2.424148,8.609905 v 18.055721 q 0,1.170278 0.585139,2.256965 0.585139,1.003095 1.9226,1.003095 0.919504,0 1.671826,-0.501547 0.835913,-0.58514 1.504643,-1.421053 l 2.256965,1.9226 q -1.003095,1.421052 -2.424147,2.925696 -1.337461,1.421052 -3.510835,2.424148 -2.173374,0.919504 -5.684208,0.919504 z m -19.727547,0 q -6.603713,0 -10.8668696,-3.17647 -4.179565,-3.176469 -4.179565,-8.526312 0,-5.266252 4.179565,-8.442722 4.1795646,-3.26006 10.8668696,-3.26006 4.681112,0 7.272443,1.421052 2.674921,1.337461 4.012382,2.758513 v 4.012382 q -1.755417,-2.089782 -3.8452,-3.092878 -2.089782,-1.086687 -4.179565,-1.086687 -3.092878,0 -4.681113,2.173374 -1.504643,2.089782 -1.504643,5.517026 0,3.343652 1.504643,5.517026 1.588235,2.173373 4.681113,2.173373 2.089783,0 4.179565,-1.003095 2.089783,-1.086687 3.8452,-3.17647 v 4.012383 q -1.337461,1.421052 -4.012382,2.842104 -2.591331,1.337461 -7.272443,1.337461 z"
           style="-inkscape-font-specification:'Brygada 1918, @wght=700';font-variation-settings:'wght' 700;stroke-width:5.77349;fill:#fdf6e3;fill-opacity:1"
           id="path1744" /><path
           d="m 67.499378,-98.000577 q 1.671827,-3.845203 4.764705,-6.687303 3.092878,-2.9257 8.191947,-2.9257 2.59133,0 4.263156,1.08669 1.671827,1.08669 2.424148,2.75851 0.835913,1.58824 0.835913,3.17647 0,2.925698 -1.9226,5.015481 -1.9226,2.089782 -5.18266,2.089782 -2.925696,0 -5.015478,-2.089782 -2.089783,-2.089783 -2.089783,-5.015481 0,-1.58823 0.66873,-2.75851 0.752322,-1.25387 1.337461,-1.83901 v 3.00929 q -1.588234,0.50155 -2.842104,1.58823 -1.170278,1.003098 -2.424148,3.176472 -1.170278,2.089783 -3.009287,6.102165 z m 0,27.585129 0.835913,0.835913 h 6.687305 v 2.925696 H 50.363162 v -2.925696 h 4.179565 l 0.835913,-0.835913 v -32.600612 l -0.835913,-0.83591 h -4.179565 v -2.92569 q 2.173374,0 4.931887,0 2.842104,-0.0836 5.600617,-0.25078 2.758513,-0.25077 4.931886,-0.58514 l 0.835913,0.83592 v 8.777083 h 0.835913 z"
           style="-inkscape-font-specification:'Brygada 1918, @wght=700';font-variation-settings:'wght' 700;stroke-width:5.77349;fill:#fdf6e3;fill-opacity:1"
           id="path1746" /><path
           d="m 113.97606,-69.997491 q 4.17956,0 7.52321,-2.006191 3.42725,-2.006192 5.68421,-4.430339 l 2.25697,1.9226 q -1.75542,2.089782 -4.09598,4.095973 -2.25696,2.006192 -5.6842,3.343652 -3.42725,1.25387 -8.6935,1.25387 -5.7678,0 -10.61609,-2.424148 -4.8483,-2.507739 -7.773995,-7.188852 -2.925696,-4.681113 -2.925696,-11.284825 0,-6.603713 2.925696,-11.284826 2.925695,-4.681113 7.773995,-7.105263 4.84829,-2.50774 10.61609,-2.50774 5.43344,0 9.69659,2.08979 4.26316,2.08978 6.68731,6.520117 2.50773,4.430339 2.50773,11.452009 h -29.7585 v -2.925696 h 16.80185 q -0.33436,-7.272443 -2.00619,-10.69969 -1.58823,-3.51083 -4.7647,-3.51083 -2.25697,0 -3.8452,2.25696 -1.58824,2.17338 -2.42415,6.269352 -0.83591,4.012382 -0.83591,9.445817 0,5.349843 1.17028,9.111451 1.25386,3.678018 3.67801,5.684209 2.42415,1.9226 6.10217,1.9226 z"
           style="-inkscape-font-specification:'Brygada 1918, @wght=700';font-variation-settings:'wght' 700;stroke-width:5.77349;fill:#fdf6e3;fill-opacity:1"
           id="path1748" /></g><text
         xml:space="preserve"
         transform="matrix(0.86602541,0,0,0.86602544,-351.02896,-263.27173)"
         id="text998"
         style="fill:#b58900;-inkscape-font-specification:'Brygada 1918, @wght=700';font-family:'Brygada 1918';font-size:88.9072113px;line-height:1.5;font-variant-ligatures:discretionary-ligatures;font-variant-numeric:oldstyle-nums;text-align:center;stroke-linejoin:round;stroke-linecap:round;stroke-width:6.66666667;font-variation-settings:'wght' 700;white-space:pre;shape-inside:url(#rect1000)" /></g></g></svg>
