<?xml version="1.0" encoding="UTF-8" standalone="no"?>
<svg
   width="576pt"
   height="576pt"
   viewBox="-304 -304 768 768"
   version="1.1"
   id="svg226"
   sodipodi:docname="eos-icon.svg"
   inkscape:version="1.2.2 (b0a84865, 2022-12-01)"
   xmlns:inkscape="http://www.inkscape.org/namespaces/inkscape"
   xmlns:sodipodi="http://sodipodi.sourceforge.net/DTD/sodipodi-0.dtd"
   xmlns="http://www.w3.org/2000/svg"
   xmlns:svg="http://www.w3.org/2000/svg"
   xmlns:rdf="http://www.w3.org/1999/02/22-rdf-syntax-ns#"
   xmlns:cc="http://creativecommons.org/ns#"
   xmlns:dc="http://purl.org/dc/elements/1.1/">
  <defs
     id="defs230" />
  <sodipodi:namedview
     id="namedview228"
     pagecolor="#ffffff"
     bordercolor="#000000"
     borderopacity="0.25"
     inkscape:showpageshadow="2"
     inkscape:pageopacity="0.0"
     inkscape:pagecheckerboard="0"
     inkscape:deskcolor="#d1d1d1"
     showgrid="false"
     inkscape:zoom="0.56813028"
     inkscape:cx="295.70682"
     inkscape:cy="191.8574"
     inkscape:window-width="1309"
     inkscape:window-height="456"
     inkscape:window-x="202"
     inkscape:window-y="38"
     inkscape:window-maximized="0"
     inkscape:current-layer="svg226"
     inkscape:document-units="pt" />
  <title
     id="title222">Squircle: x to 4th plus y to 4th equals radius to 4th</title>
  <metadata
     id="metadata349">
    <rdf:RDF>
      <cc:Work
         rdf:about="">
        <dc:title>Squircle: x to 4th plus y to 4th equals radius to 4th</dc:title>
      </cc:Work>
    </rdf:RDF>
  </metadata>
  <g
     id="g699"
     transform="matrix(1.3333333,0,0,1.3333333,101.33333,101.33333)"
     style="stroke-width:0.75">
    <path
       fill="none"
       stroke="#000000"
       stroke-width="3.03"
       d="m -16,272 c 126.2,0 196.3563,0 242.1782,-45.8218 C 272,180.3563 272,110.2 272,-16 272,-142.2 272,-212.3563 226.1782,-258.1782 180.3563,-304 110.2,-304 -16,-304 c -126.2,0 -196.3563,0 -242.1782,45.8218 C -304,-212.3563 -304,-142.2 -304,-16 c 0,126.2 0,196.3563 45.8218,242.1782 C -212.3563,272 -142.2,272 -16,272 Z"
       id="path224"
       style="fill:#81d8d0;fill-opacity:1;stroke:none" />
    <g
       aria-label="@"
       transform="scale(1.0140077,0.9861858)"
       id="text1988"
       style="font-weight:300;font-size:655.929px;line-height:1.5;font-family:'Garamond Premier Pro';-inkscape-font-specification:'Garamond Premier Pro, Light';font-variant-ligatures:discretionary-ligatures;font-variant-numeric:oldstyle-nums;text-align:justify;fill:#eee8d5;stroke-width:1">
      <path
         d="m 255.42157,-38.11307 q 0,76.226126 -54.76751,128.431414 -54.76751,51.885006 -146.046695,51.885006 -27.223617,0 -60.2122343,-4.16361 -32.9886177,-4.48389 -50.9241767,-12.81111 -21.138337,-9.92861 -35.871118,-27.543896 -14.412506,-17.615281 -14.412506,-43.878064 0,-28.504728 16.974729,-47.0808426 16.974725,-18.5761144 44.51862,-30.1061174 24.981671,-10.569168 57.009455,-15.053058 32.027784,-4.804168 56.689178,-6.725835 -1.601389,-20.177504 -10.889447,-32.668339 -8.967779,-12.811114 -25.622227,-19.857226 -11.85028,-5.124442 -25.9425051,-7.046112 -14.0922249,-1.92167 -34.5900069,-1.92167 -11.209724,0 -21.138337,0.64056 -9.608335,0.64055 -24.661394,1.28111 l 4.48389,-40.03473 q 3.523056,-0.32028 16.654448,-0.96083 13.451669,-0.96084 34.590006,-0.96084 33.308896,0 57.970289,6.72584 24.661394,6.72583 41.956397,22.41945 16.654448,15.05305 24.341115,37.792781 7.68667,22.739726 7.68667,59.2514 0,33.629173 0,69.500291 0,35.871118 0,54.767508 43.55779,-7.686665 72.38279,-47.401117 29.14528,-40.03473 29.14528,-95.442797 0,-82.311406 -58.61084,-133.235586 -58.290567,-51.24445 -154.0536411,-51.24445 -96.4036299,0 -155.6550289,61.49335 -59.2514,61.49334 -59.2514,148.929191 0,101.528076 71.10168,165.583639 71.101679,64.05557 181.597534,72.70307 l -3.843334,37.47251 q -130.673359,-10.24889 -211.0631,-85.51418 -80.38973,-75.26529 -80.38973,-193.127539 0,-106.332241 74.30445,-176.473091 74.62474,-70.14085 182.2380953,-70.14085 112.4175247,0 183.1989247,60.53252 71.10168,60.53251 71.10168,163.98225 z M 68.69959,45.159168 q 0,-9.288057 0,-22.419449 0,-13.131391 -0.320278,-31.3872279 -16.33417,0.6405557 -42.596953,4.8041676 Q -0.48042387,-7.2419643e-6 -21.298483,8.0069388 -33.789319,12.811106 -46.280155,24.020831 q -12.490836,10.889446 -12.490836,27.543894 0,18.255837 9.608335,29.465561 9.608336,10.889447 25.942505,16.33417 15.3733368,5.124444 30.7466731,7.686664 15.6936139,2.24195 32.0277839,2.24195 5.765001,0 15.373336,0 9.608336,-0.32028 13.45167,-0.64056 0,-5.12444 0,-21.138334 0.320278,-16.33417 0.320278,-40.355008 z"
         style="font-weight:normal;font-family:Skia;-inkscape-font-specification:Skia;stroke-width:1"
         id="path3544" />
    </g>
  </g>
</svg>
