<?xml version="1.0" encoding="UTF-8" standalone="no"?>
<svg
   width="576pt"
   height="576pt"
   viewBox="-304 -304 768 768"
   version="1.1"
   id="svg226"
   sodipodi:docname="eudoramail-icon.svg"
   inkscape:version="1.2.2 (b0a84865, 2022-12-01)"
   inkscape:export-filename="../../../eudoramail-icon.png"
   inkscape:export-xdpi="180"
   inkscape:export-ydpi="180"
   xmlns:inkscape="http://www.inkscape.org/namespaces/inkscape"
   xmlns:sodipodi="http://sodipodi.sourceforge.net/DTD/sodipodi-0.dtd"
   xmlns="http://www.w3.org/2000/svg"
   xmlns:svg="http://www.w3.org/2000/svg"
   xmlns:rdf="http://www.w3.org/1999/02/22-rdf-syntax-ns#"
   xmlns:cc="http://creativecommons.org/ns#"
   xmlns:dc="http://purl.org/dc/elements/1.1/">
  <defs
     id="defs230" />
  <sodipodi:namedview
     id="namedview228"
     pagecolor="#ffffff"
     bordercolor="#000000"
     borderopacity="0.25"
     inkscape:showpageshadow="2"
     inkscape:pageopacity="0.0"
     inkscape:pagecheckerboard="0"
     inkscape:deskcolor="#d1d1d1"
     showgrid="false"
     inkscape:zoom="0.64318125"
     inkscape:cx="377.80952"
     inkscape:cy="381.69645"
     inkscape:window-width="1309"
     inkscape:window-height="845"
     inkscape:window-x="0"
     inkscape:window-y="38"
     inkscape:window-maximized="0"
     inkscape:current-layer="svg226"
     inkscape:document-units="pt" />
  <title
     id="title222">Squircle: x to 4th plus y to 4th equals radius to 4th</title>
  <metadata
     id="metadata349">
    <rdf:RDF>
      <cc:Work
         rdf:about="">
        <dc:title>Squircle: x to 4th plus y to 4th equals radius to 4th</dc:title>
      </cc:Work>
    </rdf:RDF>
  </metadata>
  <path
     fill="none"
     stroke="#000000"
     stroke-width="4.04"
     d="m 79.999997,463.99999 c 168.266663,0 261.808393,0 322.904263,-61.09573 61.09573,-61.09587 61.09573,-154.6376 61.09573,-322.904263 0,-168.266662 0,-261.808397 -61.09573,-322.904257 -61.09587,-61.09573 -154.6376,-61.09573 -322.904263,-61.09573 -168.266662,0 -261.808397,0 -322.904257,61.09573 -61.09573,61.09586 -61.09573,154.637595 -61.09573,322.904257 0,168.266663 0,261.808393 61.09573,322.904263 61.09586,61.09573 154.637595,61.09573 322.904257,61.09573 z"
     id="path224"
     style="fill:#81d8d0;fill-opacity:1;stroke:none" />
  <path
     id="path7403"
     style="fill:#fdf6e3;fill-opacity:1;stroke:none;stroke-width:0.133333"
     d="m -5.003054,-179.00004 c -28.804826,-0.61989 -47.587772,32.01554 -48.959092,57.76408 -5.88036,57.818961 11.03092,114.7905767 31.266108,168.244865 7.53819,19.84365 -2.963075,15.530009 -56.157921,15.719129 L -262.92858,61.787902 c -0.62231,46.101298 0.21808,88.719108 0.42813,139.002758 l 316.571115,-0.708 c 32.054487,48.8644 69.342045,96.4884 119.172605,128.11904 23.69888,15.78336 65.01304,16.35938 72.723,-17.20532 5.47056,-19.12533 7.82576,-45.39901 -2.96006,-61.42003 0.39897,28.16879 3.83317,76.16632 -34.29604,80.07329 -39.29388,-5.84768 -67.96585,-38.23087 -94.00916,-65.67801 C 101.18595,245.69317 77.423228,220.59732 75.267721,200.08266 L 315.0983,199.99999 H 425.33332 V 64.950004 L 237.46809,63.191754 C 238.90346,40.411852 235.08465,12.530759 215.01804,-2.8986087 203.10051,-10.146875 194.4276,-12.095002 183.76943,-13.224155 173.11126,-14.353307 162.76241,-13.404674 157.89104,-27.114249 125.89964,-79.153319 85.073066,-134.25145 33.241521,-167.81916 21.505276,-174.12297 8.4592577,-178.87882 -5.003054,-179.00004 Z m 0.7268826,11.67216 c 29.3332344,1.92458 57.5949244,26.93668 76.7266724,46.31824 27.969209,33.333495 62.291689,63.681281 66.966049,112.0185381 0.45502,10.4614424 -7.22878,19.8997849 -11.7838,31.2984329 -4.55502,11.398646 -5.98126,24.757599 -1.41325,36.058505 0.87575,10.219932 -18.96679,2.354979 -26.968639,4.825702 0,0 -103.5506844,0.04223 -105.2856616,0 C -7.7697779,63.149311 -51.36268,-37.924013 -40.2944,-120.85928 c 0.979587,-19.5679 12.867501,-48.72576 36.0182286,-46.4686 z M 170.65666,-6.3542126 c 31.63006,-3.0261933 65.67839,22.6129966 59.51923,56.7030356 -3.4089,40.419414 -61.13923,60.290447 -86.16907,26.44543 C 118.12968,52.945047 132.92296,4.6874097 165.07081,-5.936786 Z"
     sodipodi:nodetypes="sccccccccccccccccczccsccczcczccscccs" />
  <text
     xml:space="preserve"
     style="font-style:normal;font-variant:normal;font-weight:normal;font-stretch:normal;font-size:146.307px;line-height:1.5;font-family:Skia;-inkscape-font-specification:'Skia, @wght=1.25,wdth=0.75';font-variant-ligatures:discretionary-ligatures;font-variant-caps:normal;font-variant-numeric:oldstyle-nums;font-variation-settings:'wdth' 0.75, 'wght' 1.25;text-align:justify;letter-spacing:9.33333px;fill:#586e75;fill-opacity:1;stroke:none;stroke-width:1.33333"
     x="-246.6479"
     y="181.79601"
     id="text8984"><tspan
       sodipodi:role="line"
       id="tspan8982"
       x="-246.6479"
       y="181.79601"
       style="font-style:normal;font-variant:normal;font-weight:normal;font-stretch:normal;font-size:146.307px;font-family:Skia;-inkscape-font-specification:'Skia, @wght=1.25,wdth=0.75';font-variant-ligatures:discretionary-ligatures;font-variant-caps:normal;font-variant-numeric:oldstyle-nums;font-variation-settings:'wdth' 0.75, 'wght' 1.25;fill:#586e75;fill-opacity:1;stroke-width:1.33333"><tspan
         style="font-style:normal;font-variant:normal;font-weight:normal;font-stretch:normal;font-size:146.307px;font-family:Skia;-inkscape-font-specification:'Skia, @wght=1.50,wdth=0.80';font-variant-ligatures:discretionary-ligatures;font-variant-caps:normal;font-variant-numeric:oldstyle-nums;font-variation-settings:'wdth' 0.8, 'wght' 1.5;stroke-width:1.33333;fill:#586e75;fill-opacity:1"
         id="tspan9040"
         dx="0 0 0 0 0 -1.3333333">eudora</tspan><tspan
         style="font-style:normal;font-variant:normal;font-weight:normal;font-stretch:normal;font-size:146.307px;font-family:Skia;-inkscape-font-specification:'Skia, @wght=0.75,wdth=0.80';font-variant-ligatures:discretionary-ligatures;font-variant-caps:normal;font-variant-numeric:oldstyle-nums;font-variation-settings:'wdth' 0.8, 'wght' 0.75;stroke-width:1.33333;fill:#586e75;fill-opacity:1"
         id="tspan9036"
         dx="0 1.3333333">mail</tspan></tspan></text>
  <path
     id="path25432"
     d="m 179.24826,-9.6539432 c 20.35952,-0.203759 39.82628,11.5864484 48.45578,31.4328762 11.50594,26.461907 -0.6259,57.235092 -27.08827,68.741044 -26.46154,11.505843 -57.23509,-0.626335 -68.74101,-27.088242 -11.50592,-26.461896 0.62697,-57.2352092 27.08828,-68.7410451 6.61542,-2.8764881 13.49871,-4.2767174 20.28522,-4.3446331 z m 0.0739,7.1276714 c -1.21435,0.012159 -2.44558,0.088972 -3.66436,0.2009998 5.55685,3.1198228 10.60401,7.143677 15.04383,11.8279011 5.86949,-1.3689199 11.61043,-2.2078532 16.97656,-2.3810389 -8.04149,-6.30842662 -18.06604,-9.7508406 -28.35614,-9.647862 z M 166.551,-0.53176502 c -0.60585,0.1868297 -1.20622,0.38906887 -1.8089,0.60298767 l 6.78748,15.58502535 c 4.2739,-1.743572 8.62751,-3.263206 12.97213,-4.530164 -5.27209,-5.0460638 -11.31773,-9.0673225 -17.95067,-11.65784902 z m -7.60694,3.13865782 c -0.57419,0.2984248 -1.14458,0.5922316 -1.70071,0.9122155 -2.79326,6.7077727 -4.09922,13.9497507 -4.08181,21.3057107 4.00433,-2.401417 8.22589,-4.632197 12.55456,-6.632912 z m -9.38502,6.5092159 c -8.53937,7.7075333 -13.76681,18.3845613 -14.73468,29.6857493 3.67997,-3.697732 8.05847,-7.235549 12.89474,-10.51371 -0.34409,-6.464671 0.23749,-12.936777 1.83994,-19.1720393 z m 60.26824,3.5097103 c -4.63615,-0.007 -9.70484,0.569106 -14.98199,1.638899 3.51553,4.429899 6.556,9.291599 9.02943,14.409974 l 15.90967,-6.911215 c -1.70896,-3.286918 -3.76527,-6.287943 -6.12271,-8.967582 -1.24307,-0.09774 -2.51619,-0.168112 -3.8344,-0.170076 z m -20.9965,3.045886 c -4.98194,1.318915 -10.07163,3.029284 -15.09018,5.071316 l 7.6842,17.687761 17.36308,-7.545127 c -2.68466,-5.5153 -6.04217,-10.660694 -9.9571,-15.21395 z m -20.90374,7.591519 c -5.08124,2.353587 -9.94137,5.0054 -14.42531,7.854355 0.61007,5.967959 2.02074,11.923268 4.2054,17.625912 l 17.90423,-7.77705 z m 54.39305,4.298241 -15.92517,6.926684 c 1.85768,4.786337 3.23899,9.758183 4.11261,14.796482 5.68067,-4.094319 10.49362,-8.490137 13.96165,-12.972052 -0.4148,-2.937446 -1.1241,-5.863179 -2.14909,-8.751114 z m -73.98248,7.050368 c -5.4285,3.925366 -10.04006,8.143917 -13.45141,12.430912 0.35149,3.557902 1.12421,7.108883 2.36558,10.606457 l 15.3875,-6.694747 C 150.6025,45.686721 149.14581,40.181966 148.3411,34.611833 Z m 52.98599,2.087278 -17.36309,7.545127 7.08131,16.311699 c 5.06415,-2.346327 9.92333,-5.000316 14.3945,-7.838888 -0.73462,-5.417455 -2.11308,-10.819231 -4.11272,-16.017938 z m 23.56304,7.560595 c -3.81141,3.95615 -8.43519,7.735617 -13.57502,11.224913 0.60374,7.00566 0.16994,14.043657 -1.46883,20.780027 9.1884,-8.204211 14.58734,-19.836548 15.04385,-32.00494 z m -46.73957,2.520191 -17.90422,7.77705 c 2.42995,4.973647 5.44107,9.644238 8.92113,13.837876 5.29193,-1.349781 10.71789,-3.143263 16.0643,-5.318684 z m -22.99107,9.988014 -15.36851,6.679292 c 1.4093,2.710703 3.05798,5.228695 4.91671,7.529659 5.4932,0.507585 11.79303,0.04513 18.46078,-1.236899 -3.08964,-4.031747 -5.78779,-8.388772 -8.00898,-12.972052 z m 50.83689,2.118202 c -4.0587,2.443693 -8.34526,4.709793 -12.74013,6.74114 l 7.37505,16.976533 c 0.56786,-0.295151 1.13497,-0.580517 1.6853,-0.896759 2.83479,-7.13948 3.99954,-14.931356 3.67973,-22.820914 z m -18.55357,9.276799 c -4.63086,1.889177 -9.36602,3.514713 -14.06984,4.839392 5.64963,5.598742 12.28805,10.009479 19.63588,12.74014 0.61112,-0.188093 1.21698,-0.38742 1.82442,-0.602976 z m -20.23887,6.400975 c -5.88563,1.310592 -11.63354,2.063616 -16.97656,2.149138 9.1486,7.916624 21.24148,11.901207 33.42737,10.85385 -6.15743,-3.356096 -11.68061,-7.799417 -16.45081,-13.002988 z"
     style="fill:#657b83;fill-opacity:1;stroke-width:0.866021" />
  <g
     id="g30240"
     transform="matrix(-0.20738054,0,0,0.15553542,338.53916,12.432746)"
     style="fill:#eee8d5;fill-opacity:1;stroke-width:5.56803">
    <path
       style="fill:#eee8d5;fill-opacity:1;stroke-width:4.82205"
       d="m 826.52272,399.48413 c 28.38087,8.42627 56.09756,13.26779 81.86184,13.81762 -44.11501,50.89914 -102.42757,76.51766 -161.18853,69.78381 29.69146,-21.57775 56.32455,-50.14567 79.32669,-83.60143 z"
       id="path30220" />
    <path
       style="fill:#eee8d5;fill-opacity:1;stroke-width:4.82205"
       d="m 728.92981,358.32963 c 22.3303,12.14628 45.16347,22.59751 67.84546,31.11442 -27.24282,35.99656 -59.25363,64.35493 -94.68519,81.91146 -2.9469,-1.2093 -5.86836,-2.49088 -8.79745,-3.87679 z"
       id="path30218" />
    <path
       style="fill:#eee8d5;fill-opacity:1;stroke-width:4.82205"
       d="m 639.46354,298.68534 c 19.57121,15.71153 40.24127,30.28116 61.43353,43.3415 L 665.3342,451.17583 c -2.73823,-1.89767 -5.4729,-3.73239 -8.12664,-5.7656 C 643.5378,399.5076 637.92137,349.41054 639.46354,298.68534 Z"
       id="path30216" />
    <path
       style="fill:#eee8d5;fill-opacity:1;stroke-width:4.82205"
       d="m 884.60167,285.06657 74.10777,42.94384 c -6.7957,17.42822 -14.74572,33.61741 -23.70858,48.41127 -26.48855,3.26348 -56.86661,0.29011 -89.01891,-7.95257 14.89841,-25.92171 27.90907,-53.93485 38.61972,-83.40254 z"
       id="path30214" />
    <path
       style="fill:#eee8d5;fill-opacity:1;stroke-width:4.82205"
       d="m 773.73751,220.84959 86.33512,50.00176 c -11.71738,31.97766 -26.23711,62.00675 -43.01818,88.96934 -25.51795,-8.6783 -51.68228,-20.2093 -77.46285,-34.196 z"
       id="path30212" />
    <path
       style="fill:#eee8d5;fill-opacity:1;stroke-width:4.82205"
       d="m 548.35688,204.64623 c 18.37871,25.43571 40.67491,49.73541 65.45944,72.16955 -2.91128,45.04217 -0.81943,90.29231 7.08274,133.60315 -44.30687,-52.74821 -70.34091,-127.53716 -72.54218,-205.7727 z"
       id="path30210" />
    <path
       style="fill:#eee8d5;fill-opacity:1;stroke-width:4.82205"
       d="m 661.9791,156.03614 83.72567,48.51066 -34.14642,104.87451 c -24.41961,-15.08545 -47.8508,-32.14904 -69.41104,-50.3994 3.54239,-34.83093 10.18946,-69.56118 19.83179,-102.98577 z"
       id="path30208" />
    <path
       style="fill:#eee8d5;fill-opacity:1;stroke-width:4.82205"
       d="m 917.48027,142.61619 c 26.17654,25.23778 48.41371,52.36058 64.86344,79.92332 -1.69485,22.87519 -5.42098,45.70593 -11.40691,68.19326 L 896.73742,247.6895 c 9.82149,-33.8684 16.84571,-69.26067 20.72605,-105.07331 z"
       id="path30206" />
    <path
       style="fill:#eee8d5;fill-opacity:1;stroke-width:4.82205"
       d="m 560.73286,97.286545 76.79203,44.534385 c -8.95777,30.77331 -15.61859,62.73931 -19.83128,95.13261 -27.39246,-26.32406 -50.60073,-54.58653 -67.32377,-83.40257 2.00023,-18.88599 5.42047,-37.69674 10.36302,-56.264425 z"
       id="path30204" />
    <path
       style="fill:#eee8d5;fill-opacity:1;stroke-width:4.82205"
       d="m 823.01901,69.651365 c 24.50206,15.13222 47.93783,32.181715 69.55966,50.498815 -2.94181,38.37049 -9.74412,76.6595 -20.27868,113.32411 L 785.96487,183.4725 Z"
       id="path30202" />
    <path
       style="fill:#eee8d5;fill-opacity:1;stroke-width:4.82205"
       d="m 722.22013,20.842463 c 24.02312,8.47982 48.56589,19.47645 72.76563,32.60554 L 757.93213,167.16973 674.20647,118.65907 c 12.94551,-35.460065 29.13566,-68.541937 48.01366,-97.816607 z"
       id="path30200" />
    <path
       style="fill:#eee8d5;fill-opacity:1;stroke-width:4.82205"
       d="m 620.97388,1.25926 c 22.35575,-0.0442 46.79724,3.659 72.24393,10.53716 -16.95207,28.481623 -31.6133,59.739405 -43.54038,92.64744 L 572.96022,60.008875 c 8.24064,-21.132862 18.15629,-40.427662 29.52401,-57.656135 5.99407,-0.62872 12.1332,-1.08089 18.48965,-1.09348 z"
       id="path30198" />
    <path
       style="fill:#eee8d5;fill-opacity:1;stroke-width:4.82205"
       d="m 911.59053,-21.30615 c 41.17726,49.554913 66.38423,118.201825 71.05143,190.86166 -17.74504,-23.77414 -38.85841,-46.52024 -62.17916,-67.59683 1.65922,-41.563975 -1.14517,-83.175767 -8.87227,-123.26483 z"
       id="path30196" />
    <path
       style="fill:#eee8d5;fill-opacity:1;stroke-width:4.82205"
       d="m 866.33544,-63.15654 c 2.76877,1.91879 5.51921,3.80771 8.20094,5.86502 13.46925,43.12698 19.76666,89.688653 19.68269,136.982995 -19.30911,-15.43967 -39.66565,-29.782212 -60.53879,-42.645652 z"
       id="path30194" />
    <path
       style="fill:#eee8d5;fill-opacity:1;stroke-width:4.82205"
       d="m 829.65438,-83.33619 c 2.92145,1.20116 5.81644,2.50151 8.72263,3.87689 L 805.64754,20.743063 C 785.03856,9.53297 764.0453,-0.23739 743.09531,-8.38323 c 25.42226,-32.44312 54.57472,-58.29739 86.55907,-74.95296 z"
       id="path30192" />
    <path
       style="fill:#eee8d5;fill-opacity:1;stroke-width:4.82205"
       d="m 768.07121,-96.1597 c 5.85563,0.0784 11.7927,0.57223 17.66972,1.29231 -26.79545,20.0586 -51.13311,45.92955 -72.54219,76.04642 -28.303,-8.80134 -55.98609,-14.19518 -81.86184,-15.3087 38.77647,-40.55943 87.11537,-62.6921 136.73482,-62.03003 z"
       id="path30190" />
  </g>
</svg>
