<?xml version="1.0" encoding="UTF-8" standalone="no"?>
<svg
   xmlns:dc="http://purl.org/dc/elements/1.1/"
   xmlns:cc="http://creativecommons.org/ns#"
   xmlns:rdf="http://www.w3.org/1999/02/22-rdf-syntax-ns#"
   xmlns:svg="http://www.w3.org/2000/svg"
   xmlns="http://www.w3.org/2000/svg"
   xmlns:sodipodi="http://sodipodi.sourceforge.net/DTD/sodipodi-0.dtd"
   xmlns:inkscape="http://www.inkscape.org/namespaces/inkscape"
   version="1.0"
   width="1024"
   height="576"
   viewBox="0 0 767.99998 432"
   preserveAspectRatio="xMidYMid meet"
   id="svg10"
   sodipodi:docname="hermeslogo-large.svg"
   inkscape:version="0.92.2 2405546, 2018-03-11">
  <defs
     id="defs14" />
  <sodipodi:namedview
     pagecolor="#ffffff"
     bordercolor="#666666"
     borderopacity="1"
     objecttolerance="10"
     gridtolerance="10"
     guidetolerance="10"
     inkscape:pageopacity="0"
     inkscape:pageshadow="2"
     inkscape:window-width="1366"
     inkscape:window-height="707"
     id="namedview12"
     showgrid="false"
     inkscape:zoom="0.62562377"
     inkscape:cx="567.63919"
     inkscape:cy="458.68439"
     inkscape:window-x="0"
     inkscape:window-y="0"
     inkscape:window-maximized="1"
     inkscape:current-layer="svg10"
     units="px" />
  <metadata
     id="metadata2">
Created by potrace 1.15, written by Peter Selinger 2001-2017
<rdf:RDF>
  <cc:Work
     rdf:about="">
    <dc:format>image/svg+xml</dc:format>
    <dc:type
       rdf:resource="http://purl.org/dc/dcmitype/StillImage" />
    <dc:title></dc:title>
  </cc:Work>
</rdf:RDF>
</metadata>
  <g
     transform="matrix(0.12061379,0,0,-0.12061379,0,432.72184)"
     id="g8"
     style="fill:#96c8a2;stroke:none">
    <path
       d="M 0,835 V 0 h 3185 3185 v 835 835 H 3185 0 Z m 250,721 135,-23 6,-264 c 4,-145 7,-265 8,-266 0,-2 73,-3 161,-3 h 160 v 240 241 l 33,-5 c 17,-3 77,-11 132,-17 55,-6 101,-12 102,-13 2,-2 6,-284 9,-628 l 7,-626 -39,-5 C 853,170 739,158 735,161 c -2,3 -7,126 -10,274 -3,148 -7,270 -8,270 -1,0 -73,-1 -160,-3 l -158,-4 2,-284 c 1,-157 0,-286 -2,-288 -2,-2 -61,-11 -130,-20 -69,-9 -135,-18 -147,-21 -21,-4 -22,-1 -22,93 0,53 -3,391 -7,750 -5,550 -3,652 8,652 8,-1 75,-11 149,-24 z m 6013,-140 c 2,-58 0,-110 -3,-115 -6,-9 -166,-28 -300,-36 -172,-10 -271,-22 -283,-34 -8,-8 -13,-55 -15,-130 -5,-158 -13,-151 181,-151 283,-1 315,-7 371,-67 49,-52 56,-97 56,-343 0,-300 -12,-341 -122,-404 -62,-36 -146,-42 -318,-22 -74,8 -198,22 -275,31 -77,9 -146,18 -152,20 -10,3 -13,37 -13,125 v 120 l 48,-4 c 267,-23 512,-38 533,-33 35,9 49,45 49,131 0,98 -8,134 -33,148 -12,6 -88,12 -177,14 -323,7 -369,16 -405,76 -19,31 -20,51 -20,298 v 265 l 30,60 c 45,89 74,101 299,120 98,8 194,17 215,20 20,2 79,7 131,10 52,4 115,10 140,14 25,4 49,4 53,1 4,-4 9,-55 10,-114 z m -1073,-95 v -109 l -82,-6 c -46,-3 -146,-9 -223,-13 l -140,-8 -3,-117 -3,-118 h 166 166 l -3,-132 -3,-132 h -160 l -160,-1 -3,-107 -3,-106 48,-6 c 26,-3 75,-8 108,-11 207,-17 291,-27 297,-33 9,-9 13,-231 4,-239 -3,-3 -94,4 -203,16 -109,13 -232,25 -273,27 -82,5 -253,23 -257,27 -1,2 -3,254 -3,562 -1,451 1,560 12,566 7,5 45,9 83,9 39,0 116,5 173,10 56,5 160,12 230,16 70,4 129,8 131,10 2,2 26,4 53,4 h 48 z m -3540,68 c 162,-11 298,-23 302,-25 14,-9 10,-204 -4,-205 -16,-2 12,-2 -235,6 l -213,7 v -101 c 0,-120 -18,-110 195,-114 l 150,-2 V 835 715 l -145,-6 c -80,-4 -156,-7 -170,-8 l -25,-1 -1,-111 V 478 l 130,7 c 72,4 172,10 221,15 50,4 93,6 97,4 3,-2 7,-56 7,-119 1,-85 -2,-117 -11,-120 -7,-2 -116,-11 -243,-20 -227,-15 -254,-17 -407,-31 l -78,-6 v 606 606 l 68,-5 c 37,-3 200,-15 362,-26 z m 2627,-576 3,-553 h -135 c -122,0 -135,2 -136,18 -1,28 2,257 6,400 2,90 0,132 -7,130 -6,-2 -29,-35 -51,-73 -99,-175 -191,-344 -208,-382 -22,-52 -45,-55 -64,-9 -8,19 -44,96 -80,172 -36,76 -75,159 -87,186 -11,26 -25,48 -30,48 -5,0 -8,-96 -8,-225 1,-123 -1,-229 -4,-234 -3,-5 -60,-9 -126,-10 l -120,-1 -1,418 c 0,229 -2,463 -3,520 -1,61 3,106 9,111 5,4 69,9 140,10 l 131,2 21,-43 c 12,-24 30,-65 41,-93 11,-27 41,-94 66,-148 25,-53 46,-101 46,-105 0,-17 41,-92 50,-92 5,0 22,26 38,58 16,31 39,75 52,97 151,270 180,323 180,332 0,18 26,21 155,19 l 120,-1 z m -1612,521 c 194,-7 243,-22 321,-99 72,-71 94,-124 94,-229 0,-53 -6,-84 -24,-121 -24,-52 -105,-140 -137,-150 -25,-8 -24,-24 6,-89 14,-30 25,-58 25,-61 0,-3 9,-25 19,-48 36,-80 91,-221 91,-234 0,-11 -28,-13 -136,-11 l -135,3 -62,157 c -35,86 -68,162 -74,170 -8,10 -37,12 -117,10 l -106,-3 V 459 c 0,-126 -3,-171 -12,-174 -19,-7 -237,-12 -246,-5 -4,3 -6,245 -4,539 l 2,534 178,-7 c 97,-4 240,-9 317,-12 z"
       id="path4"
       inkscape:connector-curvature="0" />
    <path
       d="m 2439,1126 c -5,-6 -9,-72 -9,-148 V 840 l 128,1 c 125,1 167,8 208,39 53,40 68,106 40,175 -24,56 -61,69 -219,75 -81,3 -142,1 -148,-4 z"
       id="path6"
       inkscape:connector-curvature="0" />
  </g>
  <g
     style="fill:#96c8a2;stroke:none"
     id="g818"
     transform="matrix(0.12061379,0,0,-0.12061379,0,432.72184)">
    <path
       inkscape:connector-curvature="0"
       id="path814"
       d="M 0,835 V 0 h 3185 3185 v 835 835 H 3185 0 Z m 250,721 135,-23 6,-264 c 4,-145 7,-265 8,-266 0,-2 73,-3 161,-3 h 160 v 240 241 l 33,-5 c 17,-3 77,-11 132,-17 55,-6 101,-12 102,-13 2,-2 6,-284 9,-628 l 7,-626 -39,-5 C 853,170 739,158 735,161 c -2,3 -7,126 -10,274 -3,148 -7,270 -8,270 -1,0 -73,-1 -160,-3 l -158,-4 2,-284 c 1,-157 0,-286 -2,-288 -2,-2 -61,-11 -130,-20 -69,-9 -135,-18 -147,-21 -21,-4 -22,-1 -22,93 0,53 -3,391 -7,750 -5,550 -3,652 8,652 8,-1 75,-11 149,-24 z m 6013,-140 c 2,-58 0,-110 -3,-115 -6,-9 -166,-28 -300,-36 -172,-10 -271,-22 -283,-34 -8,-8 -13,-55 -15,-130 -5,-158 -13,-151 181,-151 283,-1 315,-7 371,-67 49,-52 56,-97 56,-343 0,-300 -12,-341 -122,-404 -62,-36 -146,-42 -318,-22 -74,8 -198,22 -275,31 -77,9 -146,18 -152,20 -10,3 -13,37 -13,125 v 120 l 48,-4 c 267,-23 512,-38 533,-33 35,9 49,45 49,131 0,98 -8,134 -33,148 -12,6 -88,12 -177,14 -323,7 -369,16 -405,76 -19,31 -20,51 -20,298 v 265 l 30,60 c 45,89 74,101 299,120 98,8 194,17 215,20 20,2 79,7 131,10 52,4 115,10 140,14 25,4 49,4 53,1 4,-4 9,-55 10,-114 z m -1073,-95 v -109 l -82,-6 c -46,-3 -146,-9 -223,-13 l -140,-8 -3,-117 -3,-118 h 166 166 l -3,-132 -3,-132 h -160 l -160,-1 -3,-107 -3,-106 48,-6 c 26,-3 75,-8 108,-11 207,-17 291,-27 297,-33 9,-9 13,-231 4,-239 -3,-3 -94,4 -203,16 -109,13 -232,25 -273,27 -82,5 -253,23 -257,27 -1,2 -3,254 -3,562 -1,451 1,560 12,566 7,5 45,9 83,9 39,0 116,5 173,10 56,5 160,12 230,16 70,4 129,8 131,10 2,2 26,4 53,4 h 48 z m -3540,68 c 162,-11 298,-23 302,-25 14,-9 10,-204 -4,-205 -16,-2 12,-2 -235,6 l -213,7 v -101 c 0,-120 -18,-110 195,-114 l 150,-2 V 835 715 l -145,-6 c -80,-4 -156,-7 -170,-8 l -25,-1 -1,-111 V 478 l 130,7 c 72,4 172,10 221,15 50,4 93,6 97,4 3,-2 7,-56 7,-119 1,-85 -2,-117 -11,-120 -7,-2 -116,-11 -243,-20 -227,-15 -254,-17 -407,-31 l -78,-6 v 606 606 l 68,-5 c 37,-3 200,-15 362,-26 z m 2627,-576 3,-553 h -135 c -122,0 -135,2 -136,18 -1,28 2,257 6,400 2,90 0,132 -7,130 -6,-2 -29,-35 -51,-73 -99,-175 -191,-344 -208,-382 -22,-52 -45,-55 -64,-9 -8,19 -44,96 -80,172 -36,76 -75,159 -87,186 -11,26 -25,48 -30,48 -5,0 -8,-96 -8,-225 1,-123 -1,-229 -4,-234 -3,-5 -60,-9 -126,-10 l -120,-1 -1,418 c 0,229 -2,463 -3,520 -1,61 3,106 9,111 5,4 69,9 140,10 l 131,2 21,-43 c 12,-24 30,-65 41,-93 11,-27 41,-94 66,-148 25,-53 46,-101 46,-105 0,-17 41,-92 50,-92 5,0 22,26 38,58 16,31 39,75 52,97 151,270 180,323 180,332 0,18 26,21 155,19 l 120,-1 z m -1612,521 c 194,-7 243,-22 321,-99 72,-71 94,-124 94,-229 0,-53 -6,-84 -24,-121 -24,-52 -105,-140 -137,-150 -25,-8 -24,-24 6,-89 14,-30 25,-58 25,-61 0,-3 9,-25 19,-48 36,-80 91,-221 91,-234 0,-11 -28,-13 -136,-11 l -135,3 -62,157 c -35,86 -68,162 -74,170 -8,10 -37,12 -117,10 l -106,-3 V 459 c 0,-126 -3,-171 -12,-174 -19,-7 -237,-12 -246,-5 -4,3 -6,245 -4,539 l 2,534 178,-7 c 97,-4 240,-9 317,-12 z" />
    <path
       inkscape:connector-curvature="0"
       id="path816"
       d="m 2439,1126 c -5,-6 -9,-72 -9,-148 V 840 l 128,1 c 125,1 167,8 208,39 53,40 68,106 40,175 -24,56 -61,69 -219,75 -81,3 -142,1 -148,-4 z" />
  </g>
  <g
     transform="matrix(0.12061379,0,0,-0.12061379,0,432.72184)"
     id="g824"
     style="fill:#96c8a2;stroke:none">
    <path
       d="M 0,835 V 0 h 3185 3185 v 835 835 H 3185 0 Z m 250,721 135,-23 6,-264 c 4,-145 7,-265 8,-266 0,-2 73,-3 161,-3 h 160 v 240 241 l 33,-5 c 17,-3 77,-11 132,-17 55,-6 101,-12 102,-13 2,-2 6,-284 9,-628 l 7,-626 -39,-5 C 853,170 739,158 735,161 c -2,3 -7,126 -10,274 -3,148 -7,270 -8,270 -1,0 -73,-1 -160,-3 l -158,-4 2,-284 c 1,-157 0,-286 -2,-288 -2,-2 -61,-11 -130,-20 -69,-9 -135,-18 -147,-21 -21,-4 -22,-1 -22,93 0,53 -3,391 -7,750 -5,550 -3,652 8,652 8,-1 75,-11 149,-24 z m 6013,-140 c 2,-58 0,-110 -3,-115 -6,-9 -166,-28 -300,-36 -172,-10 -271,-22 -283,-34 -8,-8 -13,-55 -15,-130 -5,-158 -13,-151 181,-151 283,-1 315,-7 371,-67 49,-52 56,-97 56,-343 0,-300 -12,-341 -122,-404 -62,-36 -146,-42 -318,-22 -74,8 -198,22 -275,31 -77,9 -146,18 -152,20 -10,3 -13,37 -13,125 v 120 l 48,-4 c 267,-23 512,-38 533,-33 35,9 49,45 49,131 0,98 -8,134 -33,148 -12,6 -88,12 -177,14 -323,7 -369,16 -405,76 -19,31 -20,51 -20,298 v 265 l 30,60 c 45,89 74,101 299,120 98,8 194,17 215,20 20,2 79,7 131,10 52,4 115,10 140,14 25,4 49,4 53,1 4,-4 9,-55 10,-114 z m -1073,-95 v -109 l -82,-6 c -46,-3 -146,-9 -223,-13 l -140,-8 -3,-117 -3,-118 h 166 166 l -3,-132 -3,-132 h -160 l -160,-1 -3,-107 -3,-106 48,-6 c 26,-3 75,-8 108,-11 207,-17 291,-27 297,-33 9,-9 13,-231 4,-239 -3,-3 -94,4 -203,16 -109,13 -232,25 -273,27 -82,5 -253,23 -257,27 -1,2 -3,254 -3,562 -1,451 1,560 12,566 7,5 45,9 83,9 39,0 116,5 173,10 56,5 160,12 230,16 70,4 129,8 131,10 2,2 26,4 53,4 h 48 z m -3540,68 c 162,-11 298,-23 302,-25 14,-9 10,-204 -4,-205 -16,-2 12,-2 -235,6 l -213,7 v -101 c 0,-120 -18,-110 195,-114 l 150,-2 V 835 715 l -145,-6 c -80,-4 -156,-7 -170,-8 l -25,-1 -1,-111 V 478 l 130,7 c 72,4 172,10 221,15 50,4 93,6 97,4 3,-2 7,-56 7,-119 1,-85 -2,-117 -11,-120 -7,-2 -116,-11 -243,-20 -227,-15 -254,-17 -407,-31 l -78,-6 v 606 606 l 68,-5 c 37,-3 200,-15 362,-26 z m 2627,-576 3,-553 h -135 c -122,0 -135,2 -136,18 -1,28 2,257 6,400 2,90 0,132 -7,130 -6,-2 -29,-35 -51,-73 -99,-175 -191,-344 -208,-382 -22,-52 -45,-55 -64,-9 -8,19 -44,96 -80,172 -36,76 -75,159 -87,186 -11,26 -25,48 -30,48 -5,0 -8,-96 -8,-225 1,-123 -1,-229 -4,-234 -3,-5 -60,-9 -126,-10 l -120,-1 -1,418 c 0,229 -2,463 -3,520 -1,61 3,106 9,111 5,4 69,9 140,10 l 131,2 21,-43 c 12,-24 30,-65 41,-93 11,-27 41,-94 66,-148 25,-53 46,-101 46,-105 0,-17 41,-92 50,-92 5,0 22,26 38,58 16,31 39,75 52,97 151,270 180,323 180,332 0,18 26,21 155,19 l 120,-1 z m -1612,521 c 194,-7 243,-22 321,-99 72,-71 94,-124 94,-229 0,-53 -6,-84 -24,-121 -24,-52 -105,-140 -137,-150 -25,-8 -24,-24 6,-89 14,-30 25,-58 25,-61 0,-3 9,-25 19,-48 36,-80 91,-221 91,-234 0,-11 -28,-13 -136,-11 l -135,3 -62,157 c -35,86 -68,162 -74,170 -8,10 -37,12 -117,10 l -106,-3 V 459 c 0,-126 -3,-171 -12,-174 -19,-7 -237,-12 -246,-5 -4,3 -6,245 -4,539 l 2,534 178,-7 c 97,-4 240,-9 317,-12 z"
       id="path820"
       inkscape:connector-curvature="0" />
    <path
       d="m 2439,1126 c -5,-6 -9,-72 -9,-148 V 840 l 128,1 c 125,1 167,8 208,39 53,40 68,106 40,175 -24,56 -61,69 -219,75 -81,3 -142,1 -148,-4 z"
       id="path822"
       inkscape:connector-curvature="0" />
  </g>
  <g
     style="fill:#96c8a2;stroke:none"
     id="g830"
     transform="matrix(0.12061379,0,0,-0.12061379,0,432.72184)">
    <path
       inkscape:connector-curvature="0"
       id="path826"
       d="M 0,835 V 0 h 3185 3185 v 835 835 H 3185 0 Z m 250,721 135,-23 6,-264 c 4,-145 7,-265 8,-266 0,-2 73,-3 161,-3 h 160 v 240 241 l 33,-5 c 17,-3 77,-11 132,-17 55,-6 101,-12 102,-13 2,-2 6,-284 9,-628 l 7,-626 -39,-5 C 853,170 739,158 735,161 c -2,3 -7,126 -10,274 -3,148 -7,270 -8,270 -1,0 -73,-1 -160,-3 l -158,-4 2,-284 c 1,-157 0,-286 -2,-288 -2,-2 -61,-11 -130,-20 -69,-9 -135,-18 -147,-21 -21,-4 -22,-1 -22,93 0,53 -3,391 -7,750 -5,550 -3,652 8,652 8,-1 75,-11 149,-24 z m 6013,-140 c 2,-58 0,-110 -3,-115 -6,-9 -166,-28 -300,-36 -172,-10 -271,-22 -283,-34 -8,-8 -13,-55 -15,-130 -5,-158 -13,-151 181,-151 283,-1 315,-7 371,-67 49,-52 56,-97 56,-343 0,-300 -12,-341 -122,-404 -62,-36 -146,-42 -318,-22 -74,8 -198,22 -275,31 -77,9 -146,18 -152,20 -10,3 -13,37 -13,125 v 120 l 48,-4 c 267,-23 512,-38 533,-33 35,9 49,45 49,131 0,98 -8,134 -33,148 -12,6 -88,12 -177,14 -323,7 -369,16 -405,76 -19,31 -20,51 -20,298 v 265 l 30,60 c 45,89 74,101 299,120 98,8 194,17 215,20 20,2 79,7 131,10 52,4 115,10 140,14 25,4 49,4 53,1 4,-4 9,-55 10,-114 z m -1073,-95 v -109 l -82,-6 c -46,-3 -146,-9 -223,-13 l -140,-8 -3,-117 -3,-118 h 166 166 l -3,-132 -3,-132 h -160 l -160,-1 -3,-107 -3,-106 48,-6 c 26,-3 75,-8 108,-11 207,-17 291,-27 297,-33 9,-9 13,-231 4,-239 -3,-3 -94,4 -203,16 -109,13 -232,25 -273,27 -82,5 -253,23 -257,27 -1,2 -3,254 -3,562 -1,451 1,560 12,566 7,5 45,9 83,9 39,0 116,5 173,10 56,5 160,12 230,16 70,4 129,8 131,10 2,2 26,4 53,4 h 48 z m -3540,68 c 162,-11 298,-23 302,-25 14,-9 10,-204 -4,-205 -16,-2 12,-2 -235,6 l -213,7 v -101 c 0,-120 -18,-110 195,-114 l 150,-2 V 835 715 l -145,-6 c -80,-4 -156,-7 -170,-8 l -25,-1 -1,-111 V 478 l 130,7 c 72,4 172,10 221,15 50,4 93,6 97,4 3,-2 7,-56 7,-119 1,-85 -2,-117 -11,-120 -7,-2 -116,-11 -243,-20 -227,-15 -254,-17 -407,-31 l -78,-6 v 606 606 l 68,-5 c 37,-3 200,-15 362,-26 z m 2627,-576 3,-553 h -135 c -122,0 -135,2 -136,18 -1,28 2,257 6,400 2,90 0,132 -7,130 -6,-2 -29,-35 -51,-73 -99,-175 -191,-344 -208,-382 -22,-52 -45,-55 -64,-9 -8,19 -44,96 -80,172 -36,76 -75,159 -87,186 -11,26 -25,48 -30,48 -5,0 -8,-96 -8,-225 1,-123 -1,-229 -4,-234 -3,-5 -60,-9 -126,-10 l -120,-1 -1,418 c 0,229 -2,463 -3,520 -1,61 3,106 9,111 5,4 69,9 140,10 l 131,2 21,-43 c 12,-24 30,-65 41,-93 11,-27 41,-94 66,-148 25,-53 46,-101 46,-105 0,-17 41,-92 50,-92 5,0 22,26 38,58 16,31 39,75 52,97 151,270 180,323 180,332 0,18 26,21 155,19 l 120,-1 z m -1612,521 c 194,-7 243,-22 321,-99 72,-71 94,-124 94,-229 0,-53 -6,-84 -24,-121 -24,-52 -105,-140 -137,-150 -25,-8 -24,-24 6,-89 14,-30 25,-58 25,-61 0,-3 9,-25 19,-48 36,-80 91,-221 91,-234 0,-11 -28,-13 -136,-11 l -135,3 -62,157 c -35,86 -68,162 -74,170 -8,10 -37,12 -117,10 l -106,-3 V 459 c 0,-126 -3,-171 -12,-174 -19,-7 -237,-12 -246,-5 -4,3 -6,245 -4,539 l 2,534 178,-7 c 97,-4 240,-9 317,-12 z" />
    <path
       inkscape:connector-curvature="0"
       id="path828"
       d="m 2439,1126 c -5,-6 -9,-72 -9,-148 V 840 l 128,1 c 125,1 167,8 208,39 53,40 68,106 40,175 -24,56 -61,69 -219,75 -81,3 -142,1 -148,-4 z" />
  </g>
  <g
     transform="matrix(0.12061379,0,0,-0.12061379,0,432.72184)"
     id="g836"
     style="fill:#96c8a2;stroke:none">
    <path
       d="M 0,835 V 0 h 3185 3185 v 835 835 H 3185 0 Z m 250,721 135,-23 6,-264 c 4,-145 7,-265 8,-266 0,-2 73,-3 161,-3 h 160 v 240 241 l 33,-5 c 17,-3 77,-11 132,-17 55,-6 101,-12 102,-13 2,-2 6,-284 9,-628 l 7,-626 -39,-5 C 853,170 739,158 735,161 c -2,3 -7,126 -10,274 -3,148 -7,270 -8,270 -1,0 -73,-1 -160,-3 l -158,-4 2,-284 c 1,-157 0,-286 -2,-288 -2,-2 -61,-11 -130,-20 -69,-9 -135,-18 -147,-21 -21,-4 -22,-1 -22,93 0,53 -3,391 -7,750 -5,550 -3,652 8,652 8,-1 75,-11 149,-24 z m 6013,-140 c 2,-58 0,-110 -3,-115 -6,-9 -166,-28 -300,-36 -172,-10 -271,-22 -283,-34 -8,-8 -13,-55 -15,-130 -5,-158 -13,-151 181,-151 283,-1 315,-7 371,-67 49,-52 56,-97 56,-343 0,-300 -12,-341 -122,-404 -62,-36 -146,-42 -318,-22 -74,8 -198,22 -275,31 -77,9 -146,18 -152,20 -10,3 -13,37 -13,125 v 120 l 48,-4 c 267,-23 512,-38 533,-33 35,9 49,45 49,131 0,98 -8,134 -33,148 -12,6 -88,12 -177,14 -323,7 -369,16 -405,76 -19,31 -20,51 -20,298 v 265 l 30,60 c 45,89 74,101 299,120 98,8 194,17 215,20 20,2 79,7 131,10 52,4 115,10 140,14 25,4 49,4 53,1 4,-4 9,-55 10,-114 z m -1073,-95 v -109 l -82,-6 c -46,-3 -146,-9 -223,-13 l -140,-8 -3,-117 -3,-118 h 166 166 l -3,-132 -3,-132 h -160 l -160,-1 -3,-107 -3,-106 48,-6 c 26,-3 75,-8 108,-11 207,-17 291,-27 297,-33 9,-9 13,-231 4,-239 -3,-3 -94,4 -203,16 -109,13 -232,25 -273,27 -82,5 -253,23 -257,27 -1,2 -3,254 -3,562 -1,451 1,560 12,566 7,5 45,9 83,9 39,0 116,5 173,10 56,5 160,12 230,16 70,4 129,8 131,10 2,2 26,4 53,4 h 48 z m -3540,68 c 162,-11 298,-23 302,-25 14,-9 10,-204 -4,-205 -16,-2 12,-2 -235,6 l -213,7 v -101 c 0,-120 -18,-110 195,-114 l 150,-2 V 835 715 l -145,-6 c -80,-4 -156,-7 -170,-8 l -25,-1 -1,-111 V 478 l 130,7 c 72,4 172,10 221,15 50,4 93,6 97,4 3,-2 7,-56 7,-119 1,-85 -2,-117 -11,-120 -7,-2 -116,-11 -243,-20 -227,-15 -254,-17 -407,-31 l -78,-6 v 606 606 l 68,-5 c 37,-3 200,-15 362,-26 z m 2627,-576 3,-553 h -135 c -122,0 -135,2 -136,18 -1,28 2,257 6,400 2,90 0,132 -7,130 -6,-2 -29,-35 -51,-73 -99,-175 -191,-344 -208,-382 -22,-52 -45,-55 -64,-9 -8,19 -44,96 -80,172 -36,76 -75,159 -87,186 -11,26 -25,48 -30,48 -5,0 -8,-96 -8,-225 1,-123 -1,-229 -4,-234 -3,-5 -60,-9 -126,-10 l -120,-1 -1,418 c 0,229 -2,463 -3,520 -1,61 3,106 9,111 5,4 69,9 140,10 l 131,2 21,-43 c 12,-24 30,-65 41,-93 11,-27 41,-94 66,-148 25,-53 46,-101 46,-105 0,-17 41,-92 50,-92 5,0 22,26 38,58 16,31 39,75 52,97 151,270 180,323 180,332 0,18 26,21 155,19 l 120,-1 z m -1612,521 c 194,-7 243,-22 321,-99 72,-71 94,-124 94,-229 0,-53 -6,-84 -24,-121 -24,-52 -105,-140 -137,-150 -25,-8 -24,-24 6,-89 14,-30 25,-58 25,-61 0,-3 9,-25 19,-48 36,-80 91,-221 91,-234 0,-11 -28,-13 -136,-11 l -135,3 -62,157 c -35,86 -68,162 -74,170 -8,10 -37,12 -117,10 l -106,-3 V 459 c 0,-126 -3,-171 -12,-174 -19,-7 -237,-12 -246,-5 -4,3 -6,245 -4,539 l 2,534 178,-7 c 97,-4 240,-9 317,-12 z"
       id="path832"
       inkscape:connector-curvature="0" />
    <path
       d="m 2439,1126 c -5,-6 -9,-72 -9,-148 V 840 l 128,1 c 125,1 167,8 208,39 53,40 68,106 40,175 -24,56 -61,69 -219,75 -81,3 -142,1 -148,-4 z"
       id="path834"
       inkscape:connector-curvature="0" />
  </g>
  <rect
     style="fill:#96c8a2;stroke-width:0.69679028"
     id="rect900"
     width="770.83069"
     height="233.76669"
     x="0"
     y="0" />
  <g
     id="g879"
     transform="matrix(0.74956701,0,0,0.74956701,-302.06808,235.2471)">
    <g
       id="g873">
      <rect
         y="-312.19559"
         x="740.88593"
         height="349.99997"
         width="349.99997"
         id="rect857"
         style="fill:#96c8a2;stroke-width:2.86369443" />
    </g>
    <g
       transform="matrix(0.09999999,0,0,-0.09999999,740.88591,37.804397)"
       id="g861"
       style="fill:#ffffff;stroke:none">
      <path
         d="m 1575,3494 c -98,-11 -268,-48 -374,-83 C 592,3211 139,2685 24,2045 11,1973 6,1893 6,1755 5,1556 13,1492 57,1315 208,706 706,208 1315,57 1487,14 1557,6 1750,6 c 193,0 263,8 435,51 563,140 1039,582 1224,1138 332,999 -279,2055 -1313,2271 -97,20 -157,26 -301,28 -99,2 -198,2 -220,0 z m 85,-559 c 0,-322 -1,-345 -17,-345 -41,0 -204,21 -278,36 -93,19 -247,62 -257,73 -11,10 52,138 116,236 98,150 241,280 361,328 81,32 75,59 75,-328 z m 308,303 c 91,-45 217,-167 297,-287 71,-107 139,-241 127,-252 -11,-11 -169,-56 -257,-73 -75,-15 -238,-36 -277,-36 -17,0 -18,23 -18,346 v 347 l 31,-7 c 17,-3 61,-20 97,-38 z m -781,-50 c -68,-80 -157,-216 -207,-317 l -50,-101 -33,16 c -34,18 -149,93 -181,118 -18,15 -17,16 14,43 113,96 256,186 390,245 47,20 89,37 94,37 5,1 -8,-18 -27,-41 z m 1164,16 c 94,-39 154,-70 249,-132 89,-57 198,-142 199,-154 1,-8 -147,-107 -196,-132 l -33,-16 -41,85 c -42,89 -151,258 -215,333 -20,23 -35,42 -32,42 2,0 33,-12 69,-26 z m -1585,-545 101,-60 -24,-82 c -45,-154 -73,-316 -99,-560 -5,-53 -7,-57 -27,-52 -53,15 -310,149 -394,205 l -92,61 30,87 c 60,172 171,370 274,490 l 37,42 46,-35 c 26,-20 92,-63 148,-96 z m 2264,2 c 34,-47 82,-122 106,-168 47,-85 124,-279 124,-310 0,-33 -245,-181 -420,-253 -40,-16 -74,-30 -76,-30 -1,0 -5,26 -9,58 -19,187 -29,259 -51,367 -13,66 -35,155 -48,197 l -24,77 82,46 c 44,25 110,68 146,94 l 65,48 22,-20 c 12,-11 50,-58 83,-106 z M 1145,2497 c 126,-36 294,-67 411,-75 l 99,-7 3,-347 2,-348 h -27 c -57,1 -321,30 -408,45 -49,9 -138,28 -197,42 l -108,26 v 54 c 0,176 92,652 124,640 6,-2 52,-16 101,-30 z m 1345,-49 c 53,-196 96,-469 88,-568 l -3,-45 -65,-17 c -162,-44 -375,-78 -578,-93 l -92,-7 2,348 3,349 55,3 c 137,6 364,49 510,96 25,8 48,14 51,15 4,1 17,-36 29,-81 z M 257,1941 c 88,-58 256,-144 374,-191 l 106,-43 6,-136 c 7,-142 34,-347 61,-465 9,-38 15,-70 13,-72 -6,-6 -255,98 -327,138 -41,22 -116,68 -167,102 l -92,60 -15,71 c -27,120 -36,205 -36,340 0,117 8,235 16,235 1,0 29,-17 61,-39 z m 3058,-27 c 18,-165 -13,-513 -50,-571 -34,-52 -335,-219 -519,-287 l -68,-26 6,23 c 35,125 76,441 76,583 v 70 l 88,34 c 111,43 310,144 387,197 33,23 63,42 67,42 3,1 10,-29 13,-65 z M 1075,1616 c 138,-31 312,-55 463,-64 l 117,-7 3,-330 2,-330 -57,3 c -164,7 -377,35 -514,68 l -66,16 -32,126 c -39,158 -59,293 -68,441 l -6,114 24,-6 c 13,-4 74,-18 134,-31 z m 1507,-37 c -4,-86 -30,-288 -48,-374 -32,-155 -56,-226 -78,-236 -66,-28 -417,-79 -543,-79 h -73 l 2,328 3,327 123,7 c 143,8 354,38 497,72 55,13 105,22 110,21 6,-1 9,-29 7,-66 z M 571,938 c 41,-17 127,-50 193,-73 l 118,-40 32,-80 c 67,-163 147,-306 234,-412 19,-24 29,-43 22,-43 -7,0 -57,22 -111,49 -232,115 -422,273 -576,481 -45,60 -133,205 -133,219 0,5 33,-9 73,-30 41,-21 107,-53 148,-71 z m 2579,97 c 0,-2 -21,-39 -46,-82 -156,-265 -378,-472 -662,-614 -53,-27 -103,-49 -111,-49 -8,0 0,17 21,43 87,106 167,249 233,411 l 32,79 137,48 c 76,26 192,75 259,107 121,60 137,66 137,57 z M 1227,750 c 65,-11 189,-25 276,-32 l 157,-12 V 447 188 l -27,6 c -111,26 -264,142 -361,274 -73,99 -185,302 -167,302 2,0 57,-9 122,-20 z m 1158,-17 c -87,-207 -269,-425 -415,-496 -41,-20 -87,-39 -102,-43 l -28,-6 v 259 259 l 163,13 c 89,6 207,20 262,30 147,27 138,28 120,-16 z"
         id="path859"
         inkscape:connector-curvature="0" />
    </g>
  </g>
</svg>
