<?xml version="1.0" encoding="UTF-8" standalone="no"?>
<svg
   width="576pt"
   height="576pt"
   viewBox="-304 -304 768 768"
   version="1.1"
   id="svg226"
   sodipodi:docname="hermeslogo-icon.svg"
   inkscape:version="1.2.2 (b0a84865, 2022-12-01)"
   xmlns:inkscape="http://www.inkscape.org/namespaces/inkscape"
   xmlns:sodipodi="http://sodipodi.sourceforge.net/DTD/sodipodi-0.dtd"
   xmlns:xlink="http://www.w3.org/1999/xlink"
   xmlns="http://www.w3.org/2000/svg"
   xmlns:svg="http://www.w3.org/2000/svg"
   xmlns:rdf="http://www.w3.org/1999/02/22-rdf-syntax-ns#"
   xmlns:cc="http://creativecommons.org/ns#"
   xmlns:dc="http://purl.org/dc/elements/1.1/">
  <defs
     id="defs230">
    <rect
       x="-11.915994"
       y="17.332354"
       width="878.53371"
       height="174.40682"
       id="rect71227" />
  </defs>
  <sodipodi:namedview
     id="namedview228"
     pagecolor="#ffffff"
     bordercolor="#000000"
     borderopacity="0.25"
     inkscape:showpageshadow="2"
     inkscape:pageopacity="0.0"
     inkscape:pagecheckerboard="0"
     inkscape:deskcolor="#d1d1d1"
     showgrid="false"
     inkscape:zoom="1.1269963"
     inkscape:cx="338.95409"
     inkscape:cy="308.34174"
     inkscape:window-width="1309"
     inkscape:window-height="811"
     inkscape:window-x="201"
     inkscape:window-y="84"
     inkscape:window-maximized="0"
     inkscape:current-layer="g699"
     inkscape:document-units="pt" />
  <title
     id="title222">Squircle: x to 4th plus y to 4th equals radius to 4th</title>
  <metadata
     id="metadata349">
    <rdf:RDF>
      <cc:Work
         rdf:about="">
        <dc:title>Squircle: x to 4th plus y to 4th equals radius to 4th</dc:title>
      </cc:Work>
    </rdf:RDF>
  </metadata>
  <g
     id="g699"
     transform="matrix(1.3333333,0,0,1,101.33333,0)"
     style="stroke-width:0.866025">
    <path
       fill="none"
       stroke="#000000"
       stroke-width="3.49874"
       d="m -16.000009,463.99998 c 126.199999,0 196.356299,0 242.178199,-61.09573 45.8218,-61.09587 45.8218,-154.6376 45.8218,-322.904267 0,-168.266663 0,-261.808393 -45.8218,-322.904253 C 180.35629,-304 110.19999,-304 -16.000009,-304 c -126.200001,0 -196.356301,0 -242.178201,61.09573 -45.8218,61.09586 -45.8218,154.63759 -45.8218,322.904253 0,168.266667 0,261.808397 45.8218,322.904267 45.8219,61.09573 115.9782,61.09573 242.178201,61.09573 z"
       id="path224"
       style="fill:#81d8d0;fill-opacity:1;stroke:none;stroke-width:0.866025" />
    <g
       id="g71401"
       transform="matrix(0.37764598,0,0,0.37764598,-9.957663,-18.020228)"
       style="stroke-width:2.29322">
      <ellipse
         style="fill:#ffff00;fill-opacity:0;stroke-width:3.05762"
         id="path71290"
         cx="80"
         cy="15.999998"
         rx="322.66666"
         ry="242.00002"
         transform="rotate(90)" />
      <text
         xml:space="preserve"
         id="text71225"
         style="font-style:normal;font-variant:normal;font-weight:normal;font-stretch:normal;font-size:67.26779445px;line-height:0;font-family:Skia;-inkscape-font-specification:'Skia, @wght=2.00,wdth=0.75';font-variant-ligatures:discretionary-ligatures;font-variant-caps:normal;font-variant-numeric:oldstyle-nums;font-variation-settings:'wdth' 0.75, 'wght' 2;text-align:center;letter-spacing:0px;text-anchor:middle;white-space:pre;fill:#586e75;fill-opacity:1;stroke:#fdf6e3;stroke-width:3.05762701;stroke-linecap:round;stroke-linejoin:round;stroke-dasharray:none;stroke-opacity:1"><textPath
           xlink:href="#path71290"
           startOffset="50%"
           id="textPath71292"
           style="font-style:normal;font-variant:normal;font-weight:normal;font-stretch:normal;font-family:Skia;-inkscape-font-specification:'Skia, @wght=2.00,wdth=0.75';font-variant-ligatures:discretionary-ligatures;font-variant-caps:normal;font-variant-numeric:oldstyle-nums;font-variation-settings:'wght' 2, 'wdth' 0.75;text-align:center;text-anchor:middle;fill:#586e75;fill-opacity:1;stroke:#fdf6e3;stroke-width:3.05762701;stroke-linecap:round;stroke-linejoin:round;stroke-dasharray:none;stroke-opacity:1;font-size:67.26779445px">speeds the world's business</textPath></text>
    </g>
    <g
       id="g74420"
       transform="matrix(0.37764598,0,0,0.37764598,-341.83784,-18.020228)"
       style="stroke-width:2.29322" />
    <g
       id="g74428"
       style="stroke-width:16.05253835;fill:#586e75;fill-opacity:1;stroke:#fdf6e3;stroke-opacity:1;stroke-dasharray:none;stroke-linejoin:round;stroke-linecap:round"
       transform="matrix(0.21579775,0,0,0.21579775,-12.547234,49.648047)">
      <path
         style="fill:#586e75;fill-opacity:1;stroke:#fdf6e3;stroke-width:16.05253835;stroke-opacity:1;stroke-dasharray:none;stroke-linejoin:round;stroke-linecap:round"
         d="m -127.26643,427.14771 c 41.897443,2.01568 52.479774,6.33501 69.325141,28.50754 15.549558,20.44478 20.300806,35.7064 20.300806,65.94165 0,15.26162 -1.295792,24.18822 -5.183185,34.84255 -5.183185,14.97364 -22.676448,40.31367 -29.587363,43.19321 -5.399145,2.30362 -5.183186,6.91093 1.295809,25.62798 3.023521,8.63866 5.399147,16.70139 5.399147,17.56524 0,0.86386 1.943687,7.19889 4.103352,13.82183 7.774787,23.0364 19.652928,63.63803 19.652928,67.38144 0,3.1675 -6.047058,3.74342 -29.371404,3.1675 l -29.155421,-0.86387 -13.3899,-45.2089 c -7.55883,-24.76411 -14.6857,-46.6487 -15.98151,-48.95232 -1.72773,-2.87956 -7.99075,-3.45546 -25.26803,-2.87956 l -22.89241,0.86389 v 48.95231 c 0,36.28231 -0.64789,49.24028 -2.5916,50.10414 -4.10335,2.01569 -51.18395,3.45547 -53.12766,1.43977 -0.86385,-0.86385 -1.29579,-70.54892 -0.86385,-155.20765 l 0.43191,-153.7679 38.44198,2.01571 c 20.94872,1.15179 51.83187,2.59158 68.46126,3.45544 z"
         id="path65608" />
      <path
         style="fill:#586e75;fill-opacity:1;stroke:#fdf6e3;stroke-width:16.05253835;stroke-opacity:1;stroke-dasharray:none;stroke-linejoin:round;stroke-linecap:round"
         d="m 220.87099,577.17219 0.6479,159.239 h -29.15543 c -26.34786,0 -29.15542,-0.57588 -29.3714,-5.18316 -0.21596,-8.06275 0.43194,-74.0044 1.29581,-115.18194 0.43192,-25.91593 0,-38.01005 -1.51177,-37.43413 -1.29579,0.57591 -6.26302,10.07841 -11.01427,21.0207 -21.38065,50.39211 -41.24954,99.05647 -44.92096,109.99875 -4.75125,14.97366 -9.718471,15.83752 -13.821826,2.5916 -1.727728,-5.47116 -9.502515,-27.64367 -17.277303,-49.52824 -7.774769,-21.88455 -16.197452,-45.78483 -18.789054,-53.5596 -2.375625,-7.48683 -5.399145,-13.82182 -6.478978,-13.82182 -1.079832,0 -1.727728,27.64365 -1.727728,64.78984 0.215959,35.41844 -0.215959,65.94165 -0.863873,67.38142 -0.647896,1.43979 -12.957956,2.59158 -27.211721,2.87956 l -25.9159458,0.28794 -0.2159593,-120.36512 c 0,-65.94164 -0.4319366,-133.32308 -0.6478959,-149.73653 -0.2159772,-17.56524 0.6478959,-30.5232 1.9436877,-31.96298 1.0798325,-1.1518 14.9016613,-2.59159 30.2352593,-2.87953 l 28.29157,-0.57591 4.53529,12.38205 c 2.591584,6.91092 6.478977,18.71708 8.854602,26.77978 2.375625,7.77481 8.854621,27.06778 14.253765,42.61732 5.399163,15.26161 9.934452,29.08346 9.934452,30.23527 0,4.89525 8.854598,26.49184 10.798308,26.49184 1.07983,0 4.75125,-7.48683 8.20671,-16.70137 3.45545,-8.92661 8.42268,-21.59661 11.23024,-27.93163 32.61088,-77.74779 38.8739,-93.00941 38.8739,-95.60101 0,-5.18317 5.61513,-6.04702 33.47476,-5.47114 l 25.91593,0.28797 z"
         id="path65606" />
      <path
         style="fill:#586e75;fill-opacity:1;stroke:#fdf6e3;stroke-width:16.05253835;stroke-opacity:1;stroke-dasharray:none;stroke-linejoin:round;stroke-linecap:round"
         d="m -346.47206,411.31021 c 34.98652,3.1675 64.3579,6.62294 65.22177,7.19885 3.02352,2.59159 2.15967,58.74279 -0.86387,59.03076 -3.45546,0.57588 2.5916,0.57588 -50.75204,-1.72774 l -46.00079,-2.01567 v 29.08342 c 0,34.55461 -3.88737,31.67505 42.1134,32.82686 l 32.39492,0.57591 v 34.55459 34.55457 l -31.31509,1.72773 c -17.27728,1.15183 -33.69071,2.01568 -36.71423,2.30362 l -5.39916,0.28798 -0.21596,31.96298 v 31.96299 l 28.07559,-2.01569 c 15.54957,-1.15181 37.14617,-2.87956 47.72852,-4.31933 10.7983,-1.15181 20.08484,-1.72773 20.94871,-1.15181 0.6479,0.57591 1.51175,16.12547 1.51175,34.26662 0.21598,24.47616 -0.43191,33.69072 -2.37562,34.55459 -1.51175,0.5759 -25.05207,3.1675 -52.47977,5.75908 -49.0243,4.31933 -54.85538,4.89525 -87.8982,8.92662 l -16.84538,1.72771 V 576.88421 402.38361 l 14.68571,1.43977 c 7.99075,0.86386 43.19323,4.31931 78.17974,7.48683 z"
         id="path65604" />
      <path
         style="fill:#586e75;fill-opacity:1;stroke:#fdf6e3;stroke-width:16.05253835;stroke-opacity:1;stroke-dasharray:none;stroke-linejoin:round;stroke-linecap:round"
         d="m 418.04808,430.89112 v 31.38709 l -17.70922,1.72772 c -9.93446,0.86386 -31.53105,2.59159 -48.16046,3.74342 l -30.23525,2.30364 -0.6479,33.6907 -0.6479,33.97869 h 35.85038 35.85038 l -0.6479,38.01004 -0.64789,38.01002 h -34.55459 l -34.55458,0.28796 -0.6479,30.81117 -0.6479,30.52321 10.36637,1.72773 c 5.61513,0.86388 16.19747,2.30363 23.32435,3.16752 44.70499,4.89523 62.84613,7.77477 64.14194,9.5025 1.94369,2.59158 2.80756,66.51757 0.86386,68.82121 -0.6479,0.86386 -20.30081,-1.15183 -43.84113,-4.60727 -23.5403,-3.74341 -50.10414,-7.19889 -58.95874,-7.7748 -17.70922,-1.43977 -54.63945,-6.62294 -55.50332,-7.77477 -0.21596,-0.57592 -0.6479,-73.14053 -0.6479,-161.83063 -0.21595,-129.86764 0.21598,-161.25471 2.59161,-162.98242 1.51177,-1.43978 9.71847,-2.59162 17.92518,-2.59162 8.4227,0 25.05208,-1.43977 37.36216,-2.87954 12.0941,-1.43975 34.55459,-3.45545 49.6722,-4.60728 15.11764,-1.1518 27.85964,-2.30365 28.29157,-2.87953 0.43192,-0.57591 5.61512,-1.15183 11.44621,-1.15183 h 10.36637 z"
         id="path65602" />
      <path
         style="fill:#586e75;fill-opacity:1;stroke:#fdf6e3;stroke-width:16.05253835;stroke-opacity:1;stroke-dasharray:none;stroke-linejoin:round;stroke-linecap:round"
         d="m 649.77976,403.53541 c 0.43192,16.70138 0,31.67504 -0.64789,33.11481 -1.29581,2.59158 -35.8504,8.06274 -64.78986,10.36639 -37.14617,2.87952 -58.52683,6.335 -61.11841,9.79044 -1.72773,2.30364 -2.80756,15.83753 -3.2395,37.43414 -1.07983,45.49687 -2.80756,43.48119 39.08986,43.48119 61.11843,0.28794 68.02934,2.01568 80.12344,19.29297 10.58236,14.97365 12.09411,27.93161 12.09411,98.76851 0,86.38645 -2.59158,98.19261 -26.34788,116.33375 -13.38989,10.36637 -31.53104,12.0941 -68.67721,6.33502 -15.98149,-2.30365 -42.76129,-6.33502 -59.3907,-8.9266 -16.62939,-2.59159 -31.53105,-5.18321 -32.82684,-5.75912 -2.15966,-0.86386 -2.80756,-10.65433 -2.80756,-35.99434 V 693.218 l 10.36637,1.1518 c 57.66295,6.62297 110.57465,10.9423 115.10994,9.50253 7.55881,-2.59162 10.58235,-12.95797 10.58235,-37.7221 0,-28.21957 -1.72773,-38.58596 -7.12689,-42.61732 -2.59158,-1.72772 -19.00501,-3.45547 -38.226,-4.03135 -69.75705,-2.0157 -79.6915,-4.60729 -87.46629,-21.88457 -4.10337,-8.92662 -4.31933,-14.68572 -4.31933,-85.81056 v -76.30804 l 6.479,-17.27727 c 9.71847,-25.62798 15.98149,-29.08346 64.57388,-34.5546 21.16467,-2.30363 41.89741,-4.89521 46.4327,-5.75908 4.31933,-0.57592 17.06133,-2.01569 28.29157,-2.87954 11.23023,-1.15183 24.8361,-2.87956 30.23526,-4.03138 5.39916,-1.15183 10.58235,-1.15183 11.44622,-0.28795 0.86385,1.15183 1.94369,15.83751 2.15966,32.82684 z"
         id="path65600" />
      <path
         style="fill:#586e75;fill-opacity:1;stroke:#fdf6e3;stroke-width:16.05253835;stroke-opacity:1;stroke-dasharray:none;stroke-linejoin:round;stroke-linecap:round"
         d="m -648.82466,363.22174 29.15544,6.62295 1.2958,76.02009 c 0.86385,41.75345 1.51177,76.30802 1.72772,76.596 0,0.57591 15.76554,0.86385 34.77055,0.86385 h 34.55459 v -69.10917 -69.39711 l 7.12689,1.43979 c 3.67141,0.86385 16.62938,3.1675 28.50751,4.89521 11.87813,1.72773 21.81259,3.45547 22.02855,3.74341 0.43193,0.57592 1.29579,81.77919 1.94368,180.83566 l 1.51177,180.25972 -8.42268,1.43977 c -23.97224,4.89524 -48.59237,8.3507 -49.45623,7.48683 -0.43193,-0.86386 -1.51177,-36.28232 -2.15966,-78.89963 -0.6479,-42.61731 -1.51177,-77.74779 -1.72773,-77.74779 -0.21596,0 -15.76553,0.28794 -34.55459,0.86385 l -34.12265,1.15182 0.43194,81.77918 c 0.21596,45.20891 0,82.35507 -0.43194,82.93098 -0.43193,0.57592 -13.17393,3.1675 -28.07559,5.75912 -14.90167,2.59158 -29.15544,5.18318 -31.74702,6.04704 -4.53529,1.15181 -4.75127,0.28796 -4.75127,-26.7798 0,-15.26161 -0.64789,-112.59036 -1.51177,-215.96614 -1.07981,-158.37515 -0.64789,-187.74655 1.72775,-187.74655 1.72773,0.28796 16.19745,3.1675 32.17894,6.91092 z"
         id="path65598" />
    </g>
    <path
       style="fill:#81d8d0;fill-opacity:1;stroke:#fdf6e3;stroke-width:3.46410166;stroke-dasharray:none;stroke-opacity:1;stroke-linejoin:round;stroke-linecap:round"
       d="m -50.543775,154.75068 c -0.233025,0.37285 -0.419444,4.47409 -0.419444,9.19672 v 8.57533 l 5.965439,-0.0622 c 5.825629,-0.0621 7.78304,-0.49712 9.693842,-2.42346 2.470065,-2.48559 3.169142,-6.58684 1.8642,-10.8745 -1.118519,-3.47983 -2.842905,-4.28766 -10.206496,-4.66049 -3.775004,-0.18642 -6.617908,-0.0622 -6.897541,0.24855 z"
       id="path834" />
    <g
       id="g65384"
       transform="matrix(0.37764598,0,0,0.37764598,-9.5229429,-18.020228)"
       style="stroke-width:2.29322">
      <g
         id="g71478"
         style="stroke-width:2.29322">
        <path
           d="m 191.87141,143.08848 4.41653,45.01556 30.11637,-21.29824 c 26.96666,-19.09167 54.54806,0.0633 81.28485,18.61072 42.65773,29.62326 83.84891,58.21698 134.11341,-0.64376 l 10.41787,-12.17704 c 5.99719,0.85017 11.75228,1.20673 17.29475,1.04566 34.08176,-0.98074 59.34532,-19.54997 78.48315,-57.05663 l 16.07468,-31.486104 c 2.24689,-0.943319 4.46761,-1.908474 6.63596,-2.91738 39.40844,-18.305689 66.932,-50.927858 73.01992,-91.1858527 l 6.41161,-42.5390613 -32.25155,4.96221 c -29.38107,4.515006 -51.78266,6.739528 -69.56609,7.278387 -17.45432,0.497638 -30.99463,-0.549079 -42.753,-2.635607 l 0.0154,-0.108971 c -19.39978,-3.433713 -38.26218,-9.602376 -57.13768,-15.781949 -30.50366,-9.979732 -61.13664,-19.994521 -97.12847,-20.534905 -30.993,-0.474838 -60.28347,6.253943 -85.74251,22.716282 -23.91612,15.466005 -43.99512,39.139565 -58.41721,72.928174 -7.41757,17.353658 -12.50785,36.698203 -15.08418,58.140732 -2.4859,20.66762 -2.60023,43.192985 -0.20381,67.667915 z"
           id="path62391"
           style="fill:#fdf6e3;fill-opacity:1;stroke-width:1.98599" />
        <path
           d="m 215.29233,139.04197 c 79.92541,-56.557617 138.20738,107.12973 210.8788,22.04324 -28.7511,-11.18984 -44.11549,-35.21339 -56.78491,-55.70004 82.6202,49.7323 130.09799,50.26096 159.04805,-6.439811 -34.23546,0.609502 -56.93986,-17.172399 -77.14537,-35.541542 85.06792,16.957035 160.73253,-22.139358 169.25997,-78.657263 -59.38113,9.1451842 -92.47017,9.0592865 -118.09888,4.532917 -51.32288,-9.107391 -96.19111,-35.302916 -151.3986,-36.135288 -52.49774,-0.78198 -98.1919,20.781995 -123.39368,79.784872 -12.02712,28.182254 -16.59139,63.175893 -12.36538,106.112915 z"
           id="path61026"
           style="fill:#586e75;fill-opacity:1;stroke-width:1.98599" />
        <g
           id="g65359"
           transform="translate(-763.5,24.621627)"
           style="stroke-width:2.29322">
          <path
             d="m 537.32633,128.12801 -4.41653,45.01556 -30.11637,-21.29824 c -26.96666,-19.09167 -54.54806,0.0633 -81.28485,18.61072 -42.65773,29.62326 -83.84891,58.21698 -134.11341,-0.64376 L 276.9773,157.63525 c -5.99719,0.85017 -11.75228,1.20673 -17.29475,1.04566 -34.08176,-0.98074 -59.34532,-19.54997 -78.48315,-57.05663 L 165.12472,70.13818 C 162.87783,69.194861 160.65711,68.229706 158.48876,67.2208 119.08032,48.915111 91.556762,16.292942 85.468842,-23.965053 l -6.41161,-42.539061 32.251548,4.96221 c 29.38107,4.515006 51.78266,6.739528 69.56609,7.278387 17.45432,0.497638 30.99463,-0.549079 42.753,-2.635607 l -0.0154,-0.108971 c 19.39978,-3.433713 38.26218,-9.602376 57.13768,-15.781949 30.50366,-9.979732 61.13664,-19.994521 97.12847,-20.534905 30.993,-0.474838 60.28347,6.253943 85.74251,22.716282 23.91612,15.466005 43.99512,39.139565 58.41721,72.928174 7.41757,17.353658 12.50785,36.698203 15.08418,58.140732 2.4859,20.66762 2.60023,43.192981 0.20381,67.667911 z"
             id="path62391-5"
             style="fill:#fdf6e3;fill-opacity:1;stroke-width:1.98599" />
          <path
             d="M 513.90541,124.0815 C 433.98,67.523887 375.69803,231.21123 303.02661,146.12474 331.77771,134.9349 347.1421,110.91135 359.81152,90.424704 277.19132,140.157 229.71353,140.68566 200.76347,83.984893 234.99893,84.594395 257.70333,66.812494 277.90884,48.443351 192.84092,65.400386 117.17631,26.303993 108.64887,-30.213912 c 59.38113,9.145184 92.47017,9.059286 118.09888,4.532917 51.32288,-9.107391 96.19111,-35.302916 151.3986,-36.135288 52.49774,-0.78198 98.1919,20.781995 123.39368,79.784872 12.02712,28.182254 16.59139,63.175893 12.36538,106.112911 z"
             id="path61026-7"
             style="fill:#586e75;fill-opacity:1;stroke-width:1.98599" />
        </g>
        <path
           id="path25432"
           d="m -13.613897,-227.19047 c -89.759703,-1.19776 -175.583473,68.10875 -213.628663,184.772239 -50.7266,155.551341 2.75945,336.445741 119.42501,404.081301 116.6618633,67.63497 252.33429,-3.68176 303.06083,-159.23312 50.72654,-155.551291 -2.76416,-336.44642 -119.425007,-404.08131 -29.16566,-16.9089 -59.51227,-25.13989 -89.43217,-25.53911 z m -0.32566,41.89867 c 5.3537403,0.0715 10.7818903,0.52299 16.1551903,1.18154 -24.4986903,18.33929 -46.7502703,41.99276 -66.3242903,69.52809 -25.87697,-8.04693 -51.187273,-12.97844 -74.845133,-13.99649 35.45281,-37.0829 79.648363,-57.31848 125.014703,-56.71314 z m 56.30465,11.72434 c 2.67099,1.09823 5.31788,2.28706 7.97493,3.54454 l -29.92419,91.613639 c -18.8424597,-10.24926 -38.03639,-19.18214 -57.19069,-26.629719 23.24326,-29.66233 49.89688,-53.30054 79.13978,-68.52846 z m 33.53695,18.45001 c 2.53143,1.75423 5.04618,3.48132 7.49796,5.36228 12.31476,39.43038 18.072387,82.000979 17.995617,125.241609 -17.654027,-14.11628 -36.265767,-27.2295 -55.349707,-38.99033 z m 41.376077,38.26319 c 37.64776,45.307289 60.69415,108.0701894 64.96128,174.502089 -16.22402,-21.73642 -35.5277,-42.53281 -56.84951,-61.8028596 1.51702,-38.0013504 -1.04704,-76.0464104 -8.11177,-112.6992294 z m -265.70663,20.631169 c 20.43954,-0.0411 42.78606,3.34539 66.051593,9.63396 -15.499052,26.04033 -28.903663,54.61892 -39.808343,84.7063204 L -192.3268,-42.509081 c 7.53435,-19.32153 16.60011,-36.96249 26.99344,-52.71425 5.48035,-0.57454 11.0932,-0.98821 16.90485,-0.99976 z m 92.567953,17.90467 c 21.96408,7.75299 44.40312,17.80708 66.52862,29.81078 l -33.87771,103.97417 -76.549204,-44.35261 c 11.835924,-32.42065 26.638274,-62.66688 43.898174,-89.43234 z m 92.15906,44.62532 c 22.40183,13.83512 43.82881,29.4233004 63.59733,46.17035 -2.68962,35.08152 -8.90893,70.08868 -18.54048,103.610601 L 2.4203733,70.371929 Z M -203.506,-8.4267006 -133.29615,32.290509 c -8.19002,28.13558 -14.27989,57.36164 -18.13142,86.978331 -25.04454,-24.067681 -46.2636,-49.907671 -61.55321,-76.253761 1.82874,-17.26723 4.95589,-34.4655996 9.47478,-51.4417796 z M 122.66306,33.017559 c 23.93278,23.07453 44.26392,47.87248 59.3037,73.072781 -1.54964,20.91446 -4.95636,41.78823 -10.42924,62.34806 l -67.83936,-39.35381 c 8.97959,-30.965381 15.40176,-63.324051 18.9495,-96.067031 z m -233.60111,12.26967 76.549203,44.35261 -31.2196,95.885261 c -22.32647,-13.79245 -43.749333,-29.39342 -63.461493,-46.07943 3.23872,-31.84549 9.31601,-63.598821 18.13189,-94.158441 z m -103.88317,44.44354 c 16.80345,23.255481 37.18849,45.472371 59.84862,65.983541 -2.6617,41.18145 -0.74919,82.553 6.47567,122.15148 -40.50921,-48.2269 -64.31168,-116.60542 -66.32429,-188.135021 z M -8.7589367,104.54524 70.176033,150.26116 c -10.71299,29.23665 -23.98821,56.69185 -39.3309,81.34338 -23.3307297,-7.93443 -47.25234,-18.47713 -70.8232,-31.26492 z M 92.602613,163.2579 160.35826,202.52088 c -6.21325,15.93434 -13.48185,30.73587 -21.67645,44.26169 -24.21805,2.98372 -51.992367,0.26511 -81.388687,-7.27088 13.6214,-23.69989 25.51682,-49.31184 35.30949,-76.25379 z m -224.126333,12.45145 c 17.8937,14.36479 36.792001,27.68564 56.167853,39.62655 l -32.514643,99.79333 c -2.50357,-1.73498 -5.00379,-3.41247 -7.43007,-5.27143 -12.49782,-41.96809 -17.63288,-87.77119 -16.2229,-134.14845 z m 81.797773,54.53195 c 20.4162,11.10513 41.2922603,20.66056 62.03018,28.44744 -24.90776,32.91114 -54.17476,58.83885 -86.56937,74.89052 -2.69427,-1.10571 -5.36537,-2.27738 -8.04342,-3.54451 z m 89.22777,37.6269 c 25.94817,7.70405 51.28915,12.1306 74.845137,12.63331 -40.333737,46.53636 -93.648027,69.95902 -147.372397,63.80232 27.1464603,-19.72821 51.49672,-45.84743 72.52726,-76.43563 z"
           style="fill:#fdf6e3;fill-opacity:1;stroke-width:1.98598" />
        <g
           id="g30240"
           transform="matrix(0.91428566,0,0,0.91428572,-715.88514,-97.358047)"
           style="fill:#859900;fill-opacity:1;stroke-width:2.50821">
          <path
             style="fill:#859900;fill-opacity:1;stroke-width:2.17217"
             d="m 826.52272,399.48413 c 28.38087,8.42627 56.09756,13.26779 81.86184,13.81762 -44.11501,50.89914 -102.42757,76.51766 -161.18853,69.78381 29.69146,-21.57775 56.32455,-50.14567 79.32669,-83.60143 z"
             id="path30220" />
          <path
             style="fill:#859900;fill-opacity:1;stroke-width:2.17217"
             d="m 728.92981,358.32963 c 22.3303,12.14628 45.16347,22.59751 67.84546,31.11442 -27.24282,35.99656 -59.25363,64.35493 -94.68519,81.91146 -2.9469,-1.2093 -5.86836,-2.49088 -8.79745,-3.87679 z"
             id="path30218" />
          <path
             style="fill:#859900;fill-opacity:1;stroke-width:2.17217"
             d="m 639.46354,298.68534 c 19.57121,15.71153 40.24127,30.28116 61.43353,43.3415 L 665.3342,451.17583 c -2.73823,-1.89767 -5.4729,-3.73239 -8.12664,-5.7656 C 643.5378,399.5076 637.92137,349.41054 639.46354,298.68534 Z"
             id="path30216" />
          <path
             style="fill:#859900;fill-opacity:1;stroke-width:2.17217"
             d="m 884.60167,285.06657 74.10777,42.94384 c -6.7957,17.42822 -14.74572,33.61741 -23.70858,48.41127 -26.48855,3.26348 -56.86661,0.29011 -89.01891,-7.95257 14.89841,-25.92171 27.90907,-53.93485 38.61972,-83.40254 z"
             id="path30214" />
          <path
             style="fill:#859900;fill-opacity:1;stroke-width:2.17217"
             d="m 773.73751,220.84959 86.33512,50.00176 c -11.71738,31.97766 -26.23711,62.00675 -43.01818,88.96934 -25.51795,-8.6783 -51.68228,-20.2093 -77.46285,-34.196 z"
             id="path30212" />
          <path
             style="fill:#859900;fill-opacity:1;stroke-width:2.17217"
             d="m 548.35688,204.64623 c 18.37871,25.43571 40.67491,49.73541 65.45944,72.16955 -2.91128,45.04217 -0.81943,90.29231 7.08274,133.60315 -44.30687,-52.74821 -70.34091,-127.53716 -72.54218,-205.7727 z"
             id="path30210" />
          <path
             style="fill:#859900;fill-opacity:1;stroke-width:2.17217"
             d="m 661.9791,156.03614 83.72567,48.51066 -34.14642,104.87451 c -24.41961,-15.08545 -47.8508,-32.14904 -69.41104,-50.3994 3.54239,-34.83093 10.18946,-69.56118 19.83179,-102.98577 z"
             id="path30208" />
          <path
             style="fill:#859900;fill-opacity:1;stroke-width:2.17217"
             d="m 917.48027,142.61619 c 26.17654,25.23778 48.41371,52.36058 64.86344,79.92332 -1.69485,22.87519 -5.42098,45.70593 -11.40691,68.19326 L 896.73742,247.6895 c 9.82149,-33.8684 16.84571,-69.26067 20.72605,-105.07331 z"
             id="path30206" />
          <path
             style="fill:#859900;fill-opacity:1;stroke-width:2.17217"
             d="m 560.73286,97.286545 76.79203,44.534385 c -8.95777,30.77331 -15.61859,62.73931 -19.83128,95.13261 -27.39246,-26.32406 -50.60073,-54.58653 -67.32377,-83.40257 2.00023,-18.88599 5.42047,-37.69674 10.36302,-56.264425 z"
             id="path30204" />
          <path
             style="fill:#859900;fill-opacity:1;stroke-width:2.17217"
             d="m 823.01901,69.651365 c 24.50206,15.13222 47.93783,32.181715 69.55966,50.498815 -2.94181,38.37049 -9.74412,76.6595 -20.27868,113.32411 L 785.96487,183.4725 Z"
             id="path30202" />
          <path
             style="fill:#859900;fill-opacity:1;stroke-width:2.17217"
             d="m 722.22013,20.842463 c 24.02312,8.47982 48.56589,19.47645 72.76563,32.60554 L 757.93213,167.16973 674.20647,118.65907 c 12.94551,-35.460065 29.13566,-68.541937 48.01366,-97.816607 z"
             id="path30200" />
          <path
             style="fill:#859900;fill-opacity:1;stroke-width:2.17217"
             d="m 620.97388,1.25926 c 22.35575,-0.0442 46.79724,3.659 72.24393,10.53716 -16.95207,28.481623 -31.6133,59.739405 -43.54038,92.64744 L 572.96022,60.008875 c 8.24064,-21.132862 18.15629,-40.427662 29.52401,-57.656135 5.99407,-0.62872 12.1332,-1.08089 18.48965,-1.09348 z"
             id="path30198" />
          <path
             style="fill:#859900;fill-opacity:1;stroke-width:2.17217"
             d="m 911.59053,-21.30615 c 41.17726,49.554913 66.38423,118.201825 71.05143,190.86166 -17.74504,-23.77414 -38.85841,-46.52024 -62.17916,-67.59683 1.65922,-41.563975 -1.14517,-83.175767 -8.87227,-123.26483 z"
             id="path30196" />
          <path
             style="fill:#859900;fill-opacity:1;stroke-width:2.17217"
             d="m 866.33544,-63.15654 c 2.76877,1.91879 5.51921,3.80771 8.20094,5.86502 13.46925,43.12698 19.76666,89.688653 19.68269,136.982995 -19.30911,-15.43967 -39.66565,-29.782212 -60.53879,-42.645652 z"
             id="path30194" />
          <path
             style="fill:#859900;fill-opacity:1;stroke-width:2.17217"
             d="m 829.65438,-83.33619 c 2.92145,1.20116 5.81644,2.50151 8.72263,3.87689 L 805.64754,20.743063 C 785.03856,9.53297 764.0453,-0.23739 743.09531,-8.38323 c 25.42226,-32.44312 54.57472,-58.29739 86.55907,-74.95296 z"
             id="path30192" />
          <path
             style="fill:#859900;fill-opacity:1;stroke-width:2.17217"
             d="m 768.07121,-96.1597 c 5.85563,0.0784 11.7927,0.57223 17.66972,1.29231 -26.79545,20.0586 -51.13311,45.92955 -72.54219,76.04642 -28.303,-8.80134 -55.98609,-14.19518 -81.86184,-15.3087 38.77647,-40.55943 87.11537,-62.6921 136.73482,-62.03003 z"
             id="path30190" />
        </g>
      </g>
    </g>
  </g>
</svg>
