<?xml version="1.0" encoding="UTF-8" standalone="no"?>
<svg
   width="576pt"
   height="576pt"
   viewBox="-304 -304 768 768"
   version="1.1"
   id="svg226"
   sodipodi:docname="wireshare-icon.svg"
   inkscape:version="1.2.2 (b0a84865, 2022-12-01)"
   inkscape:export-filename="wireshare-icon.png"
   inkscape:export-xdpi="96"
   inkscape:export-ydpi="96"
   xmlns:inkscape="http://www.inkscape.org/namespaces/inkscape"
   xmlns:sodipodi="http://sodipodi.sourceforge.net/DTD/sodipodi-0.dtd"
   xmlns="http://www.w3.org/2000/svg"
   xmlns:svg="http://www.w3.org/2000/svg"
   xmlns:rdf="http://www.w3.org/1999/02/22-rdf-syntax-ns#"
   xmlns:cc="http://creativecommons.org/ns#"
   xmlns:dc="http://purl.org/dc/elements/1.1/">
  <defs
     id="defs230" />
  <sodipodi:namedview
     id="namedview228"
     pagecolor="#ffffff"
     bordercolor="#000000"
     borderopacity="0.25"
     inkscape:showpageshadow="2"
     inkscape:pageopacity="0.0"
     inkscape:pagecheckerboard="0"
     inkscape:deskcolor="#d1d1d1"
     showgrid="false"
     inkscape:zoom="0.29987729"
     inkscape:cx="-26.677578"
     inkscape:cy="330.13503"
     inkscape:window-width="1309"
     inkscape:window-height="456"
     inkscape:window-x="202"
     inkscape:window-y="38"
     inkscape:window-maximized="0"
     inkscape:current-layer="g699"
     inkscape:document-units="pt" />
  <title
     id="title222">Squircle: x to 4th plus y to 4th equals radius to 4th</title>
  <metadata
     id="metadata349">
    <rdf:RDF>
      <cc:Work
         rdf:about="">
        <dc:title>Squircle: x to 4th plus y to 4th equals radius to 4th</dc:title>
      </cc:Work>
    </rdf:RDF>
  </metadata>
  <g
     id="g699"
     transform="matrix(1.3333333,0,0,1,101.33333,0)"
     style="stroke-width:0.866025">
    <path
       fill="none"
       stroke="#000000"
       stroke-width="3.49874"
       d="m -16.000009,463.99998 c 126.199999,0 196.356299,0 242.178199,-61.09573 45.8218,-61.09587 45.8218,-154.6376 45.8218,-322.904267 0,-168.266663 0,-261.808393 -45.8218,-322.904253 C 180.35629,-304 110.19999,-304 -16.000009,-304 c -126.200001,0 -196.356301,0 -242.178201,61.09573 -45.8218,61.09586 -45.8218,154.63759 -45.8218,322.904253 0,168.266667 0,261.808397 45.8218,322.904267 45.8219,61.09573 115.9782,61.09573 242.178201,61.09573 z"
       id="path224"
       style="fill:#81d8d0;fill-opacity:1;stroke:none;stroke-width:0.866025" />
    <g
       id="g7720"
       transform="matrix(0.96750886,0,0,0.96737326,-0.51985818,-8.3523439)"
       style="stroke-width:0.895171">
      <g
         id="g23198"
         transform="matrix(0.97674419,0,0,0.97674419,-0.37209574,1.8604648)"
         style="stroke-width:0.916482">
        <path
           id="path27542"
           style="fill:#93a1a1;fill-opacity:1;stroke-width:3.17479"
           class="color37474F svgShape"
           d="M -15.999998,-264 C -157.70296,-264 -273.0513,-110.88464 -273.95752,77.773438 L -274,77.935547 V 80 c 0,189.68395 115.73703,344 258.000002,344 142.262968,0 258.000008,-154.31605 258.000008,-344 0,-189.68395 -115.73704,-344 -258.000008,-344 z m 0,12.74023 c 18.0017302,0 35.544323,2.62974 52.46924,7.50196 10.516347,21.10778 19.447461,43.29039 27.117188,66.14843 -5.043448,4.27251 -9.431728,9.76189 -12.960938,16.16797 -39.96483,-35.30602 -84.267352,-62.19566 -131.526859,-78.27539 20.702821,-7.47963 42.448365,-11.54297 64.901369,-11.54297 z m 65.92383,11.92969 c 62.450098,22.94913 115.116628,77.61376 147.580078,150.185549 -19.75408,-12.262709 -40.07517,-21.990489 -60.81299,-29.499999 0.10526,-1.72207 0.19776,-3.44941 0.19776,-5.20703 0,-35.12619 -21.4327,-63.70313 -47.777347,-63.70313 -5.984135,0 -11.692407,1.53772 -16.976075,4.22852 -6.467266,-19.21862 -13.818826,-37.95089 -22.211426,-56.00391 z m -148.703617,7.04883 c 52.210945,14.87263 101.0127609,43.24968 144.547855,81.79687 -1.547828,4.45947 -2.754547,9.16802 -3.496582,14.10938 -1.902006,-0.0926 -3.798937,-0.2168 -5.715821,-0.2168 -63.169474,0 -124.545171,21.34016 -179.112307,60.009769 -8.76358,-13.321957 -21.58408,-21.789063 -35.88721,-21.789063 -1.90462,0 -3.77357,0.192011 -5.62061,0.482422 -1.96217,-20.144528 -3.19563,-40.555948 -3.60644,-61.226558 25.17876,-32.14987 55.38001,-57.32633 88.891115,-73.16602 z m 187.891118,57.4668 c 21.079537,0 38.222167,22.85685 38.222167,50.96289 0,28.106041 -17.14263,50.962888 -38.222167,50.962888 -21.079535,0 -38.222169,-22.856847 -38.222169,-50.962888 0,-28.10604 17.142634,-50.96289 38.222169,-50.96289 z m -286.006353,28.10156 c 0.60957,17.38465 1.79108,34.58519 3.47168,51.595702 -17.43283,7.700884 -30.44501,28.417416 -32.49903,53.494141 -7.53303,1.319857 -15.02893,2.886293 -22.48681,4.6875 11.6747,-41.112396 29.32029,-78.314253 51.51416,-109.777343 z m 233.450687,22.86133 c 1.60265,0 3.192932,0.10971 4.785645,0.18554 0.07625,35.040167 21.472359,63.517582 47.770021,63.517582 0.182954,0 0.359517,-0.03436 0.541992,-0.03711 2.685107,23.071635 4.234863,46.46072 4.234863,70.1113282 0,15.7438028 -0.677215,31.3788388 -1.896972,46.8769528 -65.80486,-59.0437488 -142.634142,-94.87977 -223.428226,-102.535156 -0.9653,-7.303905 -2.85312,-14.175556 -5.51953,-20.40039 52.919877,-37.202837 112.359268,-57.718747 173.512207,-57.718747 z m 98.396483,17.80468 c 24.18041,8.829271 47.7626,20.798369 70.53956,36.277349 17.19201,45.014936 26.95312,95.885434 26.95312,149.769531 0,23.70321 -1.91418,46.81353 -5.47998,69.11914 -20.4651,-87.005763 -56.38696,-165.243624 -103.06348,-229.445312 5.07954,-7.213628 8.91752,-15.975037 11.05078,-25.720708 z m -313.396,20.417974 c 21.07953,0 38.22217,22.856846 38.22217,50.96289 0,28.1060447 -17.14264,50.962891 -38.22217,50.962891 -21.07954,0 -38.22217,-22.8568463 -38.22217,-50.962891 0,-28.106044 17.14263,-50.96289 38.22217,-50.96289 z m 295.16456,13.671875 c 49.4451,67.8654581 86.60446,151.772449 105.62109,245.269531 -3.00707,13.63064 -6.64697,26.89477 -10.88964,39.73828 -30.65904,-58.21985 -68.14712,-108.0101 -110.50049,-147.994139 1.63955,-18.193057 2.49316,-36.595593 2.49316,-55.1308598 0,-24.1300052 -1.57063,-47.9864912 -4.27588,-71.5234372 6.42959,-1.845413 12.36425,-5.438141 17.55176,-10.359375 z m -247.45313,39.02539 C -50.475679,-24.997073 25.758325,11.306199 90.699224,70.958984 83.499215,141.03457 64.105356,207.63727 34.835941,265.69336 c -6.632536,-4.65542 -14.167277,-7.32227 -22.168946,-7.32227 -14.932842,0 -28.276533,9.1933 -37.044435,23.54493 -62.795926,-67.12733 -110.15752,-155.95186 -137.34082,-256.986332 17.71862,-8.872528 30.44654,-31.3452923 30.98584,-57.861329 z m -95.26612,4.16211 c 0.62247,8.989929 2.64837,17.437555 5.7876,24.9609372 -15.6907,18.9361248 -30.35836,39.5419888 -43.6333,61.9648438 1.38471,-28.197783 5.42135,-55.4313783 11.79053,-81.283203 8.62145,-2.262441 17.31843,-4.081091 26.05517,-5.642578 z m 11.3042,35.4863279 c 8.76944,13.6362151 21.75364,22.3203121 36.25049,22.3203121 2.53876,0 5.01305,-0.342453 7.4458,-0.853515 27.82808,104.082206 76.590592,195.536156 141.336919,264.449216 -2.073591,5.27814 -3.622714,10.97473 -4.520508,16.98828 -81.288431,-15.72575 -157.762841,-62.4642 -220.044441,-135.75976 -6.59609,-29.70867 -10.19771,-61.11457 -10.21435,-93.632814 14.77615,-26.945246 31.53734,-51.400729 49.74609,-73.5117191 z M 99.485357,79.277344 C 140.75123,119.16424 177.16303,168.66655 206.78663,226.4043 200.39555,243.62348 192.91729,259.99384 184.4668,275.36719 144.46138,296.65577 102.7162,309.38552 59.990238,313.76562 58.367691,297.27033 52.033562,282.73379 42.806156,272.70117 71.93961,214.8878 91.574791,148.83928 99.485357,79.277344 Z M -248.29639,197.31836 c 61.45291,67.10538 135.17376,110.00352 213.193364,124.99414 0.03719,13.31138 3.160726,25.65837 8.452149,35.86914 -14.21075,16.30954 -29.427752,31.24391 -45.704591,44.37695 C -153.32582,377.41178 -219.20229,299.38685 -248.29639,197.31836 Z m 260.963385,73.79297 c 21.079535,0 38.222169,22.85685 38.222169,50.96289 0,28.10604 -17.142634,50.96289 -38.222169,50.96289 -21.079535,0 -38.222169,-22.85685 -38.222169,-50.96289 0,-28.10604 17.142634,-50.96289 38.222169,-50.96289 z M 172.8711,294.85352 c -20.86027,32.55177 -46.34788,59.64226 -75.106935,79.48437 -14.503478,-7.2263 -28.561764,-15.41006 -42.194825,-24.41211 2.627348,-7.16428 4.271425,-15.05947 4.706543,-23.41211 C 98.750871,322.62144 136.4686,312.13926 172.8711,294.85352 Z M 50.512699,360.80469 c 11.518577,7.6499 23.334974,14.72588 35.468263,21.14062 -31.140064,18.77261 -65.644446,29.31446 -101.98096,29.31446 -14.604186,0 -28.89329,-1.78645 -42.812989,-5.02539 13.50715,-11.66304 26.287273,-24.51931 38.345216,-38.36719 8.598412,11.06384 20.27016423,17.91015 33.134766,17.91015 15.412077,0 29.103476,-9.82223 37.845704,-24.97265 z" />
        <path
           style="fill:#b58900;fill-opacity:1;stroke:none;stroke-width:0.916482"
           d="m 89.11133,-174.81445 c 21.07952,0 38.22217,22.85688 38.22217,50.96289 0,28.10601 -17.14265,50.96289 -38.22217,50.96289 -21.07951,0 -38.22217,-22.85688 -38.22217,-50.96289 0,-28.10601 17.14266,-50.96289 38.22217,-50.96289 z"
           id="path4101" />
        <path
           style="fill:#d33682;fill-opacity:1;stroke:none;stroke-width:0.916482"
           d="m -178.44386,-85.62891 c 21.07951,0 38.22217,22.85688 38.22217,50.962898 0,28.106016 -17.14266,50.962891 -38.22217,50.962891 -21.07952,0 -38.22217,-22.856875 -38.22217,-50.962891 0,-28.106018 17.14265,-50.962898 38.22217,-50.962898 z"
           id="path4093" />
        <path
           style="fill:#6c71c4;fill-opacity:1;stroke:none;stroke-width:0.916482"
           d="m 12.66699,271.11133 c 21.07952,0 38.22217,22.85688 38.22217,50.96289 0,28.10601 -17.14265,50.96289 -38.22217,50.96289 -21.07951,0 -38.22217,-22.85688 -38.22217,-50.96289 0,-28.10601 17.14266,-50.96289 38.22217,-50.96289 z"
           id="path4079" />
        <g
           id="g15879"
           style="fill:#002b36;fill-opacity:1;stroke-width:0.916482">
          <path
             style="fill:#002b36;fill-opacity:1;stroke:none;stroke-width:0.916482"
             d="m -16,-251.25976 c 18.00171,0 35.54433,2.62973 52.46924,7.50195 10.51633,21.10776 19.44746,43.29042 27.11718,66.14844 -5.04344,4.2725 -9.43173,9.76189 -12.96093,16.16797 -39.96479,-35.30599 -84.2674,-62.19568 -131.52686,-78.27539 20.7028,-7.47963 42.44839,-11.54297 64.90137,-11.54297 z"
             id="path4107" />
          <path
             style="fill:#002b36;fill-opacity:1;stroke:none;stroke-width:0.916482"
             d="m 49.92383,-239.33008 c 62.45003,22.94911 115.11663,77.61384 147.58005,150.18555 -19.75409,-12.2627 -40.07516,-21.9905 -60.81296,-29.5 0.10525,-1.72207 0.19775,-3.44941 0.19775,-5.20703 0,-35.12615 -21.43272,-63.70312 -47.77734,-63.70312 -5.98413,0 -11.69241,1.53771 -16.97608,4.22851 -6.46726,-19.2186 -13.81883,-37.9509 -22.21142,-56.00391 z"
             id="path4105" />
          <path
             style="fill:#002b36;fill-opacity:1;stroke:none;stroke-width:0.916482"
             d="m -98.77979,-232.28125 c 52.2109,14.87262 101.01281,43.24973 144.54785,81.79688 -1.54782,4.45946 -2.75455,9.16802 -3.49658,14.10937 -1.90201,-0.0926 -3.79894,-0.21679 -5.71582,-0.21679 -63.16942,0 -124.54522,21.34019 -179.11231,60.00976 -8.76357,-13.32194 -21.58409,-21.78906 -35.88721,-21.78906 -1.90461,0 -3.77356,0.19201 -5.6206,0.48242 -1.96217,-20.14451 -3.19564,-40.55597 -3.60645,-61.22656 25.17874,-32.14984 55.38005,-57.32634 88.89112,-73.16602 z"
             id="path4103" />
          <path
             style="fill:#002b36;fill-opacity:1;stroke:none;stroke-width:0.916482"
             d="m -196.89503,-146.71289 c 0.60957,17.38463 1.79108,34.58521 3.47168,51.5957 -17.43281,7.70088 -30.445,28.41744 -32.49902,53.494147 -7.53303,1.319855 -15.02895,2.886294 -22.48682,4.6875 11.67469,-41.112357 29.32031,-78.314287 51.51416,-109.777347 z"
             id="path4099" />
          <path
             style="fill:#002b36;fill-opacity:1;stroke:none;stroke-width:0.916482"
             d="m 36.55566,-123.85156 v -10e-6 c 1.60265,0 3.19294,0.10975 4.78565,0.18555 0.0762,35.04013 21.47238,63.51757 47.77002,63.51757 0.18296,0 0.35952,-0.0341 0.54199,-0.0371 2.68511,23.071619 4.23486,46.46075 4.23486,70.111335 0,15.743787 -0.67722,31.378854 -1.89697,46.876953 C 26.18642,-2.240953 -50.64302,-38.07704 -131.43702,-45.732418 c -0.9653,-7.303898 -2.85312,-14.175562 -5.51953,-20.400392 52.91983,-37.2028 112.35933,-57.71875 173.51221,-57.71875 z"
             id="path4097" />
          <path
             style="fill:#002b36;fill-opacity:1;stroke:none;stroke-width:0.916482"
             d="m 134.95215,-106.04687 c 24.18038,8.82926 47.76254,20.79838 70.53953,36.27734 17.192,45.014893 26.9531,95.88549 26.9531,149.769533 0,23.703187 -1.9141,46.813557 -5.4799,69.119137 -20.4651,-87.005674 -56.38704,-165.243685 -103.06351,-229.44531 5.07953,-7.21362 8.91752,-15.97504 11.05078,-25.7207 z"
             id="path4095" />
          <path
             style="fill:#002b36;fill-opacity:1;stroke:none;stroke-width:0.916482"
             d="m 116.7207,-71.95703 c 49.44505,67.865392 86.60438,151.772543 105.62108,245.26953 -3.0071,13.63063 -6.6469,26.89479 -10.8896,39.73828 -30.65899,-58.21979 -68.14719,-108.01014 -110.50052,-147.994136 1.63955,-18.193039 2.49316,-36.595611 2.49316,-55.130859 0,-24.129981 -1.57063,-47.986515 -4.27588,-71.523445 6.42959,-1.84541 12.36426,-5.43814 17.55176,-10.35937 z"
             id="path4091" />
          <path
             style="fill:#002b36;fill-opacity:1;stroke:none;stroke-width:0.916482"
             d="M -130.73243,-32.931637 C -50.47577,-24.997078 25.75838,11.306262 90.69922,70.958988 83.49922,141.0345 64.10533,207.63733 34.83593,265.69336 28.2034,261.03795 20.66865,258.3711 12.66699,258.3711 c -14.93283,0 -28.27654,9.1933 -37.04444,23.54492 C -87.17331,214.78876 -134.535,125.96406 -161.71827,24.929691 c 17.7186,-8.872519 30.44654,-31.345319 30.98584,-57.861328 z"
             id="path4089" />
          <path
             style="fill:#002b36;fill-opacity:1;stroke:none;stroke-width:0.916482"
             d="m -225.99854,-28.769528 c 0.62246,8.98992 2.64837,17.437563 5.78759,24.960937 -15.69068,18.936107 -30.35837,39.542012 -43.6333,61.964844 1.38471,-28.197754 5.42136,-55.431405 11.79053,-81.283203 8.62144,-2.262438 17.31844,-4.081092 26.05518,-5.642578 z"
             id="path4087" />
          <path
             style="fill:#002b36;fill-opacity:1;stroke:none;stroke-width:0.916482"
             d="m -214.69435,6.7168 c 8.76944,13.636202 21.75366,22.320313 36.25049,22.320313 2.53876,0 5.01306,-0.342454 7.4458,-0.853516 C -143.17,132.2657 -94.4074,223.71982 -29.66114,292.63282 c -2.07359,5.27813 -3.62272,10.97473 -4.52051,16.98828 -81.28834,-15.72574 -157.7629,-62.46428 -220.04443,-135.75977 -6.59609,-29.70864 -10.19776,-61.1146 -10.21436,-93.632811 14.77613,-26.945219 31.53736,-51.400751 49.74609,-73.511719 z"
             id="path4085" />
          <path
             style="fill:#002b36;fill-opacity:1;stroke:none;stroke-width:0.916482"
             d="m 99.48535,79.277347 c 41.26583,39.886853 77.67774,89.389263 107.30123,147.126953 -6.3911,17.21916 -13.8694,33.58956 -22.31979,48.96289 -40.00541,21.28856 -81.75064,34.01834 -124.47656,38.39844 C 58.36768,297.27035 52.03354,282.73378 42.80615,272.70117 71.93957,214.88786 91.57479,148.83921 99.48535,79.277347 Z"
             id="path4083" />
          <path
             style="fill:#002b36;fill-opacity:1;stroke:none;stroke-width:0.916482"
             d="m -248.2964,197.31836 c 61.45285,67.10531 135.17385,110.00354 213.19337,124.99414 0.0372,13.31137 3.16073,25.65838 8.45215,35.86914 -14.21074,16.30953 -29.42777,31.24393 -45.70459,44.37696 -80.97027,-25.14679 -146.84686,-103.17185 -175.94093,-205.24024 z"
             id="path4081" />
          <path
             style="fill:#002b36;fill-opacity:1;stroke:none;stroke-width:0.916482"
             d="m 172.87109,294.85352 c -20.86025,32.55174 -46.34791,59.64228 -75.10693,79.48437 -14.50347,-7.22629 -28.56178,-15.41007 -42.19483,-24.41211 2.62735,-7.16427 4.27143,-15.05947 4.70655,-23.41211 38.47495,-3.89222 76.19275,-14.37443 112.59521,-31.66015 z"
             id="path4077" />
          <path
             style="fill:#002b36;fill-opacity:1;stroke:none;stroke-width:0.916482"
             d="m -58.81301,406.23438 c 13.5072,-11.66303 26.2873,-24.51932 38.3452,-38.36719 8.5984,11.06383 20.2702,17.91016 33.1348,17.91016 15.4121,0 29.1035,-9.82226 37.8457,-24.97266 11.5186,7.64989 23.335,14.72589 35.4683,21.14063 -31.14,18.77259 -65.6445,29.31445 -101.981,29.31445"
             id="path224-7"
             sodipodi:nodetypes="ccsccc" />
        </g>
      </g>
      <path
         d="m 70.497799,375.02674 c -3.69744,-4.38295 -9.46295,-4.09621 -13.3484,0 l -28.638306,15.59539 c -3.554034,3.72734 -7.977328,5.75118 -12.533712,5.7347 h -37.059057 c -2.768872,0 -5.013485,-2.9343 -5.013485,-6.55395 0,-3.61964 2.244613,-6.55394 5.013485,-6.55394 H 3.4499347 c 4.982151,0 9.6227583,-4.46488 10.4186493,-10.89594 0.09813,-0.73854 0.14636,-1.48694 0.144137,-2.23654 -0.01036,-7.22969 -4.4965613,-13.08333 -10.0269703,-13.08331 H -46.149101 c -8.45521,0.003 -16.65273,3.80496 -23.21871,10.76895 l -14.57044,15.44684 h -17.359189 c -2.76887,0 -5.01348,2.9343 -5.01348,6.55394 v 39.32369 c 0,3.61965 2.24461,6.55395 5.01348,6.55395 H 10.493882 c 4.554855,0.005 8.975232,-2.01786 12.533712,-5.73471 l 47.072265,-34.88857 c 4.85154,-5.07268 5.04297,-14.63296 0.40108,-20.0305 z"
         id="path4189"
         sodipodi:nodetypes="ccccssssccccccssssccccc"
         style="fill:#fdf6e3;fill-opacity:1;stroke:#586e75;stroke-width:5.96781;stroke-linecap:round;stroke-linejoin:round;stroke-dasharray:none;stroke-opacity:1;paint-order:normal" />
    </g>
  </g>
</svg>
